<svg xmlns="http://www.w3.org/2000/svg" viewBox="0 0 542.7 196.8"><g><g id="Layer_1"><g><path d="M142.4,146.2c-4.9,0-9.4.2-13.8-.2-1.3-.1-2.9-1.8-3.6-3.2-3.1-6.3-5.9-12.6-8.7-19.1-1-2.4-2.2-3.6-5.1-3.5-9.3.2-18.7,0-28,.2-1.6,0-3.9,1.6-4.6,3.1-3.1,6.4-5.6,13.1-8.6,19.6-.6,1.2-2.2,2.8-3.3,2.8-22.1.2-44.3.1-66.7.1V33h17v97.7h14.5c7.8,0,15.7-.2,23.5.1,3.2.1,4.7-1.1,5.9-4,9.4-22.5,19.1-45,28.5-67.5,1.2-2.9,2.4-4.8,6.1-4.3,3.4.5,6.7-.8,8.8,4.1,12,27.9,24.5,55.7,36.8,83.5.4,1,.7,2.1,1.3,3.6ZM96.7,79.9c-3.7,9.1-7.1,17.3-10.6,25.9h22c-3.8-8.8-7.4-17-11.4-25.9Z"></path><path d="M201.6,78.4c-4,9.9-7.7,19.1-11.5,28.3-5,12.3-9.9,24.7-15,36.9-.6,1.4-2.3,3.1-3.5,3.1s-3-1.7-3.5-3.1c-11.7-28.8-23.2-57.7-34.7-86.5-.1-.3,0-.6,0-1.7,4.5,0,9-.3,13.5.2,1.2,0,2.6,2.2,3.2,3.6,6.4,15.9,12.7,31.8,19.1,47.7.7,1.7,1.4,3.3,2.4,5.9,5.4-13.3,10.4-25.9,15.5-38.4,2-5.1,4.2-10.1,6-15.3,1-2.8,2.5-3.7,5.4-3.7,10.1,0,10.1,0,14,9.5,6.3,15.7,12.7,31.4,19.3,48,3.9-9.9,7.6-19.2,11.3-28.4,3.4-8.5,6.8-17,10-25.5.9-2.5,2.1-3.8,5-3.5,3.8.3,7.6,0,12.3,0-1.8,4.5-3.5,8.5-5.1,12.6-10,25-20,50-30.1,74.9-.6,1.6-2.3,2.7-3.6,4-1.4-1.3-3.4-2.4-4-4.1-8-19.5-15.7-39.2-23.6-58.7-.6-1.7-1.3-3.4-2.4-5.9Z"></path><path d="M423,23.2c1.3,3.8,2.4,7,3.7,10.8-23.1,9.2-41.3,23.1-47.9,48.4,5.6-2.1,10.7-4.9,16.1-6,19-3.8,36.8,7.2,41.4,25,5.1,20-5.8,40.4-25.1,46.7-24.1,7.9-47.2-6.8-51.9-33.1-4.6-25.5,2.9-47.3,20.7-65.8,11.8-12.3,26.1-20.9,43-26ZM376.2,106.3c.4,3.8.7,7.6,1.3,11.4.4,2.3,1.1,4.5,1.9,6.7,3.3,8.4,9.7,12.9,18.2,13.1,9.1.2,16.1-4.2,19.6-12.6,2.9-7.1,3.4-14.5,1.2-21.9-2.5-8.9-9.5-14.4-18.7-14.2-4.4,0-8.9,1.2-13,2.7-9.8,3.5-10.2,4.5-10.5,14.8Z"></path><path d="M286.4,75c-2.5-2.9-4.9-5.8-7.4-8.6,10.4-11.1,37.7-20.7,56.9-10,9.7,5.4,15.1,13.6,14.9,24.7-.1,11.2-6,19.1-15.9,24-1.2.6-2.4,1.1-4.2,1.9,1.7.8,2.9,1.4,4.2,1.9,20.1,8.4,25.3,30.2,11,46.7-10.5,12.2-24.3,17.7-39.9,19.3-5.6.6-11.3.3-17,.6-4.3.2-7-1.2-7.6-5.8-.2-1.8-1-3.5-1.5-5,8.3-.6,16.5-.7,24.5-1.8,8.9-1.2,16.9-5.1,23.1-11.8,5-5.3,7.6-11.7,7.4-19-.2-8.9-5.7-16.2-14.5-17.9-6.8-1.3-13.8-1.5-21.2-2.2v-11.8c4.9,0,10,.3,15.1,0,12.1-.8,19-8,18.2-18.6-.5-7.8-5.2-13.4-12.8-15.3-7.8-2-15.2-.5-22.3,2.8-3.4,1.9-7,4-11,6Z"></path><path d="M489.3,111.8h-15.5c6.6-9.7,12.7-18.7,19.3-28.4,6.4,9.5,12.6,18.5,19.2,28.2h-14.4c-8.6,42.7-32.5,71.6-75.2,82.2-32,8-60.9-.3-86.8-21.6,2.6-1.8,4.8-3.3,7.2-5,30.6,23.1,63.5,28.1,98.3,10.9,26.8-13.3,42.1-36,47.9-66.3Z"></path><path d="M490.7,149.5c1.8-3.9,3.3-7.4,5.1-10.7.5-.9,1.6-1.7,2.5-2,16.6-3.8,24.5-15.1,26.5-31,1.7-13.6-.8-26.3-11.5-36-2.9-2.6-6.5-5.1-10.2-6-4.7-1.1-7-3.6-8.3-7.9-.6-2.2-1.8-4.2-2.8-6.4,27.5-1.8,50.9,21.5,50.7,50.3-.1,28.9-23.7,51.7-52,49.7Z"></path><path d="M495.4,75.4c-2.6.7-4.9,1.3-6.4,1.8-4.3-9.2-7.6-18.4-12.6-26.4C444.1-.8,372.2-6,332.9,40.3c-4.2,4.9-7.7,7.8-13.9,4.6,11.7-22.3,47.4-49.5,92.4-44.3,48.1,5.6,77.3,42.6,84,74.8Z"></path><path d="M477.4,133.1c-2.4,4.1-4.5,7.8-6.9,11.8-17.6-10.1-27-24.4-27.3-44.3-.3-21.4,9.4-36.7,28.8-47.2,2.1,4,4.1,7.7,6.3,11.9-12.3,7.8-17.6,19.5-17.7,33.6-.2,13.8,4.1,25.8,16.8,34.2Z"></path></g></g></g></svg>