<svg xmlns="http://www.w3.org/2000/svg" viewBox="0 0 5950 1525"><defs><style>      .cls-1 {        fill: #fff;      }    </style></defs><g><g id="Layer_1"><g><path d="M1517.9,0c2.5,2,4.9,4,8,6.5v1518.5H0V0h1517.9ZM1314,771.5h0c0-15.3.7-30.7,0-45.9-.8-15.4-3.1-30.8-4.7-46.2,0-.3,0-.7-.2-1-2.5-11.5-4.8-23.1-7.6-34.5-1.9-7.9-4.2-15.8-6.7-23.6-3-9.7-6.3-19.3-9.7-28.9-4.9-13.9-9.1-28.1-15.3-41.4-9-19.3-18.7-38.3-29.5-56.8-11.4-19.4-24.4-37.4-37.2-55.7-7.9-11.3-17.4-21.7-26.9-31.8-23.3-24.5-47.3-48.4-74-69.3-.8-.6-1.4-1.4-2.3-1.9-14.6-9.5-29.1-19.1-43.9-28.3-12.8-8-25.8-15.7-39.2-22.9-9.3-5-19.2-8.7-28.8-13.1-5.4-2.5-10.6-5.5-16.2-7.5-16-5.7-32.1-11.1-48.2-16.4-5.6-1.9-11.3-3.4-17.1-4.6-8.7-1.8-18.1-1.6-26-5-11.3-4.9-23.8-1.4-34.6-7.2-21.5-1.2-43-3.3-64.5-3.4-23.9-.1-47.7,1.5-71.6,2.6-6.3.3-13.1-.2-18.7,2.1-10.9,4.5-22.9,1-33.9,6.3-7.1,3.5-16,3.2-23.9,5.4-11.9,3.4-23.7,7.2-35.5,11.3-14.3,4.9-28.7,9.5-42.4,15.7-22.2,10.2-44.3,20.5-65,33.7-11.4,7.3-23.3,13.6-33.8,22.2-6.4,5.2-13,10.2-19.6,15.2-9.7,7.4-20.2,13.8-28.9,22.2-17.9,17.2-36.1,34-51.6,53.6-11,14-23.1,27.2-32.8,42.2-8.8,13.5-18.6,26.5-26,40.7-16.6,31.7-32.4,63.7-43.5,98.1-7.5,23.2-13.5,46.6-19,70.2-2.9,12.5-3.7,25.4-5,38.2-1.5,14.8-3.2,29.6-3.4,44.5-.5,28.5-1.2,57.1,3.4,85.5,2.1,12.7,3.2,25.5,5.1,38.3,1,6.5,2.7,12.8,4.4,19.2,2.2,8.2,4.7,16.3,7.1,24.5,2.4,8.2,4.6,16.4,7.3,24.5,2.8,8.1,6.1,15.9,9.2,23.8,3.9,10,7.1,20.4,11.8,30,8.5,17.5,17.7,34.6,27.1,51.6,5.1,9.2,11.2,17.8,17.2,26.5,4.6,6.8,9.8,13.3,14.6,19.9,6.4,8.7,11.9,18.3,19.4,26,25.5,26.1,49.9,53.3,78.8,76.1,12.2,9.6,24.8,18.6,37.4,27.3,15.4,10.6,31.9,19.6,48.5,28.3,27.3,14.3,55,28,85,36,5.7,1.5,11.6,2.5,17.1,4.5,16.4,6,32.9,11.3,50.6,11.7,1.3,0,2.6.5,3.9.7,5.4,1.1,10.9,2.2,16.3,3.2,2.9.5,5.9.7,8.8,1.2,4.2.8,8.3,2.5,12.5,2.5,38.6.2,77.2.8,115.8,0,11.7-.3,23.3-4.4,35.2-4.2.6,0,1.3-.2,2-.4,9.8-2.4,19.6-4.9,29.5-7.1,8-1.8,16.2-2.8,24-5.2,10.5-3.2,20.5-8.3,31.2-10.9,18.5-4.5,34.9-13.7,52.2-20.9,13.7-5.7,26.3-13.4,39.3-20.6,17.9-10,34.7-21.6,51.4-33.1,15.4-10.7,29.6-23.2,43.9-35.4,22.8-19.5,41.7-42.7,61.2-65.2,5.2-6,10.1-12.3,14.5-18.8,6.8-10.1,13.2-20.4,19.5-30.8,8.2-13.5,16.4-26.9,23.9-40.8,5.8-10.7,10.8-21.8,15.5-33,6-14.2,11.8-28.5,16.8-43.1,3.9-11.5,6.2-23.6,9.7-35.2,3.8-13,8-25.8,8-39.5s.6-2.6.8-3.8c1-5.1,2.2-10.2,3-15.4.5-2.9.3-6,.8-8.9,1-6.1,3-12.2,3.1-18.4.8-16.7.5-33,.5-49.3Z"></path><path d="M4914.6,1010.8c.6-18.5.2-37,.3-55.5.1-18.3,0-36.6,0-54.9s-.1-37.1.1-56.8h21.3c10.3,0,20.7,0,31,0,6.5,0,7.5,1.2,8,7.5.2,2.3.1,4.7.1,7v252.7q0,13.7-13.9,13.7c-9.7,0-19.3-.3-29,0-6.8.3-11.1-2.3-15.1-7.6-14.3-19.1-29.1-38-43.6-57-11.3-14.8-22.4-29.7-33.6-44.5-15.3-20.1-30.6-40.1-46-60.1-1.6-2.1-3.8-3.8-5.7-5.7-.7.3-1.4.6-2.1.9-.2,3.1-.6,6.3-.6,9.4v150.8q0,13.6-13.7,13.6c-12,0-24,0-36,0-10,0-10.6-.7-10.6-10.9v-193.8c0-22-.1-43.9,0-65.9,0-9.9.4-10.3,10-10.4,13,0,26,.3,39,0,6.5-.2,10.5,2.6,14.1,7.5,21.6,28.6,43.4,57.1,65.1,85.6,17.7,23.2,35.3,46.5,53,69.7,1.5,2,3.4,3.7,5.1,5.5.9-.2,1.8-.6,2.8-.9Z"></path><path d="M2747.6,949v162c0,2.7,0,5.3-.1,8-.1,3.6-2,5.6-5.6,5.6-16.3,0-32.6,0-49,0-3.5,0-5.5-2.1-5.6-5.7-.1-2.3-.1-4.7-.1-7v-254.7q0-13.4,13-13.4c12,0,24,.2,36,0,6-.2,10.1,2,13.6,6.7,17.4,23.5,34.9,46.9,52.4,70.2,6,8,12.2,15.7,18.3,23.6,15.8,20.5,31.5,41.1,47.3,61.6,1.7,2.2,3.8,4.2,5.6,6.2.8-.2,1.5-.4,2.3-.6.2-3.8.5-7.5.5-11.3,0-47.6,0-95.2.1-142.8,0-4.2.7-8.4,1.1-13h58.1c.4,4.6,1.1,9.1,1.1,13.5.1,84.2,0,168.5,0,252.7s-.1,4.7,0,7c.2,5.1-2.5,7.2-7.3,7.2-13,0-26,.3-39-.2-3.1,0-6.9-2.5-9-5-7.1-8.3-13.8-17-20.4-25.7-10.2-13.5-20.1-27.2-30.3-40.7-17.4-23-34.9-46-52.4-68.9-7.8-10.3-15.7-20.6-23.7-30.8-1.3-1.4-3.2-2-6.9-4.3Z"></path><path d="M5291.5,844.2c3.6-.2,6.9-.5,10.1-.5,42.3,0,84.7-.2,127,0,25.4,0,48.7,7.4,68.5,23.4,13.8,11.2,22.1,26.4,25.2,44,4.6,25.4,4.2,50.3-9,73.6-9.2,16.1-22.9,27.3-39.3,35.5-2.5,1.2-4.9,2.7-8.5,4.7,22.6,33.1,44.4,65,66.9,97.9-3,.8-5.1,1.8-7.1,1.8-19,0-38,0-57,0-4.9,0-8.1-2.1-10.7-6-14.6-22.2-29.2-44.4-44-66.5-3.5-5.2-7.1-10.5-11.4-15.1-2-2.1-5.7-3.4-8.7-3.5-11-.4-22-.3-33,0-6.9,0-8.2,1.3-8.4,8.3-.3,10-.1,20-.1,30v50.6c-7.4,2.8-47,3.5-59.9,1.3-.3-.2-.5-.4-.8-.7-.2-.2-.4-.5-.5-.8-.2-1.6-.6-3.3-.6-4.9,0-89.6.1-179.2.1-268.8,0-1,.5-1.9,1.2-4.3ZM5352.8,978.9c25.9,0,50.7,1.9,75-.5,30.7-3,43-34.1,30.4-58.9-7.4-14.5-20-19.9-35.2-20.3-20.3-.5-40.6-.2-60.9,0-9.9,0-10.1.3-10.1,10-.1,20,0,39.9,0,59.9.1,2.9.5,5.8.8,9.9Z"></path><path d="M4256.1,1123.8c-3.7.4-6.6.9-9.4.9-13.3,0-26.7,0-40,0-9.6,0-10.1-.6-10.2-10.3v-255.8c0-2.3-.1-4.7,0-7,.4-6.5,1.3-7.5,7.6-7.9,1.3,0,2.7,0,4,0,41.7,0,83.3,0,125,0,19.6,0,38.4,4.2,55.5,13.9,19.8,11.4,33.2,27.8,38.9,50.5,4.5,17.9,4.7,35.4.4,53.2-6,25-19.7,44-42.9,55.6-2.1,1-4.1,2.1-6.2,3.2-6.6,3.4-7.4,5.5-3.3,11.5,7.7,11.2,15.6,22.3,23.3,33.5,12,17.5,24,35,36,52.6.9,1.3,1.2,3,2.2,5.7-3.7.5-6.9,1.2-10,1.2-16.7,0-33.3-.2-50,.2-6.9.2-11.2-2.5-14.8-8-16.3-24.6-33-49-49.3-73.6-4.4-6.6-9.5-10.5-18-9.9-8.3.6-16.7,0-25,0-12.4,0-13.2.8-13.2,12.8-.1,22,0,44,0,65.9-.1,3.7-.4,7.3-.6,11.7ZM4298.2,979.2q0-.1,0,0c10.7,0,21.3.3,32,0,18.5-.7,39-16.2,38.6-42.3-.3-18.3-18.4-37.5-39-37.6-21.3,0-42.6,0-63.9,0-8.2,0-9.1.9-9.1,9.3-.1,20.6-.1,41.3,0,61.9,0,7.9.8,8.6,8.6,8.8,10.8,0,21.8,0,32.8,0Z"></path><path d="M2370.3,877c-4.5,5.3-8.3,9.8-12.1,14.3-7,8.4-13.9,17-21,25.3-5,5.8-6.1,5.8-12.3,1-19.8-15.4-41.9-23.4-67.4-22.8-25.9.6-46.8,11.2-61.7,31.4-24.3,33.1-26.7,69-7,105,15,27.4,39.7,41,71,42.3,18.7.7,36.3-2.9,53-11.8,6.1-3.2,9-7.3,8.7-14.2-.3-7.6,0-15.3-.1-23-.2-7.9-.9-8.7-8.6-8.8-13.7-.2-27.3,0-41,0h-11.7c-1.9-17.8-.7-34.6-.8-52h120.6c.3,3.3.7,6.5.7,9.6.1,34.3-.1,68.6.2,102.9.1,7.2-2.5,11.4-8.4,15.4-13.8,9.3-27.6,18.2-43.2,24.3-23.3,9.2-47.2,13.4-72.1,13.1-30.7-.4-59.1-8.4-84.9-25.3-12.9-8.5-23.9-19.3-32.9-31.6-25.2-34.5-30.7-73.9-24.7-114.8,5.4-36.3,24-65.9,53-88.5,21.1-16.4,45.4-25.3,72-29.4,21.2-3.3,42-.9,62.4,2.7,25.2,4.6,47.8,15.8,68.3,35Z"></path><path d="M2640.6,844.4v38.9q0,14-14.5,14h-121q-15.5,0-15.5,15.3c0,10.7-.1,21.3,0,32,.1,10.5.9,11.4,11.5,11.5,34.7,0,69.3,0,104,0,17.3,0,17.6-3.3,17.4,17v25c-.1,10.9-.4,11.3-11.2,11.3h-106c-3,0-6,0-9,.3-4.1.5-6.7,2.8-6.7,7.3,0,15.3,0,30.6.1,46,0,4.9,2.7,7.2,7.7,7.1,3,0,6,0,9,0h136.2c.6,18.4.7,35.8-.1,53.9-3.6.3-6.5.8-9.4.8h-193c-1.7,0-3.3,0-5,0-4.2-.3-6.8-2.3-6.6-6.9.1-2.3,0-4.7,0-7v-255.8c.2-10.8.5-11.2,11.4-11.2h190c2.9-.2,5.8.2,10.7.5Z"></path><path d="M5243.4,843.6c.5,4.7,1,7.9,1.1,11.1.1,10.3.1,20.6,0,31-.1,11.2-.4,11.5-12,11.5-41.3,0-82.6,0-123.9,0-16.4,0-14.8.3-14.8,14.7s-.1,22.6,0,34c.1,9.6.5,10.1,10.2,10.1,35.6,0,71.3,0,106.9,0s14.7-1.5,14.5,14.9c-.1,9,0,18,0,27q-.1,11.4-11.9,11.5h-88c-8.3,0-16.7,0-25,0-4.6,0-6.8,2.2-6.7,6.7.1,16.6.1,33.3.2,49.9,0,.9.7,1.8,1.6,3.9h138.2c12.1,0,12.3.3,12.3,12.3s.1,22.6-.1,34c-.1,7-1.3,8-8.2,8.4-2,0-4,0-6,0h-186.9c-2,0-4,0-6,0-6.6-.4-7.3-1.1-7.7-7.7-.1-2,0-4,0-6v-252.7c0-17.9,2-14.6,14.9-14.6,61.3,0,122.6,0,183.9,0,4.1,0,8.1,0,13.4,0Z"></path><path d="M1813.6,1124.6c1-4.3,1.1-6.6,2-8.6,14-32.6,28.2-65.2,42.2-97.8,12.4-28.9,24.6-58,36.9-86.9,11.6-27.2,23.5-54.2,34.7-81.6,2.6-6.3,6-8.7,12.7-8.5,13.3.4,26.7.3,40,0,5.8,0,9,2,11.3,7.5,12.1,29.1,24.6,58,37,86.9,16.3,38.1,32.7,76.2,49,114.3,9.7,22.9,19.2,45.9,28.8,68.8.5,1.2.8,2.4,1.4,4.6-3,.5-5.5,1.1-8,1.2-15.3,0-30.6,0-46,0-8.7,0-9.8-1.3-13-9.4-6.6-16.3-13.5-32.5-20.1-48.8-1.3-3.3-3.4-4.7-6.6-5.1-2.3-.3-4.7-.2-7-.2h-97.9c-10.4,0-10.1.2-14.1,10.1-6.6,16.3-13.4,32.5-20.5,48.7-.9,2-3.7,4.4-5.6,4.5-18.5.4-37,.3-57.2.3ZM1962.9,920.1c-.9-.2-1.8-.5-2.6-.7-1.7,2.6-3.7,5-4.9,7.7-6.3,14.9-12.4,30-18.6,45-3.4,8.3-6.9,16.5-10.2,24.8-3.1,8-1.7,10,7,10.4h51.9c1.3,0,2.7,0,4,0,6.6-.6,7.9-2.7,5.7-9.2-.5-1.6-1.3-3-1.9-4.6-6.2-15-12.3-30-18.5-45-3.9-9.5-7.9-18.9-11.9-28.3Z"></path><path d="M4163.3,1123.7c-2.9.5-4.4.9-6,.9-17,0-34,0-51,0-4.9,0-7.6-1.1-9.5-6.4-5.9-16.2-12.9-32-19.2-48.1-2.5-6.4-6.1-9.3-13.4-9.2-33.7.3-67.3.3-101,0-7,0-10.7,2.3-13.2,9-5.8,15.5-12.7,30.7-18.6,46.2-2.4,6.4-6.2,8.7-12.8,8.5-14.3-.3-28.7,0-43,0-2.8,0-5.6-.9-9.2-1.4,2.6-6.9,4.5-12.9,7-18.7,14.2-33.2,28.6-66.4,42.9-99.6,12.6-29.3,25.1-58.5,37.6-87.9,9.2-21.7,18.2-43.5,27.3-65.2,1.4-3.3,3.2-6.5,5.3-10.5,17.2,0,34.5,0,51.8,0,4.9,0,6,3.6,7.5,6.8,6,13.3,11.9,26.7,17.6,40.1,12.4,29,24.7,58,37,87,15.7,37,31.4,73.9,47.1,110.9,5.1,12.1,10.2,24.3,15.8,37.6ZM4012.3,917.7c-12.4,30.3-23.8,58.1-35.8,87.4,5.1.9,8.8,2,12.5,2,16.3.2,32.6,0,48.9,0s4,0,6-.2c4.8-.9,6.1-3,4.5-7.8-1.3-3.8-3.1-7.3-4.6-11-8.5-20.9-17-41.8-25.6-62.6-.9-2.2-2.9-3.9-5.9-7.9Z"></path><path d="M3721.9,1124.1h-59.1c-.3-.3-.6-.6-.8-.8-.2-.2-.6-.5-.6-.8-.3-2.3-.7-4.6-.7-6.9,0-89.2.1-178.4.2-267.7,0-.9.6-1.8,1.2-3.5,2.6-.2,5.5-.7,8.4-.7,37.6,0,75.3-.4,112.9,0,29.4.4,55.4,9.8,76.2,31.4,9.5,9.8,15.8,21.5,19.1,34.5,6.4,24.8,6.2,49.7-4,73.4-11.3,26-32.4,41.4-59,49.7-11.5,3.6-23.2,5.5-35.3,6.1-18.9.8-37.7,2-57.9,3.1-1.4,8.4-.5,17.3-.6,26.1-.2,9.3,0,18.6,0,28,0,8.8,0,17.8,0,28ZM3722.6,899.8c-.3,3.1-.7,5.4-.7,7.6,0,22.6-.1,45.3,0,67.9,0,9.2.8,9.9,10.6,10,12.3,0,24.7.3,37,0,6.9-.2,14-1,20.7-2.8,13.8-3.6,23.1-12.6,28.2-25.9,9.8-25.9-5.2-55.7-38.9-57.4-17-.8-34-.2-51,0-1.7,0-3.3.5-5.9.8Z"></path><path d="M3239,880.9c-13.2,15.2-25.7,29.7-38.7,44.9-4.4-3.1-8.4-5.4-11.9-8.3-21.3-17.8-45.8-25.4-73.3-21.8-21.4,2.8-38.4,13.6-51.5,30.9-13.7,18.1-18.9,38.5-18.3,60.7.8,29.4,12.7,53.6,36.1,71.2,18.2,13.6,39.6,16.4,61.8,13,19.4-2.9,35.7-12,50.2-24.9,8.1-7.2,8.3-7.2,16,.5s17,16.9,25.3,25.4c5.5,5.6,5.6,7.1.5,12.3-20,20.5-43.7,34.4-71.9,40.5-25.9,5.6-51.5,5-77.1-1-17.5-4.1-33.2-12.1-47.5-22.4-18.2-13.2-32.6-30-42.5-50.4-13.2-27-18.4-55.8-14.8-85.4,4.7-38.7,21.7-71.5,52.3-96.5,13-10.6,27.7-18.2,43.6-23.5,17.5-5.9,35.7-8.6,53.9-8.1,24.6.7,49,4.2,71.2,16,13.2,7,24.7,16.5,36.6,26.9Z"></path><path d="M2443.8,695.1c-.3-3.8-.7-7-.7-10.2v-258.8c0-2,0-4,.2-6,.3-3.5,2.2-5.5,5.8-5.5s4-.1,6-.1c33.3,0,66.7-.4,100,.2,19.6.4,39.2,1.3,57.7,9.4,21,9.2,34.6,24,39.9,46.4,5.4,23-.4,43.5-15.2,61.3-4.5,5.5-11.4,9-17.1,13.5-2.1,1.6-3.8,3.7-5.6,5.4,11.2,6.5,21.3,12,31,18.2,14,9,20.9,22.4,23.1,38.8,1.9,13.9.4,27.1-4.4,40.2-3.8,10.3-10.1,18.8-18.5,25.4-12.1,9.6-26,15.3-41.1,19-11.9,2.9-23.7,3.5-35.6,3.6-38.7,0-77.3,0-116,0-2.9-.1-5.8-.5-9.5-.8ZM2528.7,668.4v1c20.6-1,41.2-1.5,61.7-3.2,14.3-1.2,26.2-8,36.5-18.4,19.3-19.6,14.2-56-10-68.5-13.6-7-28.1-10.6-43-11.1-30.2-1-60.5-.8-90.8-.8s-9.6,1.6-9.6,10.2c-.1,27.3-.1,54.5,0,81.8,0,8.1,1,9,9.4,9.1,15.2,0,30.5,0,45.8,0ZM2524.3,540.4h0c15,0,30,.1,45-.2,3.9,0,7.7-1.8,11.6-2.5,28.1-5.2,43.7-25.6,41.4-54-1.1-12.8-7.5-22.4-17.8-29.5-12.2-8.4-26.3-11.5-40.6-11.9-26.6-.7-53.3-.3-80-.2-8.9.1-10.5,1.8-10.5,10.6-.1,26-.1,51.9,0,77.9,0,8.8.9,9.6,9.9,9.7,13.6.2,27.3,0,41,0Z"></path><path d="M3523,843.7c-4.1,7-6.8,12.2-9.9,17.1-16.8,25.9-33.7,51.7-50.4,77.6-14.4,22.3-28.6,44.8-42.7,67.3-3.6,5.7-5.3,11.9-5.2,18.8.3,28.6.1,57.3.1,85.9s-.1,5.3-.1,8c0,4.1-2.1,6.1-6.1,6.1h-47c-5.5,0-6.5-3.5-6.4-8,.1-14,0-28,0-42s-.2-33.3.1-50c.1-6.6-1.4-12.5-5-17.9-14.2-22-28.6-44-42.7-66.1-8.6-13.4-16.8-27-25.3-40.5-9.5-15.2-19.2-30.3-28.7-45.5-1.7-2.7-2.7-5.8-4.5-9.6,3.4-.7,5.6-1.4,7.7-1.4,18,0,36,0,54-.2,5.4,0,8.7,2,11.3,6.5,7,12,14.4,23.9,21.5,35.8,12.3,20.5,24.4,41.1,36.7,61.5,3.9,6.5,6.6,6.5,10.6,0,10.5-16.9,20.7-34,31-51,9.8-16.2,19.6-32.4,29.6-48.4,1.2-1.9,4.1-3.9,6.2-4,20.8,0,41.8,0,65.2,0Z"></path><path d="M4456.5,898.7v-53.8c2.8-.5,5.3-1.2,7.8-1.2,72.3,0,144.6,0,216.8,0,2,0,3.9.4,6.9.7,2,18.2.6,36.2,1,55.2h-74.5c-11.3,0-11.9.6-11.9,11.8v197.7c0,16.7.9,15.6-15.9,15.5-11.7,0-23.3,0-35,0-9.3,0-10.2-.9-10.2-10.4-.1-40.3,0-80.6,0-120.8v-80.9c0-12.9-.1-12.9-12.6-12.9-21.3,0-42.6,0-64,0-2.4,0-4.9-.5-8.4-.8Z"></path><path d="M2373.5,695.8c-7.7,0-14,0-20.3,0-4.8,0-7-3.4-9.4-6.5-14-17.7-27.9-35.5-41.9-53.3-17.8-22.8-35.5-45.6-53.3-68.4-11.1-14.1-22.2-28.1-33.4-42.2-12.6-15.9-25.2-31.7-37.9-47.6-2.2-2.7-4.7-5.2-7.9-8.9-3,10.6-1.3,19.9-1.6,29-.3,9.3-.1,18.6-.1,28v168.7c-9.2,2-17.8,1.3-26.2.7-1.5,0-3.4-2.9-3.9-4.8-.7-2.5-.3-5.3-.3-7.9v-254.8q0-13.4,13.1-13.4c2.3,0,4.7.2,7,0,5.5-.6,9.6,1.6,13,5.8,11.7,14.9,23.5,29.7,35.2,44.6,7,8.9,13.7,18,20.6,26.8,16.4,20.9,33,41.7,49.4,62.5,19.3,24.5,38.5,49.1,57.9,73.6,2.2,2.8,4.8,5.3,8.9,9.9.7-6,1.5-9.6,1.5-13.3.1-37.6.1-75.3.1-112.9v-84.9c0-3.6.3-7.1.5-11.9,8.7,0,16.6-.3,24.5.2,1.8.1,4,2.9,5,5,.9,2,.4,4.6.4,6.9v257.8c-.2,3.3-.6,6.5-.9,11.3Z"></path><path d="M2710,556.4c-.8-27.6,5.9-52.3,19-75.3,18.2-32,45-53.6,80.3-64.6,25.4-8,51.6-8.9,76.9-3.1,51.1,11.6,85.8,43,102.8,93.1,9.7,28.5,10.8,57.6,3.3,86.5-5.8,22.3-16.2,42.7-31.9,60.3-32.6,36.5-73.5,50.2-121.6,47-18.7-1.2-36.4-5.9-52.5-14.3-28.7-15-50.7-37.3-63.8-67.5-8.7-20.3-13.3-41.1-12.5-62.1ZM2742.3,554.6c.5,8.6-.1,17.5,1.8,25.8,8,35,26.1,62.9,58.8,79.7,25.9,13.3,53.2,15.7,81.3,7.9,24.7-6.9,44-21.2,58.7-41.9,12-16.9,18.9-35.9,20.8-56.3,2.3-23.8-.8-47.1-11.9-68.7-10.1-19.6-23.4-36.2-43-47-24.6-13.7-50.1-19.2-78.5-13.1-33.5,7.2-57.6,26-74.2,55.1-10.1,18-14.9,37.5-13.8,58.5Z"></path><path d="M3376.7,695.2h-29.5c-.3-3.8-.7-7-.7-10.2v-258.8c0-1.7,0-3.3.1-5,.1-4.5,2.4-6.7,6.9-6.7s11.3.1,17-.1c4.7-.2,7.3,2.9,9.8,6,7.8,9.5,15.5,19.1,23.1,28.7,7.4,9.4,14.5,19,21.9,28.4,11.9,15.1,24,30.1,35.9,45.3,18.5,23.5,36.7,47.1,55.2,70.6,10.7,13.6,21.5,27,32.4,40.4.9,1.1,2.7,1.4,5.7,2.9.3-4.9.7-8.7.7-12.5v-190.8c0-21.4-1.9-18.7,19.6-18.9,1,0,2,.1,3,0,5.2-.3,7.2,2.6,7.1,7.4v261.8c0,3.6-.3,7.2-.6,12.1-7.6,0-14.5.3-21.3-.2-2.3-.2-4.9-2.1-6.5-4-9.8-11.7-19.5-23.5-29-35.5-6.2-7.8-11.8-16-18-23.8-18.8-23.6-37.9-47.1-56.7-70.8-20.4-25.8-40.5-51.8-61-77.5-4-5-6.3-11.9-14.9-14.6-.1,13.3-.2,25.8-.3,38.4v150c.1,12,.1,24.2.1,37.4Z"></path><path d="M4143.7,695.2h-203.9c-.3-3.9-.7-7.1-.7-10.3v-258.7c0-2,0-4,.2-6,.3-3.4,2-5.6,5.7-5.6s4-.1,6-.1h179.9c2,0,4,.1,6,.1,3.6,0,5.7,1.9,5.8,5.4.2,6.9.1,13.7.1,22h-157.9c-15.5,0-15.9.4-15.9,15.4,0,23.6-.1,47.3,0,70.9.1,11.2,1,12,11.9,12.1h127.9c2.3,0,4.7,0,7,0,6.4.4,7.5,1.3,7.6,7.8.1,6.2-.3,12.4-.5,19.6h-138.2c-15.5,0-15.8.3-15.9,15.4v70.9c0,2.7,0,5.3.2,8,.4,3.8,2.5,6.1,6.5,6.1,2.7,0,5.3,0,8,0h153.9c4,0,6.2,1.9,6.2,6,0,6.7,0,13.3,0,20.9Z"></path><path d="M3080,414.6v13.5c0,51.6-.3,103.2.2,154.8.1,11.2,1.8,22.7,5,33.3,9.7,32.4,35.1,52,68.5,54.9,9.5.8,19.3.6,28.8-.6,34-4.1,56-25.4,64.6-56.5,3.1-11,4.4-22.1,4.3-33.5-.2-49.9-.1-99.9-.1-149.8v-6c.2-9.4.8-10,10.4-10.1,4.7-.1,9.3.1,14,0,4.6-.1,6.6,2.4,6.7,6.8,0,2,.1,4,.1,6,0,49.6.2,99.2-.1,148.8-.1,25.2-3.7,49.5-16.4,72-10,17.7-23.6,31.1-41.9,39.8-21.8,10.3-44.6,14-68.7,12.2-17.5-1.2-34.2-4.9-49.8-12.7-24.8-12.4-40.8-32.4-49.6-58.4-5.8-17.1-8.1-34.8-8.1-52.9.2-49.3.1-98.5.1-147.8s0-5.3.1-8c.1-3.4,1.5-5.8,5.3-5.8,8.2-.1,16.5,0,26.6,0Z"></path><path d="M1838.2,510.6v-82.9c0-2.3,0-4.7,0-7,0-4,2-6.2,6.2-6.2h18c4.1,0,6.1,2.2,6.2,6.2,0,3,0,6,0,9,0,48.6,0,97.2,0,145.8,0,16.8,2.5,33.3,9.1,48.7,8.7,20.4,23.3,35.2,45,42.3,26.1,8.5,51.7,7.8,76.4-4.4,16.8-8.3,28.1-22.1,34.8-39.4,5.1-13.5,7.3-27.6,7.3-42v-152.8c0-13.3,0-13.4,13.2-13.3,18.3.1,18-2.8,18,17.6,0,48.6-.1,97.2,0,145.8,0,22.6-3.8,44.7-13.6,64.8-11.1,22.7-28.7,39.4-52.9,48.8-24.6,9.6-49.9,11-75.5,7.3-17.8-2.6-34.5-9.3-49.2-20.2-21.7-16-33.3-37.9-39.2-63.7-3.1-13.8-3.8-27.6-3.8-41.6-.2-20.9-.2-41.9-.2-62.8Z"></path><path d="M3891.6,454c-5.1,6.3-9.4,12.1-14.3,17.4-4.8,5.2-6.2,5-11.6.6-11.1-9-22-18.3-35.5-23.6-21.9-8.5-44.1-13.1-68.1-8-19.9,4.3-37.1,13.1-51.9,25.9-13.2,11.3-22.7,26.1-28.8,42.6-7.3,19.6-10.3,39.8-7.8,60.7,6.5,55.2,48.8,103.6,111.4,102.7,27.1-.4,51.5-8.9,72.4-26.6,5.3-4.5,11-8.4,17.5-13.4,5.7,6.8,11.2,13.3,17.5,20.7-2.8,6.1-9.9,11-16.3,15.7-11.2,8.2-22.7,16-35.8,21.5-22.1,9.2-45,11.4-68.4,10.4-19.1-.8-37.1-6-54.3-14.6-28.5-14.3-49.1-35.9-62.6-64.6-16.2-34.3-17.3-69.9-8.8-106.2,6.3-27,20.5-49.8,40.4-68.6,15.3-14.4,33.5-24.6,54-30.7,25.6-7.5,51.5-7.2,77.1-3.1,18.6,3,36.3,10.5,51.8,22.1,4.8,3.6,9.6,7.1,14.3,10.9,2.6,2.5,4.9,5.2,7.8,8.2Z"></path><path class="cls-1" d="M1314,771.5c0,16.3.3,32.6-.2,48.9-.2,6.2-2.2,12.2-3.1,18.4-.5,2.9-.3,6-.8,8.9-.9,5.2-2,10.3-3,15.4-.3,1.3-.8,2.6-.8,3.8,0,13.7-4.1,26.6-8,39.5-3.5,11.7-5.7,23.7-9.7,35.2-5,14.6-10.8,28.9-16.8,43.1-4.7,11.2-9.8,22.3-15.5,33-7.5,13.8-15.7,27.3-23.9,40.8-6.3,10.4-12.7,20.7-19.5,30.8-4.4,6.6-9.3,12.8-14.5,18.8-19.5,22.6-38.4,45.8-61.2,65.2-14.3,12.2-28.5,24.8-43.9,35.4-16.7,11.6-33.5,23.2-51.4,33.1-12.9,7.2-25.6,14.9-39.3,20.6-17.3,7.2-33.7,16.4-52.2,20.9-10.6,2.6-20.7,7.7-31.2,10.9-7.8,2.4-16,3.4-24,5.2-9.8,2.3-19.6,4.7-29.5,7.1-.6.2-1.3.4-2,.4-12-.2-23.6,3.9-35.2,4.2-38.6.9-77.2.4-115.8,0-4.2,0-8.3-1.8-12.5-2.5-2.9-.5-5.9-.7-8.8-1.2-5.5-1-10.9-2.1-16.3-3.2-1.3-.3-2.6-.7-3.9-.7-17.7-.4-34.2-5.8-50.6-11.7-5.5-2-11.4-3-17.1-4.5-30-8-57.7-21.8-85-36-16.6-8.7-33.1-17.7-48.5-28.3-12.7-8.7-25.3-17.7-37.4-27.3-28.9-22.8-53.2-50-78.8-76.1-7.5-7.7-13-17.3-19.4-26-4.9-6.6-10-13.1-14.6-19.9-6-8.7-12.1-17.3-17.2-26.5-9.4-17-18.6-34.2-27.1-51.6-4.7-9.6-7.9-20-11.8-30-3.1-7.9-6.5-15.8-9.2-23.8-2.8-8-4.9-16.3-7.3-24.5-2.4-8.2-4.9-16.3-7.1-24.5-1.7-6.3-3.4-12.7-4.4-19.2-2-12.7-3.1-25.6-5.1-38.3-4.6-28.4-3.9-56.9-3.4-85.5.2-14.8,1.9-29.7,3.4-44.5,1.3-12.8,2.1-25.8,5-38.2,5.5-23.6,11.5-47,19-70.2,11.1-34.4,26.9-66.4,43.5-98.1,7.5-14.2,17.3-27.2,26-40.7,9.8-15,21.8-28.2,32.8-42.2,15.5-19.6,33.8-36.4,51.6-53.6,8.7-8.4,19.2-14.8,28.9-22.2,6.6-5,13.2-9.9,19.6-15.2,10.5-8.6,22.4-14.9,33.8-22.2,20.7-13.2,42.8-23.6,65-33.7,13.7-6.3,28.2-10.8,42.4-15.7,11.7-4.1,23.5-7.9,35.5-11.3,7.9-2.2,16.7-1.9,23.9-5.4,10.9-5.3,22.9-1.8,33.9-6.3,5.6-2.3,12.4-1.9,18.7-2.1,23.9-1.1,47.7-2.7,71.6-2.6,21.5.1,43,2.2,64.5,3.4,10.7,5.8,23.3,2.3,34.6,7.2,7.9,3.5,17.3,3.2,26,5,5.8,1.2,11.5,2.8,17.1,4.6,16.1,5.3,32.2,10.7,48.2,16.4,5.6,2,10.8,5,16.2,7.5,9.6,4.4,19.5,8.1,28.8,13.1,13.3,7.1,26.3,14.9,39.2,22.9,14.8,9.2,29.3,18.8,43.9,28.3.8.5,1.5,1.3,2.3,1.9,26.8,20.9,50.7,44.8,74,69.3,9.6,10,19,20.4,26.9,31.8,12.8,18.3,25.8,36.3,37.2,55.7,10.9,18.5,20.5,37.5,29.5,56.8,6.2,13.3,10.4,27.5,15.3,41.4,3.4,9.6,6.6,19.2,9.7,28.9,2.5,7.8,4.8,15.7,6.7,23.6,2.8,11.5,5.1,23,7.6,34.5,0,.3,0,.7.2,1,1.6,15.4,3.9,30.8,4.7,46.2.5,15.6,0,31-.2,46.3h0ZM778.6,454.3c-6.3,0-12.7-.1-19,0-2.3,0-4.6.4-6.9.8-4.1.8-8.3,2.8-12.3,2.5-14.8-1.2-28.8,3.6-43.1,5.3-9.6,1.1-19.1,4.7-28.4,8-13.6,4.9-27.1,10-40.3,15.9-7.8,3.4-14.6,8.8-22.3,12.5-20.6,9.8-37.1,25-53.9,39.8-6.8,6-11.5,14.5-18.1,20.8-11.4,10.9-19.7,24.3-27.3,37.6-9.1,15.8-17.8,32.1-23.4,49.9-6.4,20.3-14.6,40-15.9,61.6-.1,1.6-.7,3.2-1,4.9-.9,5.1-2.1,10.3-2.7,15.4-.7,5.9.5,12.5-1.5,17.8-4.6,12.1-3.5,24.6-1.7,36.4,1.4,9.5,2.9,18.8,3.3,28.4.1,2.3.3,4.7.9,6.9,2.3,8.5,4.5,17.1,7.1,25.5,3.5,11.6,6.3,23.5,11.1,34.5,7.5,16.8,15.7,33.2,25.8,48.8,9.7,15,20.5,29.2,32.5,42.2,13.2,14.3,28.7,26.5,43.2,39.6.7.7,1.5,1.4,2.3,1.9,15.3,9,29.3,20.1,45.8,27.1,2.6,1.1,5.5,4.6,5.8,7.2.6,5.9.2,12-.8,17.9-2,11.6-5,23-6.8,34.6-2.1,14-3.4,28.1-5.1,42.2-.2,1.6-1.1,3.1-1.6,4.7-3.9,10.6,4.1,21.2,15.3,20.5,10.9-.7,17.4-6.8,20.3-17.9,2.8-11.1,6.1-22.1,9.3-33,3.8-12.9,7.7-25.8,11.5-38.7,2-6.9,3.8-13.9,5.8-20.9,2.1-6.9,4.4-13.7,6.5-20.6,2.4-7.8,4.8-15.6,7.3-23.4,3.1-9.7,6.3-19.3,9.3-29,4.7-15.7,9-31.5,13.8-47.2,5-16.3,10.3-32.5,15.5-48.7,3.5-10.9,7.2-21.8,10.8-32.6,3.3-9.9,6.7-19.9,9.9-29.8,3.3-10.2,6.3-20.5,9.8-30.7,3.5-10.6,7.4-21,11.1-31.6,4.4-12.7,8.7-25.5,13.2-38.2,2.5-7.1,5.2-14.1,7.7-21.2,3.7-10.5,7.2-21.1,11-31.5,3-8.3,6.4-16.5,9.4-24.8,4.8-13.3,9.3-26.7,14-40,2.2-6.1,4.9-12.1,7-18.3,3.4-10.3,6.2-20.8,9.9-31,4.7-12.9,10.1-25.6,15-38.4,6.3-16.6,11.7-33.6,18.9-49.8,8-18,17.9-35.2,26.1-53.1,3.7-8.2,9.7-15.6,9.8-25.4,0-10.7-4.3-15.4-15-14.4-11.6,1.1-21.5,6.5-30,13.8-7.8,6.7-14.5,14.6-21.8,21.9-10.1,10.1-18.5,21.5-26.3,33.3-2.5,3.8-6.2,7-9.4,10.3-4,4-8.5,4.4-13.7,2.2-2.9-1.3-6.3-1.9-9.5-2-6.2-.8-12.2-.5-18.2-.5ZM918.9,492.6c-4.8,12.7-9.2,24.7-13.7,36.6-3.6,9.8-7.4,19.7-10.8,29.6-3.2,9.3-7,18.5-8.9,28-1.3,6.3-1.7,14.1.9,19.6,4.6,9.7,10.8,18.9,18,27,12.4,13.9,22.7,29,31.9,45.1,5.3,9.2,8.6,19.2,11.4,29.3,2.8,10.1,7.5,20.2,7.6,30.4.2,21.7,3.1,43.5-2.8,65.4-3.2,12-6.7,24.1-10.9,35.7-6.7,18.4-19.3,33.7-31.5,48.8-11.7,14.5-26.8,25.4-42.8,35-5.6,3.4-11.2,7.1-17.2,9.7-9,3.9-18.7,6.3-27.5,10.4-13.4,6.3-27.6,10.1-41.5,15.1-12.8,4.6-23.8,12-29.5,24.9-5,11.4-8.6,23.3-13.4,34.8-6.5,15.4-11,31.3-15,48.9,10.6,1.1,20.6,2,30.7,3.1,13.4,1.4,26.3-1.7,39.4-3.4,12.4-1.6,25-2.7,37.2-5,10.6-2,21-5.2,31.4-8.5,9.4-3,18.7-6.2,27.6-10.2,23.7-10.9,47.5-21.6,68.1-38.1,10.3-8.2,21.4-15.4,30.8-24.5,10.9-10.5,20.6-22.3,30.5-34,5.5-6.5,11.1-13.3,15-20.8,7.7-14.8,17.1-28.8,22.6-44.8,1.8-5.2,5-10,6.8-15.3,2.2-6.8,2.9-14.2,5.5-20.8,6.4-16.1,8.4-33.3,10.2-50,3.4-30.3,2-60.9-3.6-91.1-.2-1-.5-1.9-.8-2.9-2.4-8.1-4.5-16.4-7.2-24.4-3.4-10.6-6.5-21.3-11-31.4-9.3-20.7-19.6-40.9-33.3-59.3-8.5-11.4-17.1-22.6-26.6-33.1-7.3-8-15.6-15.1-24-22.1-16.2-13.9-33.4-26.5-53.6-37.7Z"></path><path d="M778.6,454.3c6,0,12-.2,18,.1,3.2.2,6.6.8,9.5,2,5.2,2.3,9.7,1.8,13.7-2.2s6.9-6.4,9.4-10.3c7.8-11.9,16.2-23.3,26.3-33.3,7.3-7.3,14-15.2,21.8-21.9,8.5-7.3,18.4-12.7,30-13.8,10.7-1,15.1,3.7,15,14.4,0,9.9-6.1,17.2-9.8,25.4-8.2,17.9-18.2,35.1-26.1,53.1-7.2,16.2-12.6,33.2-18.9,49.8-4.9,12.8-10.3,25.5-15,38.4-3.7,10.2-6.5,20.7-9.9,31-2.1,6.2-4.8,12.1-7,18.3-4.7,13.3-9.2,26.7-14,40-3,8.3-6.4,16.5-9.4,24.8-3.8,10.5-7.3,21-11,31.5-2.5,7.1-5.2,14.1-7.7,21.2-4.4,12.7-8.8,25.5-13.2,38.2-3.7,10.5-7.5,21-11.1,31.6-3.4,10.2-6.4,20.5-9.8,30.7-3.2,10-6.6,19.9-9.9,29.8-3.6,10.9-7.3,21.7-10.8,32.6-5.3,16.2-10.6,32.4-15.5,48.7-4.8,15.7-9.1,31.5-13.8,47.2-2.9,9.7-6.2,19.4-9.3,29-2.5,7.8-4.8,15.6-7.3,23.4-2.2,6.9-4.5,13.7-6.5,20.6-2.1,6.9-3.8,13.9-5.8,20.9-3.8,12.9-7.8,25.8-11.5,38.7-3.2,11-6.5,22-9.3,33-2.8,11.1-9.4,17.2-20.3,17.9-11.2.8-19.2-9.9-15.3-20.5.6-1.6,1.4-3.1,1.6-4.7,1.7-14.1,3-28.2,5.1-42.2,1.8-11.6,4.8-23,6.8-34.6,1-5.9,1.4-12,.8-17.9-.3-2.6-3.2-6.1-5.8-7.2-16.5-7-30.5-18.1-45.8-27.1-.8-.5-1.6-1.2-2.3-1.9-14.5-13.1-30-25.3-43.2-39.6-12-13-22.8-27.1-32.5-42.2-10.1-15.6-18.4-32-25.8-48.8-4.9-11-7.6-22.9-11.1-34.5-2.6-8.4-4.8-17-7.1-25.5-.6-2.2-.8-4.6-.9-6.9-.3-9.6-1.8-18.9-3.3-28.4-1.8-11.7-2.9-24.2,1.7-36.4,2-5.3.8-11.9,1.5-17.8.6-5.2,1.8-10.3,2.7-15.4.3-1.6.9-3.2,1-4.9,1.3-21.6,9.5-41.3,15.9-61.6,5.6-17.8,14.3-34.1,23.4-49.9,7.6-13.3,15.9-26.7,27.3-37.6,6.6-6.3,11.3-14.8,18.1-20.8,16.8-14.8,33.3-30,53.9-39.8,7.7-3.7,14.5-9.1,22.3-12.5,13.2-5.8,26.7-11,40.3-15.9,9.3-3.3,18.7-6.9,28.4-8,14.4-1.7,28.3-6.5,43.1-5.3,4,.3,8.2-1.7,12.3-2.5,2.3-.4,4.6-.8,6.9-.8,6.6.3,12.9.4,19.2.4ZM755,575.4c-2.9,0-4-.3-4.8,0-13.9,6.8-29.3,9.1-43.8,14.8-19.9,7.8-38.4,17.3-54.2,31.4-9.4,8.4-18.3,17.5-26.6,27-6.2,7.2-11.3,15.4-16.2,23.5-5.9,9.6-9.9,20-13.8,30.5-6.5,17.6-8.9,35.8-10.6,54-1.1,11.8.4,23.6,2.6,35.5,2.3,12,4.9,23.7,8.9,35.3,7.2,20.9,17.4,39.7,32.4,56,2.4,2.6,4.1,5.9,6.3,8.7,6.7,8.6,13.6,17,20.4,25.5.2.3.4.6.7.8,3,2.3,5.8,1.6,7-2,.5-1.5.5-3.3.7-4.9,1.6-10,2.9-20.2,4.9-30.1,2-9.6,5.4-19,6.9-28.7,2.3-13.9,4.9-27.7,8.4-41.4,3.8-14.6,6.2-29.5,9.4-44.2,1.5-7,3.1-14.1,5.1-21,3.5-12.3,7.6-24.4,11.1-36.6,2-6.9,3.2-14.1,5.3-21,3.5-11.2,7.5-22.4,11.4-33.5,4.5-12.7,8.9-25.4,13.8-37.9,4.3-11,9.5-21.6,14-32.6,1.1-2.3.5-5.5.7-9.1Z"></path><path d="M918.9,492.6c20.2,11.1,37.3,23.8,53.9,37.5,8.4,7,16.7,14.1,24,22.1,9.5,10.5,18.1,21.7,26.6,33.1,13.7,18.4,24,38.5,33.3,59.3,4.5,10.1,7.6,20.8,11,31.4,2.6,8.1,4.8,16.3,7.2,24.4.3,1,.6,1.9.8,2.9,5.6,30.2,7,60.8,3.6,91.1-1.9,16.7-3.9,33.9-10.2,50-2.6,6.6-3.3,14-5.5,20.8-1.7,5.3-5,10-6.8,15.3-5.5,16-14.9,29.9-22.6,44.8-3.9,7.5-9.5,14.3-15,20.8-9.8,11.6-19.5,23.5-30.5,34-9.4,9.1-20.6,16.3-30.8,24.5-20.6,16.4-44.4,27.2-68.1,38.1-8.9,4.1-18.3,7.3-27.6,10.2-10.3,3.3-20.8,6.4-31.4,8.5-12.3,2.4-24.8,3.4-37.2,5-13.1,1.7-26,4.8-39.4,3.4-10-1.1-20.1-2-30.7-3.1,4-17.6,8.5-33.5,15-48.9,4.8-11.5,8.4-23.4,13.4-34.8,5.7-12.8,16.6-20.3,29.5-24.9,13.9-4.9,28.1-8.8,41.5-15.1,8.8-4.2,18.5-6.5,27.5-10.4,6-2.6,11.5-6.3,17.2-9.7,16-9.5,31-20.5,42.8-35,12.2-15.1,24.7-30.4,31.5-48.8,4.2-11.6,7.7-23.6,10.9-35.7,5.9-21.9,3-43.6,2.8-65.4,0-10.1-4.8-20.3-7.6-30.4-2.8-10.2-6.1-20.1-11.4-29.3-9.2-16.1-19.5-31.2-31.9-45.1-7.2-8-13.4-17.3-18-27-2.6-5.5-2.1-13.3-.9-19.6,2-9.6,5.7-18.8,8.9-28,3.4-9.9,7.2-19.7,10.8-29.6,4.2-11.7,8.7-23.6,13.4-36.4Z"></path><path class="cls-1" d="M755,575.4c-.2,3.6.4,6.7-.6,9.2-4.4,10.9-9.6,21.6-14,32.6-4.9,12.5-9.3,25.2-13.8,37.9-3.9,11.1-7.9,22.2-11.4,33.5-2.2,6.9-3.3,14-5.3,21-3.6,12.2-7.6,24.4-11.1,36.6-2,6.9-3.6,14-5.1,21-3.2,14.7-5.6,29.7-9.4,44.2-3.5,13.7-6.2,27.5-8.4,41.4-1.6,9.7-5,19-6.9,28.7-2,10-3.3,20.1-4.9,30.1-.3,1.6-.2,3.4-.7,4.9-1.2,3.5-4,4.3-7,2-.3-.2-.4-.5-.7-.8-6.8-8.5-13.7-17-20.4-25.5-2.2-2.8-3.9-6.1-6.3-8.7-15-16.3-25.2-35.1-32.4-56-4-11.6-6.6-23.3-8.9-35.3-2.2-11.9-3.7-23.7-2.6-35.5,1.7-18.3,4.1-36.5,10.6-54,3.9-10.6,8-21,13.8-30.5,5-8.1,10-16.3,16.2-23.5,8.2-9.5,17.2-18.6,26.6-27,15.9-14.1,34.3-23.5,54.2-31.4,14.4-5.7,29.8-8,43.8-14.8.7-.4,1.8-.1,4.7-.1Z"></path></g></g></g></svg>