<svg xmlns="http://www.w3.org/2000/svg" id="Layer_1" data-name="Layer 1" viewBox="0 0 298.58 70.89"><path d="M248.23,10c-.43-.26-2.21.08-2.73.1a2.63,2.63,0,0,1-.74-.08c-.63,0-1.92.06-3.85.07a21.09,21.09,0,0,0-4.09.52l2.92,2.17h0l.44.33a1.35,1.35,0,0,1,.55,1.1c0,.48.06,1.11.1,1.56l0,1c0,.07,0,.14-.05.21,0,.41,0,1,0,1.95a4.61,4.61,0,0,0,.74-.89l3.33-4,.83-1,.51-.51,1-1A5.77,5.77,0,0,0,248.23,10h0Z" transform="translate(-1 -1.73)" style="fill:#000000"></path><path d="M93.39,18.36a1.76,1.76,0,0,1,.33,1.2,1.72,1.72,0,0,1-.33,1.2,1.45,1.45,0,0,1-1.11.36H86.75V42.05H98.07V34.52a1.45,1.45,0,0,1,.39-1.14,2.77,2.77,0,0,1,2.66,0,1.49,1.49,0,0,1,.38,1.14v9.09a1.76,1.76,0,0,1-.33,1.2,1.45,1.45,0,0,1-1.11.35H79.61a1.45,1.45,0,0,1-1.11-.35,1.76,1.76,0,0,1-.33-1.2,1.72,1.72,0,0,1,.33-1.2,1.45,1.45,0,0,1,1.11-.36h3.7V21.12h-3.7a1.45,1.45,0,0,1-1.11-.36,1.72,1.72,0,0,1-.33-1.2,1.76,1.76,0,0,1,.33-1.2A1.45,1.45,0,0,1,79.61,18H92.28A1.45,1.45,0,0,1,93.39,18.36Z" transform="translate(-1 -1.73)" style="fill:#000000"></path><path d="M122.91,25.44a7.26,7.26,0,0,1,2.15,5.7v9.1c0,1.21.5,1.81,1.51,1.81h.8a1.45,1.45,0,0,1,1.11.36,1.72,1.72,0,0,1,.33,1.2,1.76,1.76,0,0,1-.33,1.2,1.45,1.45,0,0,1-1.11.35H125.9a4.31,4.31,0,0,1-2.55-.74A3.44,3.44,0,0,1,122,42.24a14.49,14.49,0,0,1-4.06,2.53,12.06,12.06,0,0,1-4.64.9,10,10,0,0,1-4.08-.79A6.15,6.15,0,0,1,105.4,39,6,6,0,0,1,108,33.64a11.81,11.81,0,0,1,6.68-1.72,21.09,21.09,0,0,1,7,1.16V31.14a4,4,0,0,0-1.25-3.26,6.21,6.21,0,0,0-4-1,14.28,14.28,0,0,0-3.57.48,17.7,17.7,0,0,0-3.52,1.32,1.53,1.53,0,0,1-.71.21c-.5,0-.92-.37-1.26-1.1a2.24,2.24,0,0,1-.25-.91,1.34,1.34,0,0,1,.85-1.24A18,18,0,0,1,112,24.06a18.5,18.5,0,0,1,4.42-.54Q120.76,23.52,122.91,25.44ZM110.54,36.05A3.08,3.08,0,0,0,109,38.92a3.12,3.12,0,0,0,1.15,2.59,5,5,0,0,0,3.24.93,11.24,11.24,0,0,0,8.22-3.77v-2.5a20.81,20.81,0,0,0-3.35-.76,23.9,23.9,0,0,0-3.59-.27A8,8,0,0,0,110.54,36.05Z" transform="translate(-1 -1.73)" style="fill:#000000"></path><path d="M156.81,24.38a1.72,1.72,0,0,1,.33,1.2,1.76,1.76,0,0,1-.33,1.2,1.45,1.45,0,0,1-1.11.35h-.55l-4.51,17.05a2.15,2.15,0,0,1-.67,1.16,2.22,2.22,0,0,1-1.32.33,2.81,2.81,0,0,1-1.54-.36,2,2,0,0,1-.84-1.13l-3.5-9.93-3.55,9.93a2,2,0,0,1-.85,1.13,3,3,0,0,1-1.57.36,2.16,2.16,0,0,1-1.31-.33,2.07,2.07,0,0,1-.64-1.16l-4.41-17H130a1.45,1.45,0,0,1-1.11-.35,1.75,1.75,0,0,1-.34-1.2,1.72,1.72,0,0,1,.34-1.2A1.45,1.45,0,0,1,130,24h6.72a1.45,1.45,0,0,1,1.11.36,1.72,1.72,0,0,1,.33,1.2,1.76,1.76,0,0,1-.33,1.2,1.45,1.45,0,0,1-1.11.35h-2.81l3.29,13.32,3.82-10.62a1.51,1.51,0,0,1,.6-.77,2,2,0,0,1,1.14-.3c1,0,1.55.3,1.77.91l3.79,10.78,3.39-13.32h-2.31a1.45,1.45,0,0,1-1.11-.35,1.76,1.76,0,0,1-.33-1.2,1.72,1.72,0,0,1,.33-1.2,1.45,1.45,0,0,1,1.11-.36h6.27A1.45,1.45,0,0,1,156.81,24.38Z" transform="translate(-1 -1.73)" style="fill:#000000"></path><path d="M184.54,24.38a1.72,1.72,0,0,1,.33,1.2,1.76,1.76,0,0,1-.33,1.2,1.45,1.45,0,0,1-1.11.35H182l-9.35,19.18a25.29,25.29,0,0,1-2.91,4.78,9,9,0,0,1-3.19,2.55,11.31,11.31,0,0,1-4.31.9,1.58,1.58,0,0,1-1.24-.4,2,2,0,0,1-.43-1.49c0-1,.4-1.51,1.21-1.56a9.48,9.48,0,0,0,3.49-.73,6.49,6.49,0,0,0,2.38-2.12,35.38,35.38,0,0,0,2.66-4.68L162,27.13h-1.44a1.45,1.45,0,0,1-1.11-.35,1.76,1.76,0,0,1-.33-1.2,1.72,1.72,0,0,1,.33-1.2,1.45,1.45,0,0,1,1.11-.36h8.1a1.48,1.48,0,0,1,1.11.36,1.72,1.72,0,0,1,.33,1.2,1.76,1.76,0,0,1-.33,1.2,1.48,1.48,0,0,1-1.11.35h-2.93L172.13,40l6.15-12.86h-2a1.45,1.45,0,0,1-1.11-.35,1.76,1.76,0,0,1-.33-1.2,1.72,1.72,0,0,1,.33-1.2,1.45,1.45,0,0,1,1.11-.36h7.18A1.45,1.45,0,0,1,184.54,24.38Z" transform="translate(-1 -1.73)" style="fill:#000000"></path><path d="M201.48,24.86a9.16,9.16,0,0,1,3.6,3.7A13.12,13.12,0,0,1,206.52,34a1.49,1.49,0,0,1-.33,1.1,1.58,1.58,0,0,1-1.11.32H188.52a7.23,7.23,0,0,0,2,5.16,7.41,7.41,0,0,0,5.28,1.75,16.32,16.32,0,0,0,4.16-.54,14.7,14.7,0,0,0,3.62-1.43,1.48,1.48,0,0,1,.71-.2c.53,0,1,.4,1.3,1.21a2.17,2.17,0,0,1,.2.87,1.56,1.56,0,0,1-1,1.42,18.63,18.63,0,0,1-4.17,1.44,21.93,21.93,0,0,1-4.82.55,12.31,12.31,0,0,1-5.91-1.33,8.88,8.88,0,0,1-3.73-3.82,12.87,12.87,0,0,1-1.28-5.93,11.76,11.76,0,0,1,1.4-5.79,10,10,0,0,1,3.86-3.9,11.43,11.43,0,0,1,5.66-1.38A11.26,11.26,0,0,1,201.48,24.86Zm-10.32,3.41a6.65,6.65,0,0,0-2.41,4h14a6.39,6.39,0,0,0-2.21-4,8.5,8.5,0,0,0-9.36.05Z" transform="translate(-1 -1.73)" style="fill:#000000"></path><path d="M229.4,24.43a1.62,1.62,0,0,1,.91,1.42,2.69,2.69,0,0,1-.21,1c-.31.87-.76,1.31-1.32,1.31a1.21,1.21,0,0,1-.64-.18,4.83,4.83,0,0,0-2.4-.62,7.25,7.25,0,0,0-4.15,1.43,11.28,11.28,0,0,0-3.42,3.81,10.15,10.15,0,0,0-1.34,5v4.44h7.72a1.44,1.44,0,0,1,1.1.36,1.67,1.67,0,0,1,.34,1.2,1.7,1.7,0,0,1-.34,1.2,1.44,1.44,0,0,1-1.1.35H209.81a1.45,1.45,0,0,1-1.11-.35,1.76,1.76,0,0,1-.33-1.2,1.72,1.72,0,0,1,.33-1.2,1.45,1.45,0,0,1,1.11-.36h3.59V27.13h-2.9a1.45,1.45,0,0,1-1.11-.35,1.76,1.76,0,0,1-.33-1.2,1.72,1.72,0,0,1,.33-1.2A1.45,1.45,0,0,1,210.5,24h4.66a1.45,1.45,0,0,1,1.11.36,1.67,1.67,0,0,1,.34,1.2V30.2a14.39,14.39,0,0,1,2.65-3.52,12.12,12.12,0,0,1,3.32-2.34,8.12,8.12,0,0,1,3.48-.82A6.48,6.48,0,0,1,229.4,24.43Z" transform="translate(-1 -1.73)" style="fill:#000000"></path><path d="M243.82,24.38a1.72,1.72,0,0,1,.33,1.2V42.05h7.34a1.45,1.45,0,0,1,1.11.36,1.72,1.72,0,0,1,.33,1.2,1.76,1.76,0,0,1-.33,1.2,1.45,1.45,0,0,1-1.11.35H233.56a1.45,1.45,0,0,1-1.11-.35,1.7,1.7,0,0,1-.34-1.2,1.67,1.67,0,0,1,.34-1.2,1.45,1.45,0,0,1,1.11-.36h7.16V27.13h-5.79a1.45,1.45,0,0,1-1.11-.35,1.76,1.76,0,0,1-.33-1.2,1.72,1.72,0,0,1,.33-1.2,1.45,1.45,0,0,1,1.11-.36h7.78A1.45,1.45,0,0,1,243.82,24.38Z" transform="translate(-1 -1.73)" style="fill:#000000"></path><path d="M273.94,23.86a1.5,1.5,0,0,1,.39,1.15v4.34a1.5,1.5,0,0,1-.39,1.15,2,2,0,0,1-1.33.34,1.15,1.15,0,0,1-1.1-.59,5.55,5.55,0,0,0-2.86-2.65,12.72,12.72,0,0,0-4.76-.76,6.46,6.46,0,0,0-3.47.79,2.46,2.46,0,0,0-1.24,2.2,1.55,1.55,0,0,0,.47,1.19,3.44,3.44,0,0,0,1.38.76,9.48,9.48,0,0,0,1.75.39c.67.09,1.52.19,2.58.3,1.47.16,2.67.32,3.58.46a14.88,14.88,0,0,1,2.57.66,6.32,6.32,0,0,1,2.85,1.92,5.1,5.1,0,0,1,1,3.32,6.32,6.32,0,0,1-1,3.6,6.68,6.68,0,0,1-3,2.39,12.14,12.14,0,0,1-4.79.85,12.57,12.57,0,0,1-4.35-.69,8.92,8.92,0,0,1-3.27-2.08v1.28a1.44,1.44,0,0,1-.39,1.14,2.68,2.68,0,0,1-2.65,0,1.44,1.44,0,0,1-.39-1.14V38.69a1.48,1.48,0,0,1,.39-1.15,2.05,2.05,0,0,1,1.32-.34,1.15,1.15,0,0,1,.76.22,1.73,1.73,0,0,1,.48.72,5.71,5.71,0,0,0,2.75,3.2,11.06,11.06,0,0,0,5.12,1,7.22,7.22,0,0,0,4.07-1,3,3,0,0,0,1.42-2.56,1.78,1.78,0,0,0-.5-1.29,3.79,3.79,0,0,0-1.44-.82A12.9,12.9,0,0,0,268,36.3c-.7-.12-1.58-.23-2.65-.33-1.43-.16-2.63-.32-3.59-.48a13.48,13.48,0,0,1-2.65-.74,6,6,0,0,1-2.6-1.84,4.81,4.81,0,0,1-.93-3.08,5.71,5.71,0,0,1,1-3.42,6.45,6.45,0,0,1,2.89-2.16,11.15,11.15,0,0,1,4.17-.73,11.92,11.92,0,0,1,4.06.66A9.48,9.48,0,0,1,270.89,26V25a1.46,1.46,0,0,1,.39-1.15,2.77,2.77,0,0,1,2.66,0Z" transform="translate(-1 -1.73)" style="fill:#000000"></path><path d="M286.31,17.85A1.44,1.44,0,0,1,286.7,19v6.86h9.41a1.44,1.44,0,0,1,1.1.36,1.67,1.67,0,0,1,.34,1.2,1.7,1.7,0,0,1-.34,1.2,1.44,1.44,0,0,1-1.1.35H286.7v8.33a6.36,6.36,0,0,0,.91,3.82,3.67,3.67,0,0,0,3.14,1.22,9.5,9.5,0,0,0,3.23-.62,15.69,15.69,0,0,0,3.27-1.65,1.2,1.2,0,0,1,.71-.23c.52,0,1,.35,1.33,1.06a2.45,2.45,0,0,1,.29,1,1.35,1.35,0,0,1-.75,1.18,18,18,0,0,1-4,1.85,13.23,13.23,0,0,1-4.1.72c-2.59,0-4.49-.68-5.68-2s-1.8-3.36-1.8-6V29h-4.64a1.45,1.45,0,0,1-1.11-.35,1.7,1.7,0,0,1-.34-1.2,1.67,1.67,0,0,1,.34-1.2,1.45,1.45,0,0,1,1.11-.36h4.64V19a1.44,1.44,0,0,1,.39-1.14,2.68,2.68,0,0,1,2.65,0Z" transform="translate(-1 -1.73)" style="fill:#000000"></path><circle cx="30.32" cy="30.32" r="30.32" style="fill:#000000"></circle><path d="M43.44,33.64a2.82,2.82,0,0,0-2.72,0,1.53,1.53,0,0,0-.39,1.17v7.7H28.75V28.65l-3.21,3.09-.3.21V42.51H21.45a1.53,1.53,0,0,0-1.14.36,2.39,2.39,0,0,0,0,2.46,1.53,1.53,0,0,0,1.14.36H42.36a1.53,1.53,0,0,0,1.14-.36,1.81,1.81,0,0,0,.34-1.23V34.81A1.53,1.53,0,0,0,43.44,33.64Z" transform="translate(-1 -1.73)" style="fill:#fff"></path><path d="M34.35,17.6c-.52-.33-2.73.1-3.37.12a3.6,3.6,0,0,1-.92-.1c-.78.05-2.37.08-4.76.09a26.35,26.35,0,0,0-5.05.63L23.86,21h0l.54.4a1.67,1.67,0,0,1,.68,1.36c0,.61.07,1.38.12,1.94l0,1.24a2,2,0,0,1-.05.26c0,.51,0,1.22,0,2.42A5.91,5.91,0,0,0,26,27.54l4.12-5,1-1.2.65-.62L33,19.52a7.13,7.13,0,0,0,1.37-1.91h0Z" transform="translate(-1 -1.73)" style="fill:#ffffff"></path><path d="M85.23,62.44a.34.34,0,0,1,.14.31v2.18a.32.32,0,0,1-.19.31,1.63,1.63,0,0,1-.64.09,1.81,1.81,0,0,1-.46,0,.45.45,0,0,1-.23-.12.43.43,0,0,1-.06-.24,1.08,1.08,0,0,0-.33-.84,1.47,1.47,0,0,0-1-.3,1.57,1.57,0,0,0-1.34.63,3.17,3.17,0,0,0-.45,1.83,3,3,0,0,0,.48,1.83,1.62,1.62,0,0,0,1.38.64,4.46,4.46,0,0,0,1.33-.19V67.47H82.62a.49.49,0,0,1-.23,0,.29.29,0,0,1-.12-.19,1.44,1.44,0,0,1,0-.41,1.36,1.36,0,0,1,0-.4.29.29,0,0,1,.12-.2.49.49,0,0,1,.23,0h3a.51.51,0,0,1,.24,0,.38.38,0,0,1,.12.2,1.36,1.36,0,0,1,0,.4,1.44,1.44,0,0,1,0,.41.39.39,0,0,1-.12.19.51.51,0,0,1-.24,0h-.19v1.64a.6.6,0,0,1-.06.27.4.4,0,0,1-.17.17,5.41,5.41,0,0,1-1.3.46,7,7,0,0,1-1.46.15,3.56,3.56,0,0,1-1.83-.47,3.21,3.21,0,0,1-1.23-1.37A4.64,4.64,0,0,1,79,66.25a4.81,4.81,0,0,1,.42-2.07,3.28,3.28,0,0,1,1.18-1.36,3.17,3.17,0,0,1,1.7-.47,1.87,1.87,0,0,1,1.65.75v-.35a.32.32,0,0,1,.19-.31,1.42,1.42,0,0,1,.59-.09A1.14,1.14,0,0,1,85.23,62.44Z" transform="translate(-1 -1.73)" style="fill:#000000"></path><path d="M92.75,64.25a.43.43,0,0,1,.09.31v4.16h.49a.46.46,0,0,1,.23,0,.31.31,0,0,1,.13.19,1.93,1.93,0,0,1,0,.41,1.9,1.9,0,0,1,0,.4.34.34,0,0,1-.13.2.46.46,0,0,1-.23,0H91.91a.33.33,0,0,1-.4-.4V68.7a2.44,2.44,0,0,1-2.1,1.46,2,2,0,0,1-1-.25,1.73,1.73,0,0,1-.67-.72,2.38,2.38,0,0,1-.24-1.1V65.46H87a.39.39,0,0,1-.23-.06.27.27,0,0,1-.12-.19,1.37,1.37,0,0,1-.05-.41,1.35,1.35,0,0,1,.05-.4.25.25,0,0,1,.12-.19.39.39,0,0,1,.23,0h1.68a.44.44,0,0,1,.31.09.43.43,0,0,1,.09.31v3.16a1.39,1.39,0,0,0,.17.75.65.65,0,0,0,.57.25,1,1,0,0,0,.7-.31,2.12,2.12,0,0,0,.53-.82,2.87,2.87,0,0,0,.2-1.1v-1h-.68a.37.37,0,0,1-.23-.06.31.31,0,0,1-.13-.19,1.93,1.93,0,0,1,0-.41,1.9,1.9,0,0,1,0-.4.28.28,0,0,1,.13-.19.37.37,0,0,1,.23,0h1.87A.44.44,0,0,1,92.75,64.25Z" transform="translate(-1 -1.73)" style="fill:#000000"></path><path d="M98.77,64.25a.43.43,0,0,1,.09.31v4.16h1.79a.46.46,0,0,1,.23,0,.29.29,0,0,1,.12.2,1.35,1.35,0,0,1,0,.4,1.37,1.37,0,0,1,0,.41.27.27,0,0,1-.12.19.46.46,0,0,1-.23,0H95.54a.46.46,0,0,1-.23,0,.31.31,0,0,1-.13-.19,1.93,1.93,0,0,1,0-.41,1.9,1.9,0,0,1,0-.4.34.34,0,0,1,.13-.2.46.46,0,0,1,.23,0h1.74V65.46H95.92a.46.46,0,0,1-.23,0,.34.34,0,0,1-.13-.19,2.12,2.12,0,0,1,0-.82.34.34,0,0,1,.13-.19.37.37,0,0,1,.23,0h2.54A.43.43,0,0,1,98.77,64.25Zm-.09-2.79a.32.32,0,0,1,.18.31v1a.32.32,0,0,1-.17.31,1.4,1.4,0,0,1-.61.09,1.52,1.52,0,0,1-.62-.09.32.32,0,0,1-.18-.31v-1a.32.32,0,0,1,.16-.31,1.4,1.4,0,0,1,.61-.09A1.54,1.54,0,0,1,98.68,61.46Z" transform="translate(-1 -1.73)" style="fill:#000000"></path><path d="M108.39,61.79a.41.41,0,0,1,.1.3v6.63H109a.46.46,0,0,1,.23,0,.31.31,0,0,1,.13.19,1.93,1.93,0,0,1,0,.41,1.9,1.9,0,0,1,0,.4.34.34,0,0,1-.13.2.46.46,0,0,1-.23,0h-1.49a.46.46,0,0,1-.31-.09.43.43,0,0,1-.09-.31v-.53a2.38,2.38,0,0,1-.82.79,2.17,2.17,0,0,1-1.1.28,2.5,2.5,0,0,1-1.45-.41,2.57,2.57,0,0,1-1-1.1,3.63,3.63,0,0,1-.33-1.56,3.57,3.57,0,0,1,.33-1.56,2.6,2.6,0,0,1,1-1.11,2.57,2.57,0,0,1,1.45-.4,2.17,2.17,0,0,1,.92.19,2.24,2.24,0,0,1,.75.56V63H106a.41.41,0,0,1-.24-.05.27.27,0,0,1-.12-.19,1.36,1.36,0,0,1,0-.4,1.44,1.44,0,0,1,0-.41.3.3,0,0,1,.12-.19.4.4,0,0,1,.24-.06h2.12A.38.38,0,0,1,108.39,61.79Zm-3.59,3.87a1.18,1.18,0,0,0-.45.57,2.39,2.39,0,0,0,0,1.72,1.18,1.18,0,0,0,1.13.77,1.38,1.38,0,0,0,1.27-.75,2.13,2.13,0,0,0,0-1.76,1.38,1.38,0,0,0-1.27-.75A1.12,1.12,0,0,0,104.8,65.66Z" transform="translate(-1 -1.73)" style="fill:#000000"></path><path d="M114.36,64.25a.43.43,0,0,1,.09.31v4.16h1.79a.46.46,0,0,1,.23,0,.29.29,0,0,1,.12.2,1.35,1.35,0,0,1,0,.4,1.37,1.37,0,0,1,0,.41.27.27,0,0,1-.12.19.46.46,0,0,1-.23,0h-5.11a.46.46,0,0,1-.23,0,.31.31,0,0,1-.13-.19,1.93,1.93,0,0,1,0-.41,1.9,1.9,0,0,1,0-.4.34.34,0,0,1,.13-.2.46.46,0,0,1,.23,0h1.74V65.46h-1.36a.46.46,0,0,1-.23,0,.34.34,0,0,1-.13-.19,2.12,2.12,0,0,1,0-.82.34.34,0,0,1,.13-.19.37.37,0,0,1,.23,0h2.54A.43.43,0,0,1,114.36,64.25Zm-.09-2.79a.32.32,0,0,1,.18.31v1a.32.32,0,0,1-.17.31,1.4,1.4,0,0,1-.61.09,1.52,1.52,0,0,1-.62-.09.32.32,0,0,1-.18-.31v-1a.32.32,0,0,1,.16-.31,1.4,1.4,0,0,1,.61-.09A1.54,1.54,0,0,1,114.27,61.46Z" transform="translate(-1 -1.73)" style="fill:#000000"></path><path d="M123.28,64.27A1.67,1.67,0,0,1,124,65a2.38,2.38,0,0,1,.24,1.1v2.63h.49a.46.46,0,0,1,.23,0,.34.34,0,0,1,.13.2,1.9,1.9,0,0,1,0,.4,1.93,1.93,0,0,1,0,.41.31.31,0,0,1-.13.19.46.46,0,0,1-.23,0H122.3a.46.46,0,0,1-.23,0,.27.27,0,0,1-.12-.19,1.37,1.37,0,0,1,0-.41,1.35,1.35,0,0,1,0-.4.29.29,0,0,1,.12-.2.46.46,0,0,1,.23,0h.3V66.46a1.3,1.3,0,0,0-.17-.75.62.62,0,0,0-.57-.25,1,1,0,0,0-.7.31,2.16,2.16,0,0,0-.53.82,3.07,3.07,0,0,0-.2,1.1v1h.3a.46.46,0,0,1,.23,0,.34.34,0,0,1,.13.2,1.4,1.4,0,0,1,0,.4,1.44,1.44,0,0,1,0,.41A.31.31,0,0,1,121,70a.46.46,0,0,1-.23,0h-2.37a.51.51,0,0,1-.24,0,.3.3,0,0,1-.12-.19,1.44,1.44,0,0,1,0-.41,1.4,1.4,0,0,1,0-.4.33.33,0,0,1,.12-.2.51.51,0,0,1,.24,0h.48V65.46h-.61a.54.54,0,0,1-.24,0,.39.39,0,0,1-.12-.19,2.12,2.12,0,0,1,0-.82.39.39,0,0,1,.12-.19.43.43,0,0,1,.24,0h1.55a.46.46,0,0,1,.31.09.43.43,0,0,1,.09.31v.92A2.41,2.41,0,0,1,122.27,64,1.92,1.92,0,0,1,123.28,64.27Z" transform="translate(-1 -1.73)" style="fill:#000000"></path><path d="M129.71,64.27a2.23,2.23,0,0,1,.83.73v-.44a.33.33,0,0,1,.4-.4h1.48a.43.43,0,0,1,.24,0,.39.39,0,0,1,.12.19,2.12,2.12,0,0,1,0,.82.39.39,0,0,1-.12.19.54.54,0,0,1-.24,0h-.55V70a2.46,2.46,0,0,1-.75,1.92,3.17,3.17,0,0,1-2.23.68,7.44,7.44,0,0,1-1.19-.1,9.75,9.75,0,0,1-1.24-.29.41.41,0,0,1-.3-.44,1.52,1.52,0,0,1,.08-.44,1.14,1.14,0,0,1,.21-.43.37.37,0,0,1,.28-.14.4.4,0,0,1,.15,0,7,7,0,0,0,2,.37,1.57,1.57,0,0,0,1.11-.32,1.26,1.26,0,0,0,.34-1v-.65a2.25,2.25,0,0,1-.75.54,2.17,2.17,0,0,1-.92.19,2.76,2.76,0,0,1-1.44-.38,2.66,2.66,0,0,1-1-1.06,3.48,3.48,0,0,1-.33-1.54,3.44,3.44,0,0,1,.33-1.53,2.57,2.57,0,0,1,2.4-1.44A2.34,2.34,0,0,1,129.71,64.27Zm-1.78,1.59a2,2,0,0,0,0,2.27,1.16,1.16,0,0,0,.94.4,1.64,1.64,0,0,0,.74-.17,1.27,1.27,0,0,0,.52-.53,1.86,1.86,0,0,0,0-1.68,1.3,1.3,0,0,0-.52-.52,1.64,1.64,0,0,0-.74-.17A1.16,1.16,0,0,0,127.93,65.86Z" transform="translate(-1 -1.73)" style="fill:#000000"></path><path d="M148.16,62.54a.34.34,0,0,1,.13.19,2.12,2.12,0,0,1,0,.82.34.34,0,0,1-.13.19.46.46,0,0,1-.23,0h-.36v4.93h.36a.46.46,0,0,1,.23,0,.34.34,0,0,1,.13.2,1.4,1.4,0,0,1,0,.4,1.44,1.44,0,0,1,0,.41.31.31,0,0,1-.13.19.46.46,0,0,1-.23,0h-2.37a.51.51,0,0,1-.24,0,.3.3,0,0,1-.12-.19,1.44,1.44,0,0,1,0-.41,1.4,1.4,0,0,1,0-.4.33.33,0,0,1,.12-.2.51.51,0,0,1,.24,0H146v-1.9h-2.46v1.9h.42a.54.54,0,0,1,.24,0,.38.38,0,0,1,.12.2,1.4,1.4,0,0,1,0,.4,1.44,1.44,0,0,1,0,.41.35.35,0,0,1-.12.19.54.54,0,0,1-.24,0h-2.37a.54.54,0,0,1-.24,0,.35.35,0,0,1-.12-.19,1.44,1.44,0,0,1,0-.41,1.4,1.4,0,0,1,0-.4.38.38,0,0,1,.12-.2.54.54,0,0,1,.24,0h.36V63.79h-.36a.54.54,0,0,1-.24,0,.39.39,0,0,1-.12-.19,2.12,2.12,0,0,1,0-.82.39.39,0,0,1,.12-.19.43.43,0,0,1,.24,0h2.37a.43.43,0,0,1,.24,0,.39.39,0,0,1,.12.19,2.12,2.12,0,0,1,0,.82.39.39,0,0,1-.12.19.54.54,0,0,1-.24,0h-.42v1.67H146V63.79h-.42a.51.51,0,0,1-.24,0,.33.33,0,0,1-.12-.19,2.12,2.12,0,0,1,0-.82.33.33,0,0,1,.12-.19.41.41,0,0,1,.24,0h2.37A.37.37,0,0,1,148.16,62.54Z" transform="translate(-1 -1.73)" style="fill:#000000"></path><path d="M154.28,64.43a2.62,2.62,0,0,1,1,1.16,3.92,3.92,0,0,1,.35,1.69.41.41,0,0,1-.09.3.44.44,0,0,1-.31.09h-4.08a1.27,1.27,0,0,0,.52.78,1.77,1.77,0,0,0,1,.27,7.5,7.5,0,0,0,2.13-.35.39.39,0,0,1,.15,0,.29.29,0,0,1,.24.12,1.35,1.35,0,0,1,.19.43,1.68,1.68,0,0,1,.06.4.4.4,0,0,1-.07.26.55.55,0,0,1-.24.15,9.38,9.38,0,0,1-1.29.33,7.4,7.4,0,0,1-1.3.12,3.34,3.34,0,0,1-1.66-.39,2.73,2.73,0,0,1-1.07-1.09,3.39,3.39,0,0,1-.36-1.59,3.34,3.34,0,0,1,.38-1.59,2.69,2.69,0,0,1,1.1-1.09,3.46,3.46,0,0,1,1.67-.39A3.15,3.15,0,0,1,154.28,64.43Zm-3.08,2H154a1.2,1.2,0,0,0-.46-.73,1.48,1.48,0,0,0-.9-.25A1.3,1.3,0,0,0,151.2,66.44Z" transform="translate(-1 -1.73)" style="fill:#000000"></path><path d="M162.29,64.62a2.32,2.32,0,0,1,.62,1.73v1.83a.68.68,0,0,0,.11.4.37.37,0,0,0,.31.14h.2a.46.46,0,0,1,.23,0,.29.29,0,0,1,.12.2,1.35,1.35,0,0,1,.05.4,1.37,1.37,0,0,1-.05.41.27.27,0,0,1-.12.19.46.46,0,0,1-.23,0h-.71a1.42,1.42,0,0,1-.7-.16,1.09,1.09,0,0,1-.46-.51,4,4,0,0,1-1.06.6,3.25,3.25,0,0,1-1.15.21,3,3,0,0,1-1.24-.24,1.86,1.86,0,0,1-.79-.7,2,2,0,0,1-.28-1.07,1.66,1.66,0,0,1,.63-1.38,2.83,2.83,0,0,1,1.76-.49,9.66,9.66,0,0,1,1.79.19v-.18a.74.74,0,0,0-.26-.63,1.66,1.66,0,0,0-.94-.2,4.46,4.46,0,0,0-.84.09,7.64,7.64,0,0,0-.91.24.45.45,0,0,1-.18,0,.38.38,0,0,1-.28-.12,1,1,0,0,1-.23-.4,1.67,1.67,0,0,1-.1-.46.43.43,0,0,1,.3-.43,7,7,0,0,1,1.2-.3,7.25,7.25,0,0,1,1.19-.1A2.85,2.85,0,0,1,162.29,64.62ZM159,67.75a.58.58,0,0,0,0,.92,1.18,1.18,0,0,0,.65.15,2.36,2.36,0,0,0,.87-.17,3.27,3.27,0,0,0,.8-.48v-.41a8.44,8.44,0,0,0-1.63-.17A1.16,1.16,0,0,0,159,67.75Z" transform="translate(-1 -1.73)" style="fill:#000000"></path><path d="M168.86,61.79a.41.41,0,0,1,.09.3v6.63h1.79a.46.46,0,0,1,.23,0,.34.34,0,0,1,.13.2,1.9,1.9,0,0,1,0,.4,1.93,1.93,0,0,1,0,.41A.31.31,0,0,1,171,70a.46.46,0,0,1-.23,0h-5.11a.46.46,0,0,1-.23,0,.27.27,0,0,1-.12-.19,1.37,1.37,0,0,1-.05-.41,1.35,1.35,0,0,1,.05-.4.29.29,0,0,1,.12-.2.46.46,0,0,1,.23,0h1.74V63h-1.48a.43.43,0,0,1-.24-.05.31.31,0,0,1-.12-.19,1.36,1.36,0,0,1,0-.4,1.44,1.44,0,0,1,0-.41.35.35,0,0,1,.12-.19.43.43,0,0,1,.24-.06h2.66A.39.39,0,0,1,168.86,61.79Z" transform="translate(-1 -1.73)" style="fill:#000000"></path><path d="M175.57,62.39a.49.49,0,0,1,.23.12.43.43,0,0,1,.06.24v1.79h2.35a.36.36,0,0,1,.32.14,1.32,1.32,0,0,1,.08.54,1.29,1.29,0,0,1-.08.54.36.36,0,0,1-.32.14h-2.35v1.77c0,.7.27,1,.82,1a2.12,2.12,0,0,0,.68-.13c.26-.09.56-.21.91-.37a.91.91,0,0,1,.22,0,.36.36,0,0,1,.25.11,1,1,0,0,1,.22.36,1.47,1.47,0,0,1,.11.47.35.35,0,0,1-.07.23.62.62,0,0,1-.19.16,5.24,5.24,0,0,1-2.27.66,2.18,2.18,0,0,1-1.69-.62,2.53,2.53,0,0,1-.58-1.79V65.9h-1.22a.34.34,0,0,1-.31-.14,1.11,1.11,0,0,1-.09-.54,1.14,1.14,0,0,1,.09-.54.34.34,0,0,1,.31-.14h1.22V62.75a.32.32,0,0,1,.2-.31,1.63,1.63,0,0,1,.64-.09A1.86,1.86,0,0,1,175.57,62.39Z" transform="translate(-1 -1.73)" style="fill:#000000"></path><path d="M182.64,61.79a.41.41,0,0,1,.09.3v3.09A2.18,2.18,0,0,1,184.57,64a2,2,0,0,1,1,.25,1.73,1.73,0,0,1,.67.72,2.38,2.38,0,0,1,.24,1.1v2.63H187a.51.51,0,0,1,.24,0,.33.33,0,0,1,.12.2,1.4,1.4,0,0,1,0,.4,1.44,1.44,0,0,1,0,.41.3.3,0,0,1-.12.19.51.51,0,0,1-.24,0H184.6a.46.46,0,0,1-.23,0,.31.31,0,0,1-.13-.19,1.44,1.44,0,0,1,0-.41,1.4,1.4,0,0,1,0-.4.34.34,0,0,1,.13-.2.46.46,0,0,1,.23,0h.3V66.46a1.39,1.39,0,0,0-.17-.75.65.65,0,0,0-.57-.25,1,1,0,0,0-.7.31,2,2,0,0,0-.53.82,2.87,2.87,0,0,0-.2,1.1v1h.3a.46.46,0,0,1,.23,0,.29.29,0,0,1,.12.2,1.35,1.35,0,0,1,.05.4,1.37,1.37,0,0,1-.05.41.27.27,0,0,1-.12.19.46.46,0,0,1-.23,0h-2.38a.46.46,0,0,1-.23,0,.31.31,0,0,1-.13-.19,1.93,1.93,0,0,1,0-.41,1.9,1.9,0,0,1,0-.4.34.34,0,0,1,.13-.2.46.46,0,0,1,.23,0h.49V63h-.61a.41.41,0,0,1-.24-.05.27.27,0,0,1-.12-.19,1.36,1.36,0,0,1,0-.4,1.44,1.44,0,0,1,0-.41.3.3,0,0,1,.12-.19.4.4,0,0,1,.24-.06h1.8A.41.41,0,0,1,182.64,61.79Z" transform="translate(-1 -1.73)" style="fill:#000000"></path><path d="M192.31,64.25a.43.43,0,0,1,.09.31v4.16h1.79a.46.46,0,0,1,.23,0,.29.29,0,0,1,.12.2,1.4,1.4,0,0,1,0,.4,1.44,1.44,0,0,1,0,.41.27.27,0,0,1-.12.19.46.46,0,0,1-.23,0h-5.11a.46.46,0,0,1-.23,0,.31.31,0,0,1-.13-.19,1.93,1.93,0,0,1,0-.41,1.9,1.9,0,0,1,0-.4.34.34,0,0,1,.13-.2.46.46,0,0,1,.23,0h1.74V65.46h-1.36a.46.46,0,0,1-.23,0,.34.34,0,0,1-.13-.19,2.12,2.12,0,0,1,0-.82.34.34,0,0,1,.13-.19.37.37,0,0,1,.23,0H192A.43.43,0,0,1,192.31,64.25Zm-.09-2.79a.32.32,0,0,1,.18.31v1a.32.32,0,0,1-.17.31,1.4,1.4,0,0,1-.61.09,1.52,1.52,0,0,1-.62-.09.32.32,0,0,1-.18-.31v-1a.32.32,0,0,1,.16-.31,1.4,1.4,0,0,1,.61-.09A1.54,1.54,0,0,1,192.22,61.46Z" transform="translate(-1 -1.73)" style="fill:#000000"></path><path d="M201.05,64.43a2.62,2.62,0,0,1,1,1.16,3.92,3.92,0,0,1,.35,1.69.41.41,0,0,1-.09.3.46.46,0,0,1-.31.09h-4.08a1.27,1.27,0,0,0,.52.78,1.77,1.77,0,0,0,1,.27,7.5,7.5,0,0,0,2.13-.35.39.39,0,0,1,.15,0,.3.3,0,0,1,.24.12,1.35,1.35,0,0,1,.19.43,1.68,1.68,0,0,1,.06.4.4.4,0,0,1-.07.26.55.55,0,0,1-.24.15,9.16,9.16,0,0,1-1.3.33,7.2,7.2,0,0,1-1.29.12,3.34,3.34,0,0,1-1.66-.39,2.73,2.73,0,0,1-1.07-1.09,3.39,3.39,0,0,1-.36-1.59,3.34,3.34,0,0,1,.38-1.59,2.69,2.69,0,0,1,1.1-1.09A3.43,3.43,0,0,1,199.4,64,3.18,3.18,0,0,1,201.05,64.43Zm-3.08,2h2.79a1.2,1.2,0,0,0-.46-.73,1.48,1.48,0,0,0-.9-.25A1.3,1.3,0,0,0,198,66.44Z" transform="translate(-1 -1.73)" style="fill:#000000"></path><path d="M210.11,64.37a.64.64,0,0,1,.28.54,1.52,1.52,0,0,1-.11.49,1.32,1.32,0,0,1-.26.43.43.43,0,0,1-.3.15.49.49,0,0,1-.19,0,1.52,1.52,0,0,0-.74-.2,1.49,1.49,0,0,0-.91.31,2.11,2.11,0,0,0-.68.86,2.7,2.7,0,0,0-.26,1.22v.6h1.82a.54.54,0,0,1,.24,0,.38.38,0,0,1,.12.2,1.4,1.4,0,0,1,0,.4,1.44,1.44,0,0,1,0,.41A.35.35,0,0,1,209,70a.54.54,0,0,1-.24,0h-4.34a.54.54,0,0,1-.24,0,.35.35,0,0,1-.12-.19,1.44,1.44,0,0,1,0-.41,1.4,1.4,0,0,1,0-.4.38.38,0,0,1,.12-.2.54.54,0,0,1,.24,0h.93V65.46h-.74a.54.54,0,0,1-.24,0,.39.39,0,0,1-.12-.19,2.12,2.12,0,0,1,0-.82.39.39,0,0,1,.12-.19.43.43,0,0,1,.24,0h1.74a.46.46,0,0,1,.31.09.43.43,0,0,1,.09.31v1.37a4.55,4.55,0,0,1,1.09-1.42A2,2,0,0,1,209.1,64,1.63,1.63,0,0,1,210.11,64.37Z" transform="translate(-1 -1.73)" style="fill:#000000"></path><path d="M223.71,62.54a.34.34,0,0,1,.13.19,2.12,2.12,0,0,1,0,.82.34.34,0,0,1-.13.19.46.46,0,0,1-.23,0H222.1v4.87h2.22v-2a.32.32,0,0,1,.2-.31,1.63,1.63,0,0,1,.64-.09,1.86,1.86,0,0,1,.46,0,.38.38,0,0,1,.23.12.4.4,0,0,1,.06.24v2.93a.44.44,0,0,1-.09.31.42.42,0,0,1-.32.1h-5.92a.46.46,0,0,1-.23,0,.31.31,0,0,1-.13-.19,1.93,1.93,0,0,1,0-.41,1.9,1.9,0,0,1,0-.4.34.34,0,0,1,.13-.2.46.46,0,0,1,.23,0h.93V63.79h-.93a.46.46,0,0,1-.23,0,.34.34,0,0,1-.13-.19,2.12,2.12,0,0,1,0-.82.34.34,0,0,1,.13-.19.37.37,0,0,1,.23,0h3.9A.37.37,0,0,1,223.71,62.54Z" transform="translate(-1 -1.73)" style="fill:#000000"></path><path d="M232.44,64.62a2.28,2.28,0,0,1,.63,1.73v1.83a.68.68,0,0,0,.1.4.4.4,0,0,0,.31.14h.2a.54.54,0,0,1,.24,0,.38.38,0,0,1,.12.2,1.4,1.4,0,0,1,0,.4,1.44,1.44,0,0,1,0,.41.35.35,0,0,1-.12.19.54.54,0,0,1-.24,0H233a1.47,1.47,0,0,1-.7-.16,1.09,1.09,0,0,1-.46-.51,3.86,3.86,0,0,1-1.06.6,3.2,3.2,0,0,1-1.14.21,2.92,2.92,0,0,1-1.24-.24,1.83,1.83,0,0,1-.8-.7,2.05,2.05,0,0,1-.28-1.07,1.66,1.66,0,0,1,.63-1.38,2.85,2.85,0,0,1,1.76-.49,9.85,9.85,0,0,1,1.8.19v-.18a.75.75,0,0,0-.27-.63,1.66,1.66,0,0,0-.94-.2,4.28,4.28,0,0,0-.83.09,7.17,7.17,0,0,0-.91.24.54.54,0,0,1-.19,0,.39.39,0,0,1-.28-.12,1.11,1.11,0,0,1-.23-.4,1.59,1.59,0,0,1-.09-.46.43.43,0,0,1,.29-.43,7.52,7.52,0,0,1,1.2-.3,7.25,7.25,0,0,1,1.19-.1A2.82,2.82,0,0,1,232.44,64.62Zm-3.28,3.13a.53.53,0,0,0-.23.46.54.54,0,0,0,.23.46,1.18,1.18,0,0,0,.65.15,2.35,2.35,0,0,0,.86-.17,3.33,3.33,0,0,0,.81-.48v-.41a8.54,8.54,0,0,0-1.64-.17A1.18,1.18,0,0,0,229.16,67.75Z" transform="translate(-1 -1.73)" style="fill:#000000"></path><path d="M242.15,64.21a.33.33,0,0,1,.12.19,2.12,2.12,0,0,1,0,.82.33.33,0,0,1-.12.19.54.54,0,0,1-.24,0h-.26l-.92,4.29a.48.48,0,0,1-.22.32,1.24,1.24,0,0,1-.55.09,1.27,1.27,0,0,1-.55-.09.6.6,0,0,1-.26-.32l-.89-2.25-.9,2.25a.65.65,0,0,1-.26.32,1.33,1.33,0,0,1-.56.09,1.19,1.19,0,0,1-.54-.09.44.44,0,0,1-.21-.32l-.91-4.29h-.21a.48.48,0,0,1-.24,0,.33.33,0,0,1-.12-.19,1.71,1.71,0,0,1,0-.82.33.33,0,0,1,.12-.19.39.39,0,0,1,.24,0h2.18a.37.37,0,0,1,.23,0,.34.34,0,0,1,.13.19,2.12,2.12,0,0,1,0,.82.34.34,0,0,1-.13.19.46.46,0,0,1-.23,0h-.54l.47,2.46.88-2.15a.58.58,0,0,1,.21-.27.74.74,0,0,1,.4-.09.89.89,0,0,1,.41.07.5.5,0,0,1,.21.24l.86,2.2.5-2.46h-.46a.46.46,0,0,1-.23,0,.34.34,0,0,1-.13-.19,2.12,2.12,0,0,1,0-.82.34.34,0,0,1,.13-.19.37.37,0,0,1,.23,0h2.12A.43.43,0,0,1,242.15,64.21Z" transform="translate(-1 -1.73)" style="fill:#000000"></path><path d="M257,62.58a.47.47,0,0,1,.09.32v1.92a.31.31,0,0,1-.18.3,1.28,1.28,0,0,1-.59.1,1.08,1.08,0,0,1-.54-.09.34.34,0,0,1-.15-.31v-1h-2.47v1.94h1.92a.36.36,0,0,1,.32.14,1.14,1.14,0,0,1,.09.54,1.11,1.11,0,0,1-.09.54.36.36,0,0,1-.32.14h-1.92v1.57h1.37a.54.54,0,0,1,.24,0,.38.38,0,0,1,.12.2,1.4,1.4,0,0,1,0,.4,1.44,1.44,0,0,1,0,.41.35.35,0,0,1-.12.19.54.54,0,0,1-.24,0h-3.77a.46.46,0,0,1-.23,0,.31.31,0,0,1-.13-.19,1.93,1.93,0,0,1,0-.41,1.9,1.9,0,0,1,0-.4.34.34,0,0,1,.13-.2.46.46,0,0,1,.23,0h.81V63.79h-.81a.46.46,0,0,1-.23,0,.34.34,0,0,1-.13-.19,2.12,2.12,0,0,1,0-.82.34.34,0,0,1,.13-.19.37.37,0,0,1,.23,0h5.92A.47.47,0,0,1,257,62.58Z" transform="translate(-1 -1.73)" style="fill:#000000"></path><path d="M262.46,64.25a.39.39,0,0,1,.1.31v4.16h1.78a.54.54,0,0,1,.24,0,.38.38,0,0,1,.12.2,1.4,1.4,0,0,1,0,.4,1.44,1.44,0,0,1,0,.41.35.35,0,0,1-.12.19.54.54,0,0,1-.24,0h-5.1a.51.51,0,0,1-.24,0,.35.35,0,0,1-.12-.19,1.44,1.44,0,0,1,0-.41,1.4,1.4,0,0,1,0-.4.38.38,0,0,1,.12-.2.51.51,0,0,1,.24,0H261V65.46h-1.35a.54.54,0,0,1-.24,0,.39.39,0,0,1-.12-.19,2.12,2.12,0,0,1,0-.82.39.39,0,0,1,.12-.19.43.43,0,0,1,.24,0h2.54A.41.41,0,0,1,262.46,64.25Zm-.08-2.79a.32.32,0,0,1,.18.31v1a.33.33,0,0,1-.17.31,1.43,1.43,0,0,1-.61.09,1.54,1.54,0,0,1-.63-.09.32.32,0,0,1-.18-.31v-1a.32.32,0,0,1,.16-.31,1.43,1.43,0,0,1,.61-.09A1.63,1.63,0,0,1,262.38,61.46Z" transform="translate(-1 -1.73)" style="fill:#000000"></path><path d="M272.47,64.37a.64.64,0,0,1,.28.54,1.56,1.56,0,0,1-.37.92.43.43,0,0,1-.3.15.49.49,0,0,1-.19,0,1.52,1.52,0,0,0-.74-.2,1.49,1.49,0,0,0-.91.31,2.21,2.21,0,0,0-.69.86,2.83,2.83,0,0,0-.25,1.22v.6h1.82a.46.46,0,0,1,.23,0,.34.34,0,0,1,.13.2,1.9,1.9,0,0,1,0,.4,1.93,1.93,0,0,1,0,.41.31.31,0,0,1-.13.19.46.46,0,0,1-.23,0h-4.34a.54.54,0,0,1-.24,0,.35.35,0,0,1-.12-.19,1.44,1.44,0,0,1,0-.41,1.4,1.4,0,0,1,0-.4.38.38,0,0,1,.12-.2.54.54,0,0,1,.24,0h.93V65.46H267a.54.54,0,0,1-.24,0,.39.39,0,0,1-.12-.19,2.12,2.12,0,0,1,0-.82.39.39,0,0,1,.12-.19.43.43,0,0,1,.24,0h1.74a.41.41,0,0,1,.3.09.39.39,0,0,1,.1.31v1.37a4.41,4.41,0,0,1,1.09-1.42,2,2,0,0,1,1.26-.49A1.63,1.63,0,0,1,272.47,64.37Z" transform="translate(-1 -1.73)" style="fill:#000000"></path><path d="M280.42,64.49a2.57,2.57,0,0,1,.33,1.45v3.68a.33.33,0,0,1-.4.4h-.78a.33.33,0,0,1-.4-.4V66.3a1.18,1.18,0,0,0-.08-.49.26.26,0,0,0-.25-.16c-.2,0-.36.15-.47.46a3.91,3.91,0,0,0-.18,1.35v2.16a.43.43,0,0,1-.09.31.44.44,0,0,1-.31.09H277a.41.41,0,0,1-.3-.09.39.39,0,0,1-.1-.31V66.3a1,1,0,0,0-.08-.49.25.25,0,0,0-.25-.16c-.2,0-.35.15-.47.46a4,4,0,0,0-.17,1.35v2.16a.39.39,0,0,1-.1.31.41.41,0,0,1-.3.09h-.79a.33.33,0,0,1-.4-.4V65.46h-.36a.54.54,0,0,1-.24,0,.39.39,0,0,1-.12-.19,2.12,2.12,0,0,1,0-.82.39.39,0,0,1,.12-.19.43.43,0,0,1,.24,0h1.1a.33.33,0,0,1,.4.4v.91a3.06,3.06,0,0,1,.7-1.09,1.32,1.32,0,0,1,.89-.36c.62,0,1,.43,1.21,1.28a2.82,2.82,0,0,1,.68-1,1.32,1.32,0,0,1,.84-.32A1.09,1.09,0,0,1,280.42,64.49Z" transform="translate(-1 -1.73)" style="fill:#000000"></path><path d="M287.49,64.11a.32.32,0,0,1,.17.31v1.34a.32.32,0,0,1-.14.3.82.82,0,0,1-.44.1.64.64,0,0,1-.47-.14,2.28,2.28,0,0,0-.85-.57,3.48,3.48,0,0,0-1.12-.16,1.1,1.1,0,0,0-.59.13.41.41,0,0,0-.21.36c0,.17.16.3.47.38a7.09,7.09,0,0,0,.84.12c.4,0,.72.09,1,.14a3.5,3.5,0,0,1,.74.2,2,2,0,0,1,.8.59,1.59,1.59,0,0,1,.28,1,1.75,1.75,0,0,1-1.16,1.72,3.45,3.45,0,0,1-1.36.24,3.14,3.14,0,0,1-1.64-.45v.05a.31.31,0,0,1-.19.31,1.39,1.39,0,0,1-.59.09,1.29,1.29,0,0,1-.57-.09.31.31,0,0,1-.17-.31V68.35a.34.34,0,0,1,.15-.31.88.88,0,0,1,.46-.09.63.63,0,0,1,.52.17,1.86,1.86,0,0,0,.81.59,3.2,3.2,0,0,0,1.09.18c.68,0,1-.17,1-.52a.29.29,0,0,0-.15-.26,1.23,1.23,0,0,0-.42-.16l-.74-.11a11,11,0,0,1-1.1-.18,2.83,2.83,0,0,1-.83-.3,1.62,1.62,0,0,1-.88-1.53,1.57,1.57,0,0,1,.3-1,1.8,1.8,0,0,1,.82-.63A3,3,0,0,1,284.5,64a3.12,3.12,0,0,1,1.7.46v-.06a.32.32,0,0,1,.16-.31,1.19,1.19,0,0,1,.55-.09A1.34,1.34,0,0,1,287.49,64.11Z" transform="translate(-1 -1.73)" style="fill:#000000"></path></svg>