<svg xmlns="http://www.w3.org/2000/svg" viewBox="0 0 218 125.8"><defs><style>      .cls-1, .cls-2 {        fill: #010101;      }      .cls-2 {        isolation: isolate;        opacity: .8;      }      .cls-3 {        opacity: 0;      }    </style></defs><g><g id="Layer_1"><g><path class="cls-1" d="M105.4,10.2l25.2,25.2-8.6,8.6,5.2,5,13.6-13.6L105.4,0l-13.6,13.6,5,5.2s8.6-8.6,8.6-8.6Z"></path><path class="cls-2" d="M122,13.6l5.2,5.2,8.4-8.6,25.2,25.2-25.2,25-25.2-25,8.6-8.6-5-5-8.6,8.4L75.2,0l-35.4,35.4,35.4,35.2,13.6-13.6-5-5.2-8.6,8.6-25.2-25,25.2-25.2,25.2,25.2-8.6,8.6,5,5,8.6-8.6,30.2,30.2,35.4-35.2L135.6,0l-13.6,13.6h0Z"></path><path class="cls-1" d="M105.4,60.4l-25-25,8.4-8.6-5-5-13.6,13.6,35.2,35.2,13.6-13.6-5-5.2-8.6,8.6h0Z"></path></g><g class="cls-3"><path class="cls-1" d="M171,35.4L135.6,0l-15,15.2,5,5,10-10,25.2,25.2-25.2,25.2-10-10.2-5-5-10.2-10,10.2-10-5.2-5.2-10,10-10-10-5.2-5L75.2,0l-35.4,35.4,35.4,35.2,15-15-5-5.2-10,10.2-25.2-25.2,25.2-25.2,10,10,5,5.2,10.2,10-10.2,10,5.2,5,10-10,10,10,5.2,5.2,15,15s35.4-35.2,35.4-35.2Z"></path><path class="cls-1" d="M105.4,10.2l10,10,5.2,5.2,10,10-10,10,5,5,15.2-15-15.2-15.2-5-5L105.4,0l-15.2,15.2,5.2,5,10-10ZM115.4,50.4l-10,10.2-10-10.2-5.2-5-10-10,10-10-5-5.2-15,15.2,15,15,5,5.2,15.2,15,15.2-15-5.2-5.2Z"></path></g><path class="cls-1" d="M0,95.1h14.6v3.8H4.1v5.7h9.5v3.7H4.1v6.2h10.4v3.8H0"></path><path class="cls-1" d="M23.1,109.3l-6-8.7h4.7l3.7,5.8h0l3.7-5.8h4.7l-6,8.7,6.2,8.9h-4.7l-3.8-6h0l-3.8,6h-4.7"></path><path class="cls-1" d="M49.8,109.5c0-3.5-1.7-5.6-4.5-5.6s-4.2,1.8-4.2,4.2v2.8c0,2.4,1.8,4.3,4.1,4.3,2.8,0,4.6-2.2,4.6-5.7h0ZM37.1,100.7h3.9v1.4h0c1.1-1.2,2.9-1.9,4.8-1.9,4.6,0,7.9,3.8,7.9,9.3s-3.3,9.3-7.9,9.3-3.7-.8-4.7-1.9h0v8.9h-4"></path><path class="cls-1" d="M68.4,107.7c-.1-2.4-1.7-4.1-4.1-4.1s-4,1.8-4.2,4.1h8.4ZM56,109.5c0-5.5,3.4-9.3,8.2-9.3s8.1,3.7,8.1,9.1v1.4h-12.3c.1,2.8,1.7,4.7,4.3,4.7s3.3-.8,4.6-2.9l2.9,2.1c-1.6,2.8-4.2,4.2-7.5,4.2-4.9,0-8.2-3.7-8.2-9.2h0Z"></path><path class="cls-1" d="M75.1,100.7h3.7v1.5h0c.7-1.1,2-1.8,3.7-1.8s1.5.1,2.1.3l-.7,3.9c-.7-.2-1.3-.3-1.9-.3-2,0-3.1,1.4-3.1,4.2v9.8h-4"></path><path class="cls-1" d="M94.1,104.2v8.7c0,1.1.4,1.5,1.8,1.5h1.8v3.8h-2.1c-4,0-5.4-1.4-5.4-5.1v-8.9h-2.9v-3.6h2.9v-4.3h4v4.3h4.3v3.6"></path><path class="cls-1" d="M102.3,100.7h4v17.6h-4v-17.6ZM102.2,93.7h4.2v4h-4.2v-4Z"></path><path class="cls-1" d="M109.9,112.5l3.6-.9c.6,2.7,1.8,3.8,4.4,3.8s3.1-.7,3.1-1.8-1.5-2.1-4.2-2.9c-3.4-.9-6-2.1-6-5.3s2.7-5.2,6.5-5.2,6.5,2.1,7.2,5.2l-3.7,1c-.6-1.9-1.8-2.8-3.6-2.8s-2.7.7-2.7,1.8,1.2,1.5,3.5,2.1c3.6,1,6.8,2.3,6.8,6s-2.7,5.3-6.9,5.3-7.4-2.2-8.1-6.2h0Z"></path><path class="cls-1" d="M139.7,107.7c-.1-2.4-1.7-4.1-4.1-4.1s-4,1.8-4.2,4.1h8.4ZM127.3,109.5c0-5.5,3.4-9.3,8.2-9.3s8.1,3.7,8.1,9.1v1.4h-12.3c.1,2.8,1.7,4.7,4.3,4.7s3.3-.8,4.6-2.9l2.9,2.1c-1.6,2.8-4.2,4.2-7.5,4.2-4.9,0-8.2-3.7-8.2-9.2h0Z"></path><path class="cls-1" d="M147.4,118.3h4.8v-4.7h-4.8v4.7Z"></path><path class="cls-1" d="M155.2,109.5c0-5.6,3.4-9.3,8.4-9.3s7.2,2.6,7.8,6.5l-3.8.7c-.4-2.2-1.8-3.5-4-3.5s-4.4,2.1-4.4,5.6,1.7,5.6,4.4,5.6,3.6-1.2,4-3.5l3.8.7c-.6,3.9-3.7,6.5-7.8,6.5-5,0-8.4-3.8-8.4-9.3h0Z"></path><path class="cls-1" d="M186.8,109.5c0-3.5-1.7-5.6-4.6-5.6s-4.6,2.1-4.6,5.6,1.7,5.6,4.6,5.6,4.6-2.1,4.6-5.6ZM173.7,109.5c0-5.6,3.4-9.3,8.5-9.3s8.5,3.7,8.5,9.3-3.4,9.3-8.5,9.3c-5.1,0-8.5-3.8-8.5-9.3Z"></path><path class="cls-1" d="M193.9,100.7h3.7v1.5h0c1-1.2,2.7-2,4.5-2s3.6.8,4.6,2.2h0c1.2-1.4,2.7-2.2,4.7-2.2,3.8,0,6.4,2.7,6.4,6.2v11.8h-3.9v-11.1c0-2.1-1.2-3.3-3.1-3.3s-3.1,1.4-3.1,3.4v11h-3.7v-11.1c0-2.1-1.2-3.3-3.1-3.3s-3.1,1.4-3.1,3.4v11h-3.9v-17.5"></path></g></g></svg>