<svg xmlns="http://www.w3.org/2000/svg" xmlns:xlink="http://www.w3.org/1999/xlink" id="Layer_1" x="0px" y="0px" viewBox="0 0 149.3 61.7" style="enable-background:new 0 0 149.3 61.7;" xml:space="preserve"><style type="text/css">	.st0{fill:#FFFFFF;}</style><g>	<g>		<path d="M32.7,53.5h-3.2V28.6h8.5c2.1,0,3.9,0.7,5.5,2.1s2.3,3.2,2.3,5.3s-0.8,3.9-2.3,5.3c-1.5,1.4-3.4,2.1-5.5,2.1h-5.3V53.5z    M32.7,40.4H38c1.3,0,2.4-0.5,3.2-1.4c0.8-0.9,1.2-1.9,1.2-3s-0.4-2.1-1.2-3s-1.9-1.4-3.2-1.4h-5.4V40.4z"></path>		<path d="M53.2,54.1c-1.8,0-3.3-0.5-4.5-1.6s-1.8-2.4-1.8-4.1c0-1.8,0.7-3.3,2.2-4.4c1.4-1,3.2-1.6,5.3-1.6c1.9,0,3.4,0.3,4.6,1V43   c0-1.3-0.4-2.3-1.3-3c-0.9-0.8-1.9-1.1-3.2-1.1c-0.9,0-1.8,0.2-2.5,0.7s-1.3,1-1.5,1.8L47.5,40c0.4-1,1.2-2,2.3-2.8   c1.2-0.9,2.7-1.3,4.6-1.3c2.2,0,4,0.6,5.4,1.9s2.2,3.1,2.2,5.4v10.3H59v-2.4h-0.1C57.5,53.1,55.7,54.1,53.2,54.1z M53.7,51.2   c1.3,0,2.5-0.5,3.6-1.5c1.1-1,1.6-2.2,1.6-3.5c-0.9-0.7-2.3-1.1-4.1-1.1c-1.5,0-2.7,0.3-3.5,1c-0.8,0.7-1.2,1.5-1.2,2.4   c0,0.8,0.4,1.5,1.1,2C52,50.9,52.8,51.2,53.7,51.2z"></path>		<path d="M68.7,36.5v2.8h0.1c0.4-1,1.1-1.8,2.1-2.3s2.1-0.8,3.3-0.8c0.3,0,0.7,0,1.2,0.1v3.1c-0.4,0-0.9-0.1-1.3-0.1   c-1.5,0-2.8,0.5-3.8,1.3c-1,0.9-1.5,2.1-1.5,3.7v9.3h-3.2v-17H68.7z M86.2,53.8c-1.8,0-3.2-0.5-4.1-1.4c-0.9-1-1.4-2.3-1.4-4v-8.9   h-3v-2.9h3v-5.2h3.2v5.2h4.2v2.9h-4.2v8.7c0,1.9,0.8,2.8,2.3,2.8c0.6,0,1.1-0.1,1.5-0.3l1.1,2.8C88.1,53.6,87.2,53.8,86.2,53.8z"></path>		<path d="M94.4,36.5v2.4h0.1c0.5-0.8,1.2-1.5,2.2-2.1s2.1-0.8,3.2-0.8c2.1,0,3.7,0.7,4.8,2s1.7,3,1.7,5.2v10.4h-3.2v-10   c0-3.2-1.4-4.7-4.2-4.7c-1.3,0-2.4,0.5-3.2,1.6c-0.8,1.1-1.3,2.3-1.3,3.7v9.4h-3.2V36.5H94.4z"></path>		<path d="M117.9,54.1c-2.6,0-4.7-0.9-6.3-2.6c-1.6-1.7-2.4-3.9-2.4-6.5c0-2.5,0.8-4.6,2.3-6.4c1.6-1.8,3.6-2.7,6-2.7   c2.5,0,4.6,0.8,6.1,2.5s2.3,3.8,2.3,6.6l0,0.6h-13.5c0.1,1.7,0.7,3.1,1.7,4.1s2.3,1.5,3.7,1.5c2.3,0,3.8-1,4.7-2.9l2.9,1.2   c-0.6,1.3-1.5,2.4-2.8,3.3C121.3,53.6,119.8,54.1,117.9,54.1z M122.5,42.9c-0.1-1-0.5-1.9-1.3-2.8c-0.8-0.9-2.1-1.3-3.7-1.3   c-1.2,0-2.2,0.4-3.1,1.1s-1.5,1.7-1.8,3C112.6,42.9,122.5,42.9,122.5,42.9z"></path>		<path d="M132,53.5h-3.2v-17h3.1v2.8h0.1c0.3-0.9,1-1.7,2-2.3c1-0.6,2-0.9,2.9-0.9s1.8,0.1,2.4,0.4l-1.2,3c-0.4-0.2-1-0.2-1.7-0.2   c-1.2,0-2.2,0.5-3.1,1.4c-0.9,0.9-1.3,2.1-1.3,3.6V53.5z"></path>	</g>	<g>		<path d="M36.7,22.9c-4.2,0-7.8-3.4-7.8-7.6s3.5-7.6,7.8-7.6c2.3,0,4,0.9,5.2,2.1l-1.5,1.5c-0.9-0.8-2.1-1.5-3.8-1.5   c-3.1,0-5.5,2.5-5.5,5.5s2.4,5.6,5.5,5.6c2,0,3.1-0.8,3.9-1.5c0.6-0.6,1-1.5,1.1-2.6h-5v-2.1h7c0.1,0.4,0.1,0.9,0.1,1.4   c0,1.6-0.4,3.5-1.8,4.9C40.7,22.2,39,22.9,36.7,22.9z"></path>		<path d="M55,18c0,2.8-2.2,4.9-4.9,4.9c-2.7,0-4.9-2.1-4.9-4.9c0-2.9,2.2-4.9,4.9-4.9S55,15.1,55,18z M52.9,18c0-1.8-1.3-3-2.8-3   c-1.5,0-2.8,1.2-2.8,3c0,1.8,1.3,3,2.8,3S52.9,19.7,52.9,18z"></path>		<path d="M66.2,18c0,2.8-2.2,4.9-4.9,4.9s-4.9-2.1-4.9-4.9c0-2.9,2.2-4.9,4.9-4.9C64,13.1,66.2,15.1,66.2,18z M64.1,18   c0-1.8-1.3-3-2.8-3c-1.5,0-2.8,1.2-2.8,3c0,1.8,1.3,3,2.8,3S64.1,19.7,64.1,18z"></path>		<path d="M76.9,13.4v8.8c0,3.6-2.1,5.1-4.7,5.1c-2.4,0-3.8-1.6-4.4-2.9l1.9-0.8c0.3,0.8,1.2,1.8,2.5,1.8c1.6,0,2.6-1,2.6-2.9v-0.7   h-0.1c-0.5,0.6-1.4,1.1-2.6,1.1c-2.5,0-4.7-2.1-4.7-4.9c0-2.8,2.3-4.9,4.7-4.9c1.2,0,2.1,0.5,2.6,1.1h0.1v-0.8L76.9,13.4   L76.9,13.4z M75,18c0-1.7-1.2-3-2.6-3c-1.5,0-2.7,1.3-2.7,3c0,1.7,1.3,3,2.7,3C73.8,21,75,19.7,75,18z"></path>		<path d="M81.2,8.1v14.5H79V8.1H81.2z"></path>		<path d="M90,19.6l1.7,1.1c-0.5,0.8-1.8,2.2-4.1,2.2c-2.8,0-4.9-2.2-4.9-4.9c0-2.9,2.1-4.9,4.6-4.9c2.6,0,3.8,2,4.2,3.1l0.2,0.6   l-6.6,2.7c0.5,1,1.3,1.5,2.4,1.5C88.6,21,89.4,20.4,90,19.6z M84.8,17.8l4.4-1.8c-0.2-0.6-1-1-1.8-1C86.3,15,84.7,15.9,84.8,17.8z   "></path>	</g>	<rect x="0.1" width="16.4" height="61.7"></rect>	<g>		<path class="st0" d="M11.4,51.7v0.8H5.2v-2.1c0-0.5,0.2-1,0.5-1.4c0.4-0.4,0.8-0.6,1.3-0.6c0.5,0,1,0.2,1.3,0.6   c0.4,0.4,0.5,0.8,0.5,1.4v1.3H11.4z M8.1,51.7v-1.3c0-0.3-0.1-0.6-0.3-0.8c-0.2-0.2-0.5-0.3-0.8-0.3s-0.5,0.1-0.8,0.3   S6,50.1,6,50.4v1.3H8.1z"></path>		<path class="st0" d="M11.4,45.9H5.2v-2.1c0-0.5,0.2-1,0.5-1.4c0.4-0.4,0.8-0.6,1.3-0.6c0.4,0,0.8,0.1,1.2,0.4   c0.3,0.3,0.5,0.6,0.6,1.1l0,0l2.5-1.8h0v1l-2.5,1.7v0.9h2.5L11.4,45.9L11.4,45.9z M8.1,45.1v-1.3c0-0.3-0.1-0.6-0.3-0.8   c-0.2-0.2-0.5-0.3-0.8-0.3c-0.3,0-0.5,0.1-0.8,0.3C6.1,43.2,6,43.4,6,43.8v1.3H8.1z"></path>		<path class="st0" d="M6,35.5v2.8h2v-2.6h0.7v2.6h2v-2.8h0.8v3.6H5.2v-3.6H6z"></path>		<path class="st0" d="M11.4,32.7H5.2v-0.8L9,29.7v0l-3.8-2.2v-0.8h6.2v0.8H7.7l-1,0v0l3.4,1.9v0.5l-3.4,2v0l1,0h3.7L11.4,32.7   L11.4,32.7z"></path>		<path class="st0" d="M11.4,23.7H5.2v-0.8h6.2L11.4,23.7L11.4,23.7z"></path>		<path class="st0" d="M6,16.3v2.8h2v-2.6h0.7v2.6h2v-2.8h0.8v3.6H5.2v-3.6H6z"></path>		<path class="st0" d="M11.4,13.5H5.2v-2.1c0-0.5,0.2-1,0.5-1.4c0.4-0.4,0.8-0.6,1.3-0.6c0.4,0,0.8,0.1,1.2,0.4   c0.3,0.3,0.5,0.6,0.6,1.1l0,0l2.5-1.8h0v0.9l-2.5,1.7v0.9h2.5L11.4,13.5L11.4,13.5z M8.1,12.7v-1.3c0-0.3-0.1-0.6-0.3-0.8   c-0.2-0.2-0.5-0.3-0.8-0.3c-0.3,0-0.5,0.1-0.8,0.3S6,11,6,11.3v1.3C6,12.7,8.1,12.7,8.1,12.7z"></path>	</g></g></svg>