<svg xmlns="http://www.w3.org/2000/svg" id="Layer_1" data-name="Layer 1" viewBox="0 0 451.8 155.9"><defs><style>      .cls-1 {        fill: silver;      }      .cls-1, .cls-2 {        stroke-width: 0px;      }      .cls-2 {        fill: #fff;      }    </style></defs><path class="cls-2" d="M353,88c-.2-.2-.3-.6-.5-.6h-3.3c-1.4,2.8-2.7,5.5-4.2,8.3-1,2-2.8,3.6-4.9,4.3-2.2.7-4.5.9-6.8,1.4h-11c-1.1-.5-1.2-1.4-1.2-2.4v-54.5c0-1.9.6-2.9,2.5-3.4s3.5-.7,5.3-1.1v-3.2h-29c-.3,2.3.7,3.5,2.9,3.7h.4c2,.5,4,.9,4.8,3.2v54.8c-1.6,3.3-5.1,2.5-7.9,3.3v3.5h49.6c0-1.6.2-3.3.4-4.9.8-4.1,1.8-8.3,2.7-12.4h.2ZM398.7,72.8c-.2,1-.5,2-.8,3.2h1.6c1.1.2,2.3.4,3.4.6,2.6.5,3.8,1.8,3.8,4.4s.1,6.7-.1,10.1c-.1,2.3-.6,4.5-1.4,6.7-.6,1.4-1.7,2.6-3,3.4-3.5,2-7.4,2.2-11.4,1.5-1.5-.3-3-.9-4.3-1.7-5.5-3.2-8.2-8.5-10.2-14.1-3.3-9.4-3.8-19.2-2.4-29,.5-4.3,1.9-8.5,4.2-12.2,2.7-4.2,6.5-6.7,11.6-6.8,6.6-.3,12.9,2.6,16.8,7.9,1.9,2.4,3.2,5.3,4.9,7.9.3.4.8,1,1.2,1,1.9,0,3.8,0,5.4,0l-5.4-19c-4.1,1-8.4,0-12.8-1-5-1.3-10.3-1.3-15.4,0-10.6,2.8-18.1,9.2-22.1,19.5-4.2,10.5-4,22.3.6,32.7,3.1,7.6,9.2,13.7,16.9,16.8,7.4,3.1,15,2.8,22.7,1.2,6.2-1.4,12.4-2.7,18.8-2.1.4,0,.7,0,1.1-.2,0-1,0-2-.4-3-.3-.5-1.5-.5-2.2-.8-.3-.2-.6-.6-.6-.9,0-5.9-.2-11.8,0-17.7,0-2.6,1.4-3.8,3.9-4.4l2.1-.5v-3.2h-26.5v-.2ZM247.7,105.3h2.8c.6,0,1.2-.4,1.6-.9.7-1.3,2.2-2,3.6-1.5,1.8.5,3.5,1,5.3,1.7,9,3.3,17.6,3.3,25.8-2.2,6.8-4.7,9.8-13.3,7.2-21.1-2-5.6-6-9.5-11.1-12.3s-10.6-5.3-15.9-8.1c-2.4-1.1-4.4-2.8-6-5-2.4-3.5-2.9-7.3-1.2-11.1,2.2-4.9,7.3-6.7,13-5.6,5.1,1,8.6,4.3,10.9,8.9,1.3,2.6,2.5,3.2,5.5,2.8-.2-5-.5-10-.7-15.1-1.6,0-3.2-.7-4.4,1.1-.4.4-1,.6-1.6.5-1,0-1.9-.2-2.9-.5-4.7-1.6-9.6-2.2-14.5-1.7-7.5.8-15,5.5-16.9,13.5-1.5,6.3-.4,12.1,4,17.1,3.3,3.7,7.6,6.2,12,8.4,3.9,1.9,7.7,4,11.4,6.2,3,1.7,5.3,4.5,6.3,7.9,1.8,5.8-1.4,11.9-7.1,13.8-4.6,1.4-9.5.8-13.8-1.4-3.9-1.9-6.9-5.2-8.6-9.2-.4-.9-1.2-1.6-2.1-1.9-1.2-.2-2.4-.2-3.7,0,.3,5.4.6,10.6.9,16h0l.2-.3ZM220.5,40.5h8.9c1,0,1.9,0,2.9.5,1.8.7,2.3,2.4,2.4,4.2s0,3.6,0,5.5h2c1.2.2,1.8-.3,2.1-1.6,1-4.1,2.1-8.2,3.2-12.3,0-.4.1-.9.1-1.3-1.6,0-3.1.2-4.6.4-2.1.2-4.3.6-6.4.6-9,0-18,0-27.1,0-3.2,0-6.4-.4-9.6-.6-1.4,0-2.7-.2-4.1-.3-.9,0-1.3.3-1.5,1.2-.5,2.1-1.1,4.1-1.6,6.2-.6,2.5-1.3,5-1.9,7.5.6,0,.9,0,1.3,0,1.7.3,2.7-.3,3.5-2,.9-2,2.1-3.9,3.5-5.7.8-1.1,2-1.9,3.4-2.2,3.4-.3,6.9,0,10.5,0v56.9c-.1,2-.8,2.9-2.7,3.4-1.7.4-3.5.7-5.3,1v3.3h29.1v-3.4c-1.2,0-2.3-.2-3.5-.4-2.9-.7-4.6-1.1-4.6-5.1.1-17.9,0-35.8,0-53.6v-2.3h0Z"></path><path class="cls-1" d="M84.4,151.5v.3h-18.5v-.3h18.5Z"></path><g><path class="cls-2" d="M154.5,67c-.9-4.6-2.2-9.2-3.9-13.6-2.1-5.4-4.9-10.5-8.3-15.2-.3.3-.5.7-.6,1.1-.8,2-1.7,4-2.6,6-1.2,2.5-2,5.2-5.3,5.7-.3.1-.6.4-.9.7-7,6.7-15.4,11.2-24.4,14.4-4.8,1.7-9.7,3.2-14.6,4.6-3.4,1-6.9,1.7-10.4,2.3-6,.9-12.2,1-18.1,2.3-8.4,1.8-16.7,4.2-25,6.6-4.6,1.3-8.8,3.7-12.2,7-4.1,3.9-6.9,9-7.9,14.6-1.3,6.6-1.2,13.1,1.4,19.4,2.9,7.1,7.9,12.7,13.5,17.9.3.2.6.4.9.5-.4-1.4-.7-2.5-1-3.6-2-7.8-3.1-15.7-1.3-23.8,1.6-7.8,6.6-14.4,13.7-18,7-3.7,14.4-5.3,22.2-5.8,1.6-.1,3.3-.4,4.9-.7,4.9-1,9.7-2.3,14.7-3.1,3.7-.6,7.5-.8,11.3-1.1.4,0,.7.1,1.1.2-.8.5-1.6,1-2.5,1.4-8.1,2.9-16.2,5.7-24.4,8.5-6,2-11.7,4.6-16.5,8.8-6.8,5.8-10.3,13.2-10,22.1.3,6.5,2.4,12.7,6.2,18,2.3,3.2,4.8,6,8.7,7.3h18.6c5.6-.7,11.2-1,16.6-2.3,6.7-1.7,13-4.4,18.9-8,9-5.4,16.9-12.5,23.2-20.9,8.2-10.7,13.3-23.5,14.7-36.9.6-5.5.3-11-.7-16.4Z"></path><path class="cls-2" d="M37.3,66.1c6.5-2.6,13.3-4.5,20.1-6.6,8.6-2.6,17.4-3.9,26.2-5.2,3.7-.5,7.5-1,11.2-1.9,4.6-1.1,9.1-2.3,13.9-2.2,1.1,0,2.1,0,3.2-.3,3.8-.7,7.5-1.7,10-4.7,2.6-3.1,4.9-6.3,7-9.7,1.5-2.2,2.1-5,1.7-7.7-.8-3.5-5.6-7.5-9.3-7.6-.3,0-.5.1-.7.2.2.8.4,1.6.6,2.3.6,2,.6,4.2-.1,6.2-1.5,4.3-4.6,7.8-8.7,9.7-9.5,5-20.1,7.7-30.9,7.7-7.6,0-15,.8-22.1,4-1.2.5-2.8.4-4.2.5l-.5-.9,1.4-.7c1.5-.9,3.2-1.7,4.8-2.4,5.2-2.1,10.5-3.8,15.9-5,4.9-1.1,9.7-2.4,14.4-4,5.1-1.4,9.9-4,13.9-7.5,2.5-2.3,4.2-5,3.7-8.6-.5-2.8-2.1-5.3-4.5-6.9-2.3-1.6-4.8-2.7-7.1-4.3-2.7-1.8-5.8-3-9.1-3.2-9.4-.9-19,.2-28,3-11,3.5-21,9.4-29.4,17.3-7.5,7-13.6,15.4-17.9,24.7-3.7,8-5.9,16.5-6.5,25.2v10.9-.4c.2,4.8,1.6,9.5,4,13.6.2-.4.4-.8.4-1.2.2-3.9,1.2-7.6,3.1-11,2-3.3,4.1-6.5,6.4-9.6,4.2-6.1,10.2-10.9,17.1-13.7Z"></path></g><path class="cls-2" d="M169.9,119.8h4.1c.4,0,.7.3.9.7v.4c0,.2-.1.4-.2.6-.2.2-.4.3-.7.3h-1v6.8c0,.4-.3.8-.7.9h-.3c-.4,0-.8-.3-.9-.7v-7.1h-1c-.4,0-.7-.3-.9-.6v-.3c0-.4.2-.8.6-.9h.1,0Z"></path><path class="cls-2" d="M179.9,119.8h.1c.4,0,.8.3.9.7v3.2h4.2v-3c0-.2.1-.5.3-.7s.4-.3.7-.3h.1c.4,0,.8.3.9.6v8c0,.5-.3.9-.7,1h-.3c-.4,0-.8-.3-.9-.7v-3.2h-4.2v2.7c0,.5-.2,1-.7,1.1h-.4c-.5,0-.8-.3-.9-.8v-8c0-.3.2-.5.4-.7.2,0,.4,0,.5,0h0Z"></path><path class="cls-2" d="M192.2,119.8h3.2c.4,0,.7.2.9.8v.2c0,.5-.3.9-.7,1h-2.4v2h2.2c.4,0,.7.3.9.8v.2c0,.5-.3.9-.7,1h-2.4v2h2.2c.4,0,.7.2.9.8v.2c0,.5-.3.9-.7,1h-3.3c-.5,0-.9-.4-1-.8v-8c0-.5.3-.8.9-.9h.1v-.3Z"></path><path class="cls-2" d="M215.7,119.8c.6,0,1.1.2,1.7.4.3.2.4.5.4.8s-.3.8-.7.9h-.3c-.3,0-.5,0-.8-.2h-.4c-.4,0-.8,0-1,.5,0,.2,0,.3-.1.5,0,.2,0,.4.2.5.7.3,1.4.6,2.2.8.3,0,.6.3.9.6.3.3.5.8.6,1.2,0,.3,0,.5.1.8,0,.9-.5,1.8-1.2,2.4-.5.3-1.1.5-1.7.5h-.6c-.8,0-1.7-.2-2.3-.8s-.2-.4-.2-.7.3-.8.7-.9h.3c.2,0,.5,0,.7.3.3,0,.6.2.9.2h.2c.6,0,1-.2,1.1-.5,0,0,0,0,.1-.4,0-.4-.1-.7-.4-.8-.8-.2-1.6-.6-2.4-.9-.5-.3-.9-.8-1.1-1.4v-.8c0-.6.2-1.2.5-1.7.7-.8,1.6-1.2,2.7-1.2h0Z"></path><path class="cls-2" d="M226.4,119.8h.3c.5,0,1,.3,1.3.7.3.6.6,1.2.7,1.8,1.4,3.6,2.1,5.6,2.3,6.1v.2c0,.4-.3.8-.7.9h-.2c-.5,0-.9-.3-1-.8-.1-.4-.2-.7-.4-1.1h-4c-.1.6-.4,1.1-.7,1.6-.2.2-.4.2-.6.2h0c-.5,0-.9-.3-.9-.8v-.2c.1-.6.3-1.2.6-1.8,1.4-3.9,2.2-6,2.2-6.1.3-.5.7-.8,1.3-.8h-.2ZM226.6,122.2l-1.3,3.5h2.6l-1.3-3.5h0Z"></path><path class="cls-2" d="M236.1,119.8h0c.4,0,.7.2.9.6l4.9,5.6v-5.1c0-.5.3-.9.7-1h.3c.4,0,.8.3.9.7v8.1c0,.5-.3.9-.8,1h-.2c-.4,0-.7-.2-.9-.5l-4.9-5.6v5.2c0,.2-.1.5-.3.6-.2.2-.4.3-.7.3h0c-.5,0-.9-.3-1-.7v-7.9c0-.4.2-.8.6-1,0,0,.2,0,.3-.2h.2Z"></path><path class="cls-2" d="M248.9,119.8h2.6c1.1,0,2.2.5,3,1.2.5.5.9,1.1,1.1,1.8.2.5.3,1.1.3,1.6v.4c0,1.1-.4,2.1-1,3-.8,1.1-2.1,1.7-3.4,1.7h-2.5c-.4,0-.8-.3-.9-.7v-8c0-.5.3-.9.8-1h0ZM250.8,121.8h-.8v5.8h1.3c1.1,0,2.1-.7,2.4-1.7.1-.3.2-.7.2-1.1v-.3c0-.7-.2-1.4-.7-2s-1.2-.9-1.9-.8h-.5Z"></path><path class="cls-2" d="M263.2,119.8c.6,0,1.1.2,1.7.4.3.2.4.5.5.8,0,.4-.3.8-.7.9h-.3c-.3,0-.5,0-.8-.2h-.4c-.4,0-.8.2-1,.5,0,.2,0,.3-.1.5,0,.2,0,.4.2.5.7.3,1.4.6,2.2.8.3,0,.6.3.9.6.3.3.5.8.6,1.2,0,.3,0,.5.1.8,0,.9-.5,1.8-1.2,2.4-.5.3-1.1.5-1.7.5h-.6c-.8,0-1.7-.2-2.3-.8-.2-.2-.3-.4-.3-.7s.3-.8.7-.9h.4c.2,0,.5,0,.7.3.3,0,.6.2.9.2h.2c.6,0,1-.2,1.1-.5,0,0,0,0,.1-.4,0-.4-.1-.7-.4-.8-.8-.2-1.6-.6-2.4-.9-.5-.3-.9-.8-1.1-1.4v-.8c0-.6.2-1.2.5-1.7.6-.8,1.6-1.2,2.6-1.2h-.1Z"></path><path class="cls-2" d="M283.1,119.8h0c.4,0,.8.3.9.7h0v7.1h2.3c.4,0,.7.3.9.6v.3h0c0,.5-.3.9-.7,1h-3.4c-.5,0-.9-.3-1-.7v-7.9c0-.6.2-.9.5-1.1.1,0,.3,0,.4,0h.1Z"></path><path class="cls-2" d="M295.6,119.8h.3c.5,0,1,.3,1.3.7.3.6.6,1.2.8,1.8,1.4,3.6,2.1,5.6,2.3,6.1v.2c0,.4-.3.8-.7.9h-.2c-.5,0-.9-.3-1-.8-.1-.4-.2-.7-.4-1.1h-4c-.1.6-.4,1.1-.7,1.6-.2.2-.4.2-.6.2h0c-.5,0-.8-.3-.9-.8v-.2c.1-.6.4-1.2.6-1.8,1.4-3.9,2.2-6,2.2-6.1.3-.5.7-.8,1.3-.8h-.3ZM295.7,122.2l-1.3,3.5h2.6l-1.3-3.5h0Z"></path><path class="cls-2" d="M303.8,119.8h0c.6,0,.9.4,1,1.4l.7,3.3h0c.8-2.7,1.2-4.1,1.3-4.2.2-.3.5-.4.8-.4h.1c.5,0,.9.4,1,1.3l1,3.4c.1-.4.2-.9.3-1.3l.6-2.8c.2-.3.5-.5.9-.6h0c.4,0,.8.2.9.7v.3c0,.5-.6,3.2-1.6,8.2-.2.3-.5.6-.9.6h0c-.4,0-.8-.3-.9-.7l-1.4-4.6c-.1.3-.3.7-.3,1.1l-1.1,3.8c-.2.3-.5.5-.8.5h-.1c-.4,0-.7-.2-.9-.8l-1.6-8c0-.5.3-.9.8-1h.2v-.2Z"></path><path class="cls-2" d="M333.7,119.8h.3c1.2,0,2.3.4,3.2,1.2.5.4.8.9.9,1.5,0,.3-.1.5-.3.7-.2.2-.5.3-.7.3-.4,0-.7-.3-1-.8-.6-.6-1.4-.9-2.2-.9s-1.9.5-2.5,1.3c-.4.5-.5,1.1-.5,1.7s.3,1.5.9,2c.4.3.8.6,1.2.8.2,0,.5,0,.7,0h.5c.7,0,1.3-.2,1.8-.6.3-.3.5-.6.6-.9h-1.5c-.4,0-.8-.2-1-.5,0,0-.1-.3-.1-.4h0c0-.5.3-.9.7-1h3.1c.4,0,.8.3.9.7v.4c0,1.1-.4,2.2-1.2,3-.9.9-2.1,1.4-3.4,1.3h-.4c-1.1,0-2.1-.4-2.9-1.1-1.2-.9-1.8-2.3-1.9-3.8,0-1.5.7-2.9,1.8-3.8.9-.7,2-1.1,3.1-1.1h-.1Z"></path><path class="cls-2" d="M343.7,119.8h1.9c.9,0,1.7.4,2.3,1,.5.6.7,1.3.7,2h0c0,1.3-.7,2.4-1.8,2.8h-.1c1.1,1.5,1.7,2.4,1.8,2.5v.4c0,.5-.3.9-.7,1h-.3c-.4,0-.7-.3-1-.9l-1.8-2.5h0v2.4c0,.4-.2.7-.5.9h-.5c-.4,0-.8-.3-.9-.6v-8.1c0-.5.3-.9.7-1h.4-.2ZM344.6,121.8v2.2h.9c.5,0,1-.2,1.2-.7v-.4h0c0-.8-.5-1.1-1.4-1.1h-.7Z"></path><path class="cls-2" d="M357.5,119.8h.3c1.1,0,2.2.4,3,1.1.4.3.8.8,1,1.2.5.7.7,1.5.7,2.4v.2c0,2.6-2.1,4.7-4.7,4.8h-.3c-1.2,0-2.3-.5-3.2-1.3-2-1.9-2.1-5-.2-6.9h0c.9-.9,2.1-1.4,3.4-1.5h0ZM354.7,124.7c0,.7.3,1.4.8,2,.3.4.7.6,1.2.8.3,0,.6.2.9.2h.3c.8,0,1.6-.4,2.1-1,.4-.5.6-1.1.7-1.8v-.2c0-.7-.3-1.4-.8-1.9-.5-.6-1.2-.9-2-.9h-.3c-.8,0-1.5.3-2,.9l-.3.4c-.3.5-.4,1-.5,1.5h-.1Z"></path><path class="cls-2" d="M367.5,119.8h.1c.4,0,.8.3.9.6v5.5c0,.6.3,1.2.9,1.5.2,0,.4.2.6.2h.2c.6,0,1.1-.3,1.4-.8.1-.2.2-.5.2-.8v-5c0-.5.2-.9.6-1.1h.4c.5,0,.8.3.9.8v5.4c0,1.9-1.5,3.4-3.4,3.5h-.3c-.8,0-1.5-.3-2.1-.8-.9-.7-1.4-1.8-1.4-2.9v-5.1c0-.4.2-.7.5-.9h.5Z"></path><path class="cls-2" d="M378.7,119.8h2.3c.9,0,1.7.4,2.3,1,.6.6.9,1.4.9,2.2v.3c0,1.1-.6,2.2-1.6,2.7-.5.3-1.1.4-1.6.4h-1.2v2.1c0,.5-.2.9-.6,1.1h-.4c-.4,0-.8-.3-.9-.7v-8.1c0-.2,0-.5.2-.7s.4-.3.6-.3h0ZM379.8,121.8v2.6h1.1c.5,0,.9-.2,1.2-.6,0-.2.1-.4.1-.6v-.2c0-.4-.2-.8-.6-1-.3,0-.6-.2-.9-.2h-.9Z"></path><path class="cls-2" d="M390.8,129.1l-1,1.7c-.1.3-.4.5-.7.5h-.4c-.2-.2-.4-.5-.4-.8s0-.3.1-.5l1-1.7c.1-.3.4-.5.7-.5h.3c.3,0,.4.4.4.7v.2l-.2.3h.2Z"></path><path class="cls-2" d="M411.3,119.8h.3c.5,0,1,.3,1.3.7.3.6.6,1.2.7,1.8,1.4,3.6,2.1,5.6,2.3,6.1v.2c0,.4-.3.8-.7.9h-.2c-.5,0-.9-.3-1-.8-.1-.4-.3-.7-.4-1.1h-4c-.1.6-.4,1.1-.7,1.6-.2.2-.4.2-.6.2h0c-.5,0-.8-.3-.9-.8v-.2c.1-.6.3-1.2.6-1.8,1.4-3.9,2.2-6,2.2-6.1.3-.5.8-.8,1.3-.8h-.2ZM411.5,122.2l-1.3,3.5h2.6l-1.3-3.5h0Z"></path><path class="cls-2" d="M420.8,119.8h2.3c.9,0,1.7.4,2.3,1,.6.6.9,1.4.9,2.2v.3c0,1.1-.6,2.2-1.6,2.7-.5.3-1.1.4-1.6.4h-1.2v2.1c0,.5-.2.9-.6,1.1h-.4c-.4,0-.8-.3-.9-.7v-8.1c0-.2,0-.5.2-.7.1-.2.4-.3.6-.3h0ZM421.9,121.8v2.6h1.1c.5,0,.9-.2,1.2-.6,0-.2.1-.4.1-.6v-.2c0-.4-.2-.8-.6-1-.3,0-.6-.2-.9-.2h-.9Z"></path><path class="cls-2" d="M431.4,119.8h0c.4,0,.8.3.9.7h0v7.1h2.3c.4,0,.7.3.9.6v.3h0c0,.5-.3.9-.7,1h-3.4c-.5,0-.9-.3-1-.7v-7.9c0-.6.2-.9.5-1.1.1,0,.3,0,.4,0h.1Z"></path><path class="cls-2" d="M443,119.8h.3c.7,0,1.4.2,2,.5.3.2.5.5.5.9s-.3.8-.7.9h-.3c-.3,0-.6,0-.9-.2h-.8c-.8,0-1.6.4-2.1,1-.5.5-.7,1.2-.7,1.9s.3,1.5.8,2c.5.6,1.2.9,2,.9h.3c.4,0,.8,0,1.2-.3h.3c.4,0,.7.3.9.6v.4c0,.6-.5,1-1.5,1.2h-1.1c-1.3,0-2.5-.5-3.4-1.4-1.9-1.9-1.9-5,0-6.9.9-.9,2.1-1.4,3.4-1.4h-.2Z"></path></svg>