<svg xmlns="http://www.w3.org/2000/svg" id="Layer_1" data-name="Layer 1" viewBox="0 0 638.3 89.2"><defs><style>      .cls-1 {        fill: #fff;        stroke-width: 0px;      }    </style></defs><g id="Group_44" data-name="Group 44"><path id="Path_189" data-name="Path 189" class="cls-1" d="M167.8,66v-1l5.2-2.6V26.9l-5.2-2.6v-1h16.2v1l-5.2,2.6v35.5l5.2,2.6v1h-16.2Z"></path><path id="Path_190" data-name="Path 190" class="cls-1" d="M188.4,66v-1l4.1-2.1v-19.3l-3.9-3.4v-.5l8-3.6h.4l.6,4.8h.3c1.3-1.4,2.9-2.7,4.6-3.6,1.5-.8,3.2-1.2,4.9-1.2s3.7.4,5.3,1.4c1.5.9,2.5,2.5,2.9,4.2h.2c1.5-1.6,3.2-3.1,5.1-4.2,1.6-.9,3.4-1.4,5.2-1.4s4.3.6,6,1.9c1.6,1.4,2.5,3.5,2.4,5.7v19.1l4.1,2.1v1h-13.9v-1l4.6-2.1v-16.1c.1-1.6-.5-3.2-1.7-4.3-1.2-1-2.8-1.5-4.4-1.5s-2.8.2-4.1.7c-1.2.4-2.3,1.2-3.2,2.1v19l4.5,2.1v1h-14v-1l4.3-2.1v-16.1c.1-1.6-.5-3.2-1.7-4.3-1.2-1-2.8-1.5-4.4-1.5s-2.5.2-3.6.6c-1.2.3-2.3.9-3.2,1.7v19.6l4.2,2.1v1h-13.5v.2Z"></path><path id="Path_191" data-name="Path 191" class="cls-1" d="M240.8,66v-1l4.1-2.1v-19.3l-3.9-3.4v-.5l8-3.6h.4l.6,4.8h.3c1.3-1.4,2.9-2.7,4.6-3.6,1.5-.8,3.2-1.2,4.9-1.2s3.7.4,5.3,1.4c1.5.9,2.5,2.5,2.8,4.2h.2c1.5-1.6,3.2-3.1,5.1-4.2,1.6-.9,3.4-1.4,5.2-1.4s4.3.6,6,1.9c1.6,1.4,2.5,3.5,2.4,5.7v19.1l4.1,2.1v1h-13.9v-1l4.6-2.1v-16.1c.1-1.6-.5-3.2-1.7-4.3-1.2-1-2.8-1.5-4.4-1.5s-2.8.2-4.1.7c-1.2.4-2.3,1.2-3.2,2.1v19l4.5,2.1v1h-14v-1l4.3-2.1v-16.1c.1-1.6-.5-3.2-1.7-4.3-1.2-1-2.8-1.5-4.4-1.5s-2.5.2-3.6.6c-1.2.3-2.3.9-3.2,1.7v19.6l4.2,2.1v1h-13.5v.2Z"></path><path id="Path_192" data-name="Path 192" class="cls-1" d="M293.4,66v-1l4.1-2.1v-19.3l-3.9-3.4v-.5l8.7-3.6h.4v26.7l4.1,2.1v1h-13.4ZM299.9,28.3c-1,0-2.1-.4-2.8-1.1-1.5-1.5-1.5-4,0-5.5s4-1.5,5.5,0,1.5,3.9,0,5.4c-.7.8-1.7,1.2-2.8,1.1h0Z"></path><path id="Path_193" data-name="Path 193" class="cls-1" d="M323.6,56.8c-1.8,0-3.6-.3-5.2-1-.7.3-1.4.7-1.8,1.4-.4.5-.6,1.2-.5,1.8,0,2.2,1.5,3.2,4.6,3.2h7.8c3.2,0,5.5.7,7,2.1s2.2,3.4,2.2,6.2-.7,3.8-1.8,5.3c-1.4,1.8-3.2,3.3-5.2,4.2-2.5,1.1-5.3,1.7-8.1,1.6-4.1,0-7.1-.7-8.8-2.2-1.7-1.3-2.7-3.3-2.7-5.5s.4-2.9,1.2-4.1l4.5-3v-.3c-1.4-.2-2.7-.9-3.8-1.9-.9-.9-1.3-2.1-1.3-3.4s.6-3.1,1.7-4.1l3.5-1.8v-.4c-1.4-.9-2.5-2.1-3.3-3.5-.8-1.5-1.3-3.1-1.2-4.8,0-1.9.5-3.7,1.5-5.2,1-1.6,2.4-2.8,4.1-3.7,1.8-.9,3.9-1.4,5.9-1.4s2,0,2.9.3,1.9.5,2.8.8l9.7-.5v3.5l-6-.4-.3.3c.7.8,1.3,1.8,1.7,2.8.4,1.1.7,2.3.7,3.4,0,1.9-.5,3.7-1.5,5.3s-2.4,2.8-4.1,3.7c-1.8.9-3.9,1.4-5.9,1.4h-.3ZM315.5,73.1c0,1.8.8,3.6,2.2,4.7,1.5,1.3,3.5,1.9,5.5,1.9s3.5-.3,5.1-1.1c1.4-.7,2.5-1.7,3.4-3,.8-1.2,1.2-2.5,1.2-3.9s-.5-3.2-1.5-4-2.8-1.1-5.5-1.1h-7.3c-1.1.6-1.9,1.5-2.4,2.6-.5,1.2-.7,2.5-.7,3.9h0ZM324.3,54.1c1.7,0,3.2-.8,4.1-2.2,1-1.5,1.5-3.4,1.5-5.2s-.6-4.1-1.9-5.7c-1.2-1.4-2.9-2.2-4.7-2.2s-3.4.8-4.3,2.2c-1,1.6-1.5,3.4-1.5,5.3s.6,4,1.9,5.6c1.2,1.5,3,2.3,4.9,2.2h0Z"></path><path id="Path_194" data-name="Path 194" class="cls-1" d="M341.8,66v-1l4.1-2.1v-19.3l-3.9-3.4v-.5l8-3.6h.4l.6,5.5h.3c.8-1.3,1.7-2.5,2.8-3.6.7-.7,1.5-1.2,2.4-1.6.7-.2,1.5-.4,2.2-.4s.8,0,1.2.2c.4,0,.8.2,1.1.4.5.2.9.5,1.3.8.4.2.6.6.6,1s0,.8-.3,1.2l-1.3,3.2h-.5l-2.5-1c-.4-.2-.9-.3-1.4-.4h-1.3c-1.9,0-3.7,1.1-4.6,2.8v18.6l4.6,2.1v1h-13.9,0Z"></path><path id="Path_195" data-name="Path 195" class="cls-1" d="M371.6,66.6c-1.8,0-3.7-.6-5.1-1.8-1.4-1.3-2.1-3.1-2-5,0-2.1.8-4.1,2.4-5.5,1.6-1.6,4.2-2.8,7.9-3.6l6.2-1.4v-4.7c0-1.5-.7-2.9-1.8-3.8-1.1-1-2.5-1.6-4-1.6-1.3,0-2.6.4-3.4,1.3-.7,1-1,2.3-1,3.5v1.8l-.3.3h-3.4c-.5,0-.9,0-1.3-.3-.3-.4-.4-1-.4-1.5,0-1,.3-2,.8-2.9.6-1.1,1.5-2,2.6-2.6,1.2-.8,2.5-1.4,3.8-1.9,1.4-.5,2.8-.8,4.2-.8s3,.2,4.4.6c1.4.4,2.6,1.1,3.5,2.2,1,1.2,1.5,2.7,1.4,4.2v18.4c.4.3.8.6,1.3.8.8.2,1.5.4,2.3.3h2.7v.3c-.6,1-1.4,1.9-2.3,2.5-1.1.7-2.4,1.1-3.7,1.1s-2.3-.3-3.3-1.1c-.9-.7-1.5-1.7-1.8-2.8h-.4c-1.2,1.2-2.6,2.1-4.2,2.8s-3.4,1.1-5.2,1.1h0ZM369.6,58.6c0,2.7,1.6,4,4.9,4s2.1,0,3.1-.3c1.2-.3,2.4-.7,3.5-1.2v-9.6c-2.6.4-5.1,1.1-7.6,2-1.2.4-2.3,1.2-3.1,2.3-.5.8-.7,1.8-.7,2.7h0Z"></path><path id="Path_196" data-name="Path 196" class="cls-1" d="M403.4,66.6c-1.8,0-3.5-.6-4.9-1.7-1.4-1.2-2.2-2.9-2.1-4.7v-20.3h-5.3v-.4l5.5-2.7,4.6-7.1h.4v7.1h8.5v3h-8.5v19.2c0,1,.5,2,1.5,2.5,1.1.5,2.3.8,3.5.8s1.5,0,2.3,0c.6,0,1.2-.2,1.8-.3h.2v.6c-.6,1.2-1.5,2.1-2.6,2.8-1.5.9-3.2,1.4-5,1.3h.1Z"></path><path id="Path_197" data-name="Path 197" class="cls-1" d="M413.2,66v-1l4.1-2.1v-19.3l-3.9-3.4v-.5l8.7-3.6h.4v26.7l4.1,2.1v1h-13.4ZM419.6,28.3c-1,0-2.1-.4-2.8-1.1-1.5-1.5-1.5-4,0-5.5s4-1.5,5.5,0,1.5,3.9,0,5.4c-.7.8-1.7,1.2-2.8,1.1h0Z"></path><path id="Path_198" data-name="Path 198" class="cls-1" d="M444.2,66.6c-5.3,0-10.1-2.8-12.5-7.4-2.4-4.9-2.4-10.6,0-15.5,3.5-6.9,12-9.6,18.9-6,2.6,1.3,4.7,3.4,6,6,2.4,4.9,2.4,10.6,0,15.5-2.4,4.7-7.2,7.6-12.5,7.4h.1ZM445.1,63.8c1.6,0,3.1-.5,4.3-1.6,1.2-1.2,2-2.6,2.5-4.2.5-1.7.8-3.5.8-5.3s-.3-4.5-.9-6.6c-.5-2-1.6-3.7-3-5.2-1.4-1.4-3.3-2.1-5.3-2-1.6,0-3.2.5-4.3,1.6-1.2,1.2-2,2.6-2.5,4.1-.5,1.7-.8,3.6-.8,5.4s.3,4.5,1,6.6c.6,2,1.6,3.7,3,5.2,1.4,1.4,3.3,2.1,5.3,2h-.1Z"></path><path id="Path_199" data-name="Path 199" class="cls-1" d="M461.5,66v-1l4.1-2.1v-19.3l-3.9-3.4v-.5l8-3.6h.4l.6,4.8h.3c1.4-1.5,3-2.7,4.8-3.6,1.6-.8,3.3-1.2,5.1-1.2s4.4.6,6.3,1.9c1.7,1.4,2.6,3.5,2.4,5.7v19.1l4.1,2.1v1h-13.9v-1l4.6-2.1v-16.1c.1-1.6-.6-3.2-1.8-4.3-1.3-1-3-1.6-4.6-1.5-1.3,0-2.6.2-3.9.6-1.2.3-2.4.9-3.3,1.7v19.6l4.6,2.1v1h-13.9Z"></path><path id="Path_200" data-name="Path 200" class="cls-1" d="M510.1,66v-1l5.2-2.6V26.9l-5.2-2.6v-1h19c4.2-.1,8.4.7,12.2,2.5,3.2,1.5,5.8,3.9,7.7,6.9,1.8,3,2.7,6.5,2.6,10,0,3.2-.6,6.4-1.7,9.3-1.1,2.8-2.7,5.3-4.8,7.4-2.1,2.1-4.6,3.7-7.3,4.9-2.9,1.2-6,1.8-9.1,1.7h-18.6ZM527.5,26.8h-6.5v35.6h7.4c3.1,0,6.2-.7,9-2.2,2.5-1.4,4.5-3.6,5.8-6.2,2.7-6,2.7-12.9,0-18.9-1.3-2.7-3.4-4.8-6.1-6.3-3-1.5-6.3-2.3-9.7-2.2h0v.2Z"></path><path id="Path_201" data-name="Path 201" class="cls-1" d="M567.9,66.6c-4.2,0-7.5-1.3-9.9-3.8-2.5-2.8-3.8-6.4-3.6-10.1,0-3,.6-5.9,1.9-8.6,1.2-2.3,2.9-4.4,5.1-5.8,2-1.4,4.4-2.1,6.8-2.1,3.1,0,6.1,1.2,8.1,3.6,2,2.4,2.9,5.8,2.9,10.2l-.3.3h-19.4c0,1.9.4,3.8,1.2,5.6.7,1.7,2,3.2,3.5,4.2,2,1.2,4.2,1.7,6.5,1.6,3-.2,5.8-1.1,8.4-2.6h.2v.6c-1.1,1.9-2.6,3.6-4.4,4.8-2,1.4-4.4,2.1-6.9,2h0ZM567.1,39c-1.9,0-3.8.7-5.1,2.2-1.4,1.7-2.3,3.9-2.4,6.1h14.6c-.5-2.9-1.3-5-2.5-6.3s-2.9-2-4.6-1.9h0Z"></path><path id="Path_202" data-name="Path 202" class="cls-1" d="M593,66.6c-1.8,0-3.5,0-5.2-.5-1.6-.4-3.1-.9-4.5-1.7v-7.3h.9l2.1,3.6c1.3,2.4,3.9,3.7,6.5,3.6,1.5,0,2.9-.3,4-1.2,1-.8,1.5-2.1,1.5-3.4s-.3-2.1-.9-2.9c-.7-.8-1.6-1.4-2.6-1.8-1.1-.5-2.4-1.2-3.9-1.8-1.9-.8-3.6-1.9-5.1-3.3-1.3-1.4-1.9-3.2-1.8-5,0-1.6.5-3.1,1.4-4.3.9-1.3,2.1-2.4,3.5-3.1,1.3-.8,2.8-1.2,4.4-1.2s3,.2,4.4.6c1.4.4,2.8,1,4.1,1.6v7.1h-.9l-2.1-3.4c-.6-1-1.4-1.9-2.4-2.5-.8-.5-1.8-.8-2.8-.8s-2.5.3-3.5,1.1c-.9.8-1.4,1.9-1.3,3,0,1.3.5,2.6,1.6,3.3,1.5,1,3,1.8,4.6,2.6,1.2.6,2.4,1.2,3.7,1.8,1.2.6,2.3,1.5,3,2.6.9,1.4,1.3,3,1.2,4.7,0,1.7-.5,3.4-1.6,4.8-1,1.3-2.3,2.3-3.8,3-1.4.6-2.9,1-4.4,1v-.2Z"></path><path id="Path_203" data-name="Path 203" class="cls-1" d="M607.1,66v-1l4.1-2.1V24.8l-3.9-3.4v-.5l8.7-3.6h.4v32.1l10.4-8.9v-.4l-3.2-2.3v-1h12.3v1l-4.1,2.3-10.7,8.2,13.1,14.4,4.1,2.2v1h-8.6l-2.5-3.4-10.9-12.2v12.6l4.6,1.9v1h-13.9v.2Z"></path></g><g><path class="cls-1" d="M56.9,77.2h.7c-5.9-2.4-11.1-6.3-15-11.4h-10.4c6.1,7.2,15.2,11.4,24.7,11.4Z"></path><path class="cls-1" d="M67.3,75.5c-4.4-2.4-8.3-5.7-11.3-9.7h-10.4c4.7,5.4,11,9.2,18,10.7,1.2-.2,2.5-.6,3.7-1Z"></path><path class="cls-1" d="M69.2,65.8h-10c2.8,3.3,6.2,6,10,7.9v-7.9Z"></path><path class="cls-1" d="M69.2,15.5c-3.9,2-7.3,4.6-10.1,7.9h10.1v-7.9Z"></path><path class="cls-1" d="M32.2,23.4h10.4c3.9-5.1,9.1-9.1,15.1-11.4h-.8c-9.5,0-18.5,4.2-24.7,11.4Z"></path><path class="cls-1" d="M45.6,23.4h10.4c3-4,6.9-7.3,11.3-9.7-1.2-.4-2.4-.7-3.7-1-7,1.5-13.3,5.2-18,10.7Z"></path><path class="cls-1" d="M69.2,45.8h-17.9c.3,6.3,2.3,12.4,6,17.6h11.9v-17.6Z"></path><path class="cls-1" d="M37.8,43.4h11c.2-6.2,2.1-12.3,5.5-17.6h-10.6c-3.6,5.2-5.7,11.3-5.9,17.6Z"></path><path class="cls-1" d="M30.2,25.8c-3.6,5.2-5.7,11.3-5.9,17.6h11.1c.2-6.3,2.1-12.3,5.5-17.6h-10.7Z"></path><path class="cls-1" d="M69.1,25.8h-12c-3.6,5.2-5.7,11.3-5.9,17.6h17.9v-17.6Z"></path><path class="cls-1" d="M111.5,65.7c-8,10.6-21.4,15.7-34.5,13.1-4.5.9-9.1.9-13.5,0-13.1,2.6-26.5-2.5-34.5-13.1-4.4-5.7-6.8-12.7-7.1-19.9H0v43.4h140.7v-43.4s-21.8,0-22.1,0c-.2,7.2-2.7,14.1-7.1,19.9Z"></path><path class="cls-1" d="M24.4,45.8c.2,6.3,2.2,12.4,5.9,17.6h10.6c-3.4-5.3-5.3-11.3-5.5-17.6h-11Z"></path><path class="cls-1" d="M43.8,63.4h10.6c-3.4-5.3-5.3-11.3-5.5-17.6h-11.1c.3,6.3,2.3,12.4,6,17.6Z"></path><path class="cls-1" d="M99.8,25.8c3.4,5.3,5.3,11.3,5.5,17.6h11c-.2-6.3-2.2-12.4-5.9-17.6h-10.6Z"></path><path class="cls-1" d="M71.5,23.4h10.1c-2.8-3.3-6.3-6-10.1-7.9v7.9Z"></path><path class="cls-1" d="M73.4,13.7c4.4,2.4,8.3,5.7,11.3,9.7h10.4c-4.7-5.4-11-9.2-18-10.7-1.2.2-2.5.6-3.7,1Z"></path><path class="cls-1" d="M110.5,63.4c3.6-5.2,5.7-11.3,5.9-17.6h-11.1c-.2,6.3-2.1,12.3-5.5,17.6h10.7Z"></path><path class="cls-1" d="M83.8,12h-.8c6,2.4,11.2,6.3,15.1,11.4h10.4c-6.1-7.2-15.2-11.4-24.7-11.4Z"></path><path class="cls-1" d="M86.3,25.8c3.4,5.3,5.3,11.3,5.5,17.6h11c-.2-6.3-2.2-12.4-5.9-17.6h-10.6Z"></path><path class="cls-1" d="M0,0v43.4h22.1c.2-7.2,2.7-14.2,7.1-20,8-10.6,21.4-15.7,34.5-13.1,4.5-.9,9.1-.9,13.5,0,13-2.6,26.5,2.5,34.5,13.1,4.4,5.8,6.9,12.8,7.1,20h21.9V0H0Z"></path><path class="cls-1" d="M71.4,25.8v17.6h17.9c-.2-6.3-2.2-12.4-5.9-17.6h-12Z"></path><path class="cls-1" d="M71.5,63.4h11.9c3.7-5.2,5.8-11.3,6-17.6h-17.9v17.6Z"></path><path class="cls-1" d="M86.3,63.4h10.6c3.7-5.2,5.8-11.3,6-17.6h-11.1c-.2,6.3-2.1,12.3-5.5,17.6Z"></path><path class="cls-1" d="M108.4,65.8h-10.4c-3.8,5.1-9,9.1-15,11.4h.7c9.5,0,18.5-4.2,24.7-11.4Z"></path><path class="cls-1" d="M71.5,73.7c3.9-2,7.3-4.6,10.1-7.9h-10.1v7.9Z"></path><path class="cls-1" d="M95.1,65.7h-10.4c-3,4-6.9,7.3-11.3,9.7,1.2.4,2.4.7,3.7,1,7-1.5,13.3-5.2,18-10.7Z"></path></g></svg>