<svg xmlns="http://www.w3.org/2000/svg" xmlns:xlink="http://www.w3.org/1999/xlink" id="Layer_1" x="0px" y="0px" width="602.221px" height="130.154px" viewBox="1.397 332.767 602.221 130.154" xml:space="preserve"> <title>logo</title> <path fill="#FEFEFE" d="M3.925,407.176c0.366,2.461,1.064,4.89,2.062,7.185c0.898,2.161,2.229,4.124,3.892,5.787 c1.763,1.663,3.892,2.927,6.187,3.726c2.827,0.964,5.821,1.43,8.848,1.396c2.827,0.066,5.621-0.433,8.249-1.396 c2.195-0.799,4.191-2.063,5.854-3.726c1.596-1.696,2.827-3.659,3.692-5.787c0.964-2.329,1.63-4.757,1.996-7.218 c0.399-2.761,0.565-5.555,0.532-8.349v-4.224h-7.317v5.954c0.033,2.494-0.2,4.956-0.632,7.417c-0.366,2.029-1.098,4.024-2.096,5.854 c-0.931,1.696-2.328,3.093-4.058,3.991c-1.929,0.964-4.091,1.463-6.287,1.396c-2.361,0.066-4.723-0.399-6.885-1.396 c-1.83-0.865-3.326-2.262-4.324-4.024c-0.998-1.797-1.696-3.759-2.095-5.788c-0.433-2.461-0.632-4.922-0.599-7.417v-39.78 c0-2.029,0.1-4.025,0.366-6.021c0.233-1.729,0.666-3.426,1.297-5.056c0.532-1.497,1.397-2.86,2.461-4.024 c1.131-1.131,2.494-1.996,3.991-2.528c1.862-0.665,3.825-0.964,5.787-0.931c2.162-0.067,4.324,0.399,6.287,1.397 c1.696,0.898,3.126,2.295,4.058,3.991c0.998,1.829,1.696,3.792,2.096,5.821c0.432,2.428,0.665,4.922,0.632,7.384v5.222h7.317v-3.525 c0-17.628-6.785-26.442-20.322-26.442c-2.96-0.066-5.92,0.399-8.714,1.364c-2.295,0.765-4.391,2.029-6.153,3.692 c-1.663,1.663-3.027,3.625-3.958,5.787c-1.031,2.295-1.73,4.69-2.129,7.185c-0.432,2.794-0.632,5.588-0.599,8.382v36.321 C3.326,401.588,3.526,404.415,3.925,407.176z M83.584,425.27c14.735,0,22.119-8.814,22.119-26.476v-36.288 c0.033-2.827-0.2-5.621-0.666-8.415c-0.465-2.495-1.23-4.922-2.328-7.218c-0.998-2.162-2.361-4.091-4.058-5.754 c-1.83-1.663-3.958-2.927-6.287-3.692c-2.827-0.965-5.787-1.397-8.748-1.364c-2.96-0.033-5.954,0.399-8.748,1.364 c-2.395,0.765-4.523,2.029-6.353,3.692c-1.696,1.63-3.093,3.592-4.058,5.754c-1.064,2.295-1.862,4.723-2.295,7.218 c-0.466,2.794-0.698,5.588-0.665,8.415v36.288C61.5,416.455,68.85,425.27,83.584,425.27z M83.584,419.116 c-9.646,0-14.435-6.22-14.435-18.626v-39.713c0-12.373,4.823-18.56,14.435-18.593c9.646,0,14.469,6.187,14.469,18.593v39.713 C98.053,412.93,93.23,419.149,83.584,419.116L83.584,419.116z M132.611,343.415h15.399c1.563-0.033,3.126,0.266,4.59,0.865 c1.23,0.499,2.295,1.297,3.16,2.295c0.865,1.064,1.53,2.262,1.929,3.526c0.465,1.397,0.832,2.86,0.998,4.324 c0.2,1.663,0.266,3.326,0.266,4.989c0.033,1.996-0.133,3.991-0.465,5.987c-0.3,1.729-0.832,3.426-1.597,5.022 c-0.732,1.563-1.896,2.86-3.393,3.725c-1.696,0.932-3.592,1.364-5.555,1.297h-15.4v-32.03H132.611z M132.611,423.906v-42.275h14.568 l12.639,42.308h8.149L154.563,380.7c8.049-2.96,12.073-9.945,12.073-20.988c0-2.328-0.133-4.657-0.465-6.985 c-0.333-2.095-0.898-4.158-1.729-6.087c-0.765-1.862-1.896-3.525-3.293-4.922c-1.53-1.43-3.359-2.528-5.355-3.193 c-2.461-0.832-5.089-1.264-7.717-1.198h-23.116v86.645L132.611,423.906L132.611,423.906z M203.39,423.906v-26.875l18.327-59.77 H214.2c-1.962,6.985-4.324,15.233-7.151,24.779s-5.289,18.26-7.45,26.143l-1.198-3.991c-0.798-2.694-1.829-6.12-3.093-10.311 c-1.264-4.191-2.561-8.548-3.891-13.038c-1.331-4.523-2.661-8.98-3.925-13.404c-1.264-4.39-2.262-7.816-2.927-10.211h-7.75 l18.925,59.77v26.875L203.39,423.906L203.39,423.906z M288.638,423.906l6.453-41.876l3.227-25.777l3.226,25.777l6.453,41.876H320.9 l16.099-90.204h-12.872l-6.485,41.875l-3.26,25.778l-3.16-25.778l-6.485-41.875h-12.905l-6.453,41.875l-3.16,25.778l-3.26-25.778 l-6.453-41.875h-12.905l16.098,90.204H288.638L288.638,423.906z M363.641,423.906v-90.204h-12.904v90.204H363.641L363.641,423.906z M419.054,423.906v-9.646h-22.551v-80.558h-12.905v90.204H419.054L419.054,423.906z M471.174,419.216 c4.19-4.024,6.452-9.679,6.12-15.499c-0.101-9.879-4.89-19.125-12.905-24.913l-16.132-12.872c-4.058-2.96-6.453-7.716-6.42-12.739 c-0.166-2.661,0.732-5.255,2.528-7.218c1.929-1.829,4.523-2.761,7.151-2.594c3.359-0.233,6.618,1.164,8.78,3.692 c2.162,2.86,3.492,6.286,3.858,9.845c0.133,1.131,0.233,1.996,0.267,2.561l12.905-3.226c-0.134-1.231-0.267-2.229-0.366-2.927 c-0.665-5.887-3.492-11.309-7.982-15.167c-4.989-3.792-11.176-5.688-17.462-5.355c-6.021-0.299-11.94,1.83-16.397,5.887 c-4.225,4.158-6.486,9.945-6.187,15.866c-0.067,4.224,0.831,8.415,2.627,12.207c1.663,3.459,4.091,6.453,7.085,8.848l16.098,12.905 c1.497,1.198,2.694,2.229,3.56,3.06c1.064,1.031,2.028,2.129,2.927,3.26c1.064,1.33,1.862,2.86,2.395,4.49 c0.532,1.729,0.799,3.525,0.799,5.321c0.665,4.657-2.595,9.014-7.251,9.68c-0.799,0.1-1.597,0.1-2.428,0 c-7.95,0-12.24-6.453-12.905-19.325l-12.905,3.227c0.066,7.151,2.627,14.036,7.184,19.524c4.856,4.989,11.642,7.616,18.593,7.15 C460.729,425.17,466.617,423.141,471.174,419.216L471.174,419.216z M527.783,422.742c3.094-1.265,5.754-3.393,7.717-6.087 c1.996-2.827,3.426-5.987,4.19-9.38c0.932-4.058,1.397-8.216,1.331-12.373v-32.729c0-9.546-1.963-16.83-5.854-21.853 c-3.857-4.989-10.211-7.517-18.991-7.517c-3.958-0.1-7.916,0.565-11.642,1.962c-3.093,1.197-5.754,3.227-7.717,5.854 c-1.995,2.761-3.393,5.887-4.19,9.18c-0.932,4.058-1.364,8.215-1.297,12.373v32.729c-0.067,4.191,0.365,8.382,1.297,12.473 c0.765,3.359,2.195,6.52,4.19,9.347c1.963,2.694,4.656,4.789,7.717,6.054c3.692,1.463,7.65,2.161,11.642,2.062 C520.167,424.937,524.092,424.205,527.783,422.742z M504.168,398.129V358.98c-0.266-4.091,0.632-8.149,2.562-11.741 c5.222-5.156,13.604-5.156,18.825,0c1.963,3.592,2.86,7.65,2.562,11.741v39.182c0.266,4.157-0.632,8.349-2.595,12.04 c-4.855,5.188-12.972,5.455-18.16,0.632l0,0c-0.232-0.199-0.433-0.398-0.632-0.632C504.8,406.478,503.902,402.319,504.168,398.129 L504.168,398.129z M571.389,423.906v-60.003l23.05,60.003h9.18v-90.204h-12.905v55.779l-22.551-55.779h-9.679v90.204H571.389 L571.389,423.906z"></path> <g> <path fill="#C8CFD7" d="M15.533,434.482c6.187,0,11.209,3.326,13.072,9.014h-6.419c-1.331-2.66-3.725-3.991-6.719-3.991 c-4.856,0-8.349,3.56-8.349,9.214c0,5.621,3.459,9.213,8.349,9.213c2.994,0,5.388-1.33,6.719-4.024h6.419 c-1.863,5.754-6.885,9.014-13.072,9.014c-8.016,0-14.136-5.854-14.136-14.202C1.397,440.403,7.484,434.482,15.533,434.482z"></path> <path fill="#C8CFD7" d="M46.698,434.849c6.719,0,10.045,3.858,10.045,8.548c0,3.393-1.863,6.818-6.353,8.016l6.652,11.276H50.59 l-6.153-10.844h-2.627v10.844h-5.555v-27.84H46.698z M46.499,439.472h-4.656v8.183h4.656c3.126,0,4.523-1.63,4.523-4.158 C50.989,441.035,49.592,439.472,46.499,439.472z"></path> <path fill="#C8CFD7" d="M64.659,434.849h5.588v27.84h-5.588V434.849z"></path> <path fill="#C8CFD7" d="M78.595,434.849h6.353l8.847,20.688l8.848-20.688h6.319v27.84h-5.587v-18.128l-7.451,18.128H91.7 l-7.484-18.128v18.128h-5.587v-27.84H78.595z"></path> <path fill="#C8CFD7" d="M117.311,434.849h5.588v27.84h-5.588V434.849z"></path> <path fill="#C8CFD7" d="M155.062,434.815v27.873h-5.588l-12.639-19.125v19.125h-5.588v-27.873h5.588l12.639,19.158v-19.158H155.062 z"></path> <path fill="#C8CFD7" d="M180.474,457.399h-11.076l-1.829,5.289h-5.854l10.012-27.873h6.486l10.011,27.873h-5.92L180.474,457.399z M174.919,441.268l-4.024,11.642h8.049L174.919,441.268z"></path> <path fill="#C8CFD7" d="M200.397,434.849v23.416h9.18v4.424h-14.768v-27.84H200.397z"></path> <path fill="#C8CFD7" d="M252.716,448.818c0,8.415-5.788,13.87-14.668,13.87h-9.745v-27.84h9.745 C246.929,434.849,252.716,440.37,252.716,448.818z M237.815,457.965c5.854,0,9.18-3.359,9.18-9.146s-3.326-9.247-9.18-9.247h-3.958 v18.394H237.815z"></path> <path fill="#C8CFD7" d="M275.899,439.372h-10.577v6.985h9.38v4.423h-9.38v7.385h10.577v4.557h-16.165v-27.873h16.165V439.372z"></path> <path fill="#C8CFD7" d="M283.815,434.849h17.196v4.49h-11.608v7.151h8.881v4.424h-8.881v11.774h-5.588V434.849z"></path> <path fill="#C8CFD7" d="M323.961,439.372h-10.577v6.985h9.38v4.423h-9.38v7.385h10.577v4.557h-16.165v-27.873h16.165V439.372z"></path> <path fill="#C8CFD7" d="M355.691,434.815v27.873h-5.588l-12.639-19.125v19.125h-5.588v-27.873h5.588l12.639,19.158v-19.158H355.691 z"></path> <path fill="#C8CFD7" d="M376.813,434.482c6.187,0,11.209,3.326,13.071,9.014h-6.419c-1.331-2.66-3.726-3.991-6.686-3.991 c-4.856,0-8.349,3.56-8.349,9.214c0,5.621,3.459,9.213,8.349,9.213c2.993,0,5.388-1.33,6.686-4.024h6.419 c-1.862,5.754-6.918,9.014-13.071,9.014c-8.016,0-14.136-5.854-14.136-14.202C362.677,440.403,368.797,434.482,376.813,434.482z"></path> <path fill="#C8CFD7" d="M413.698,439.372h-10.576v6.985h9.379v4.423h-9.379v7.385h10.576v4.557h-16.164v-27.873h16.164V439.372z"></path> <path fill="#C8CFD7" d="M439.509,434.849v23.416h9.181v4.424h-14.769v-27.84H439.509z"></path> <path fill="#C8CFD7" d="M472.171,457.399h-11.075l-1.83,5.289h-5.854l10.012-27.873h6.52l10.011,27.873h-5.887L472.171,457.399z M466.617,441.268l-4.025,11.642h8.05L466.617,441.268z"></path> <path fill="#C8CFD7" d="M484.611,434.849h5.986l4.923,21.62l5.654-21.62h6.22l5.355,21.486l4.955-21.486h6.021l-7.783,27.84h-6.585 l-5.223-19.824l-5.454,19.824l-6.553,0.033L484.611,434.849z"></path> <path fill="#C8CFD7" d="M527.883,434.849h6.32l5.986,12.739l5.954-12.739h6.22l-9.413,18.16v9.68h-5.588v-9.68L527.883,434.849z"></path> <path fill="#C8CFD7" d="M574.582,439.372h-10.577v6.985h9.379v4.423h-9.379v7.385h10.577v4.557h-16.165v-27.873h16.165V439.372z"></path> <path fill="#C8CFD7" d="M592.941,434.849c6.686,0,10.045,3.858,10.045,8.548c0,3.393-1.862,6.818-6.353,8.016l6.652,11.276h-6.453 l-6.153-10.844h-2.628v10.844h-5.587v-27.84H592.941z M592.742,439.472h-4.656v8.183h4.656c3.126,0,4.49-1.63,4.49-4.158 C597.232,441.035,595.835,439.472,592.742,439.472z"></path> </g> </svg>