<svg xmlns="http://www.w3.org/2000/svg" id="Layer_1" data-name="Layer 1" viewBox="0 0 643.4 171.7"><defs><style>      .cls-1 {        fill: #5c7fc0;      }      .cls-1, .cls-2, .cls-3, .cls-4, .cls-5 {        stroke-width: 0px;      }      .cls-2 {        fill: #2bb04b;      }      .cls-3 {        fill: #000;      }      .cls-4 {        fill: #7555a3;      }      .cls-5 {        fill: #f16924;      }    </style></defs><g><g><path class="cls-3" d="M237,38.9c0,3.8-1.1,6.8-3.2,9-2.1,2.1-5.2,3.2-9.1,3.2s-7.1-1.1-9.3-3.3-3.3-5.3-3.3-9.2V11.4h-3.4v27.2c0,4.9,1.4,8.8,4.1,11.5,2.8,2.7,6.6,4.1,11.5,4.1s9-1.4,11.8-4.1c2.8-2.7,4.2-6.6,4.2-11.4V11.4h-3.4v27.6Z"></path><path class="cls-3" d="M262.8,21.5c-4.6,0-8,1.6-10.2,4.8l-.5-4.2h-2.9v45.6h3.3v-12.1c0-1.7,0-3.2-.1-4.6v-1.8c2.2,3.3,5.7,5,10.3,5s7.3-1.4,9.7-4.3c2.3-2.8,3.5-6.9,3.5-12s-1.1-9.4-3.4-12.2c-2.2-2.8-5.5-4.2-9.8-4.2ZM262.8,24.5c6.5,0,9.6,4.4,9.6,13.4s-.9,7.5-2.6,9.8c-1.7,2.3-4.1,3.4-7.2,3.4s-6.2-1-7.8-3c-1.6-2-2.4-5.5-2.4-10.2v-.9c0-4.4.8-7.6,2.5-9.6,1.6-1.9,4.3-2.9,7.8-2.9Z"></path><path class="cls-3" d="M291.1,51.2c-1.7,0-2.9-.5-3.7-1.6-.8-1.1-1.2-2.8-1.2-5.1v-19.4h9.1v-3h-9.1v-7.5h-1.9l-1.4,7.1-4.6,1.3v2.1h4.6v19.8c0,3.2.7,5.6,2,7.1,1.3,1.5,3.5,2.3,6.3,2.3s3.4-.2,4.8-.7h.2v-2.8h-.3c-1.3.4-2.9.5-4.6.5Z"></path><rect class="cls-3" x="301.4" y="22.1" width="3.3" height="31.5"></rect><path class="cls-3" d="M303.1,10.7c-.9,0-2,.5-2,3s1.1,3,2,3,1.2-.3,1.6-.9c.4-.5.5-1.3.5-2.2s-.2-1.7-.5-2.2c-.4-.5-.9-.8-1.6-.8Z"></path><path class="cls-3" d="M344.9,21.5c-2.2,0-4.2.5-5.9,1.5-1.6.9-3,2.2-4,3.9-1.5-3.5-4.7-5.3-9.5-5.3s-3.7.4-5.3,1.3c-1.5.8-2.7,1.9-3.5,3.3l-.6-4h-2.8v31.5h3.3v-17.4c0-4.1.7-7.1,2.2-8.9,1.4-1.8,3.8-2.7,6.9-2.7,4.7,0,6.9,2.5,6.9,7.6v21.5h3.4v-18.4c0-3.7.7-6.4,2.2-8.1,1.5-1.7,3.8-2.5,6.9-2.5s4.1.7,5.2,2c1.1,1.3,1.7,3.5,1.7,6.5v20.6h3.3v-20.6c0-4-.9-6.9-2.6-8.8-1.7-1.9-4.4-2.8-7.8-2.8Z"></path><path class="cls-3" d="M387.7,35.9c0-4.4-1.1-8-3.2-10.6-2.2-2.6-5.1-3.9-8.8-3.9s-7.6,1.5-10,4.6c-2.5,3-3.7,7.1-3.7,12.1s1.3,9,3.8,11.9c2.6,2.8,6.2,4.3,10.7,4.3s3.5-.1,5-.4c1.5-.3,3.1-.8,4.9-1.6h.2v-3.2h-.3c-2,.9-3.7,1.5-5.1,1.7-1.3.2-2.9.4-4.6.4-3.5,0-6.3-1.1-8.2-3.3-1.9-2.1-2.8-5.3-2.9-9.4h22.4v-2.5ZM375.6,24.5c2.7,0,4.8,1,6.3,2.9,1.5,1.9,2.3,4.6,2.3,8h-18.7c.3-3.5,1.4-6.2,3.1-8.1,1.8-1.9,4.1-2.9,7-2.9Z"></path></g><g><path class="cls-3" d="M210.9,167.7c-3.1,0-5.7-.4-7.8-1.2v-9.6c2.7.7,5,1,7,1,6.3,0,9.4-4,9.4-11.9v-67.8h11.5v67.4c0,7.1-1.7,12.6-5.1,16.4-3.4,3.8-8.4,5.7-14.9,5.7Z"></path><path class="cls-3" d="M285.2,148.2l-1.6-6.9h-.6c-1.6,2.5-3.8,4.4-6.7,5.8-2.9,1.4-6.2,2.1-9.9,2.1-6.4,0-11.2-1.6-14.4-4.8-3.2-3.2-4.7-8-4.7-14.5v-34.6h11.3v32.6c0,4.1.8,7.1,2.5,9.1,1.7,2,4.3,3,7.8,3s8.2-1.4,10.4-4.2c2.2-2.8,3.3-7.6,3.3-14.2v-26.4h11.3v52.9h-8.9Z"></path><path class="cls-3" d="M337.1,94.3c2.3,0,4.1.2,5.6.5l-1.1,10.5c-1.6-.4-3.3-.6-5-.6-4.5,0-8.1,1.5-10.9,4.4-2.8,2.9-4.2,6.7-4.2,11.4v27.7h-11.2v-52.9h8.8l1.5,9.3h.6c1.8-3.2,4-5.7,6.9-7.5,2.8-1.8,5.9-2.8,9.1-2.8Z"></path><path class="cls-3" d="M351.9,81.3c0-2,.6-3.6,1.7-4.6,1.1-1.1,2.7-1.6,4.7-1.6s3.5.5,4.6,1.6c1.1,1.1,1.7,2.6,1.7,4.6s-.6,3.4-1.7,4.5c-1.1,1.1-2.6,1.7-4.6,1.7s-3.6-.6-4.7-1.7c-1.1-1.1-1.7-2.6-1.7-4.5ZM363.8,148.2h-11.2v-52.9h11.2v52.9Z"></path><path class="cls-3" d="M415.5,133.1c0,5.2-1.9,9.1-5.6,11.9-3.8,2.8-9.2,4.1-16.2,4.1s-12.7-1.1-17-3.2v-9.7c6.2,2.9,12,4.3,17.4,4.3s10.4-2.1,10.4-6.3-.4-2.5-1.1-3.3c-.8-.9-2-1.8-3.8-2.8-1.8-1-4.2-2-7.3-3.3-6.1-2.4-10.2-4.7-12.4-7.1-2.2-2.4-3.2-5.4-3.2-9.2s1.8-8,5.5-10.6c3.7-2.5,8.6-3.8,14.9-3.8s12.1,1.3,17.7,3.8l-3.6,8.5c-5.7-2.4-10.5-3.5-14.4-3.5-5.9,0-8.9,1.7-8.9,5.1s.8,3.1,2.3,4.2c1.5,1.1,4.9,2.7,10.1,4.7,4.4,1.7,7.5,3.2,9.5,4.6,2,1.4,3.4,3,4.4,4.9,1,1.8,1.4,4,1.4,6.6Z"></path><path class="cls-3" d="M475.3,99.4c0,7.3-2.4,12.9-7.2,16.8-4.8,3.9-11.6,5.8-20.4,5.8h-7.3v26.2h-11.4v-70h20.1c8.7,0,15.3,1.8,19.6,5.4,4.4,3.6,6.5,8.8,6.5,15.8ZM440.4,112.4h6.1c5.9,0,10.2-1,12.9-3.1,2.7-2,4.1-5.2,4.1-9.6s-1.2-7-3.7-9c-2.5-2-6.3-3-11.5-3h-7.9v24.6Z"></path><path class="cls-3" d="M521.3,148.2l-2.2-7.4h-.4c-2.6,3.2-5.1,5.4-7.7,6.6-2.6,1.2-5.9,1.7-10,1.7s-9.3-1.4-12.2-4.2c-2.9-2.8-4.4-6.8-4.4-11.9s2-9.6,6.1-12.3c4.1-2.8,10.2-4.3,18.5-4.5l9.1-.3v-2.8c0-3.4-.8-5.9-2.4-7.6-1.6-1.7-4-2.5-7.3-2.5s-5.3.4-7.8,1.2c-2.5.8-4.9,1.7-7.2,2.8l-3.6-8c2.9-1.5,6-2.6,9.4-3.4,3.4-.8,6.6-1.2,9.7-1.2,6.7,0,11.8,1.5,15.2,4.4,3.4,2.9,5.1,7.5,5.1,13.8v35.6h-8ZM504.6,140.5c4.1,0,7.4-1.1,9.8-3.4,2.5-2.3,3.7-5.5,3.7-9.6v-4.6l-6.8.3c-5.3.2-9.1,1.1-11.6,2.7-2.4,1.6-3.6,4-3.6,7.2s.7,4.2,2.1,5.5c1.4,1.3,3.5,1.9,6.3,1.9Z"></path><path class="cls-3" d="M589.8,95.3v6.2l-9,1.7c.8,1.1,1.5,2.5,2.1,4.1.5,1.6.8,3.3.8,5.2,0,5.5-1.9,9.7-5.6,12.9-3.8,3.1-8.9,4.7-15.6,4.7s-3.2-.1-4.6-.4c-2.4,1.5-3.6,3.3-3.6,5.3s.6,2.1,1.7,2.7c1.1.6,3.2.9,6.2.9h9.2c5.8,0,10.3,1.2,13.3,3.7,3,2.5,4.5,6.1,4.5,10.8s-2.5,10.6-7.4,13.9c-4.9,3.3-12.1,4.9-21.4,4.9s-12.7-1.3-16.5-3.8c-3.8-2.6-5.7-6.2-5.7-10.9s1-6,3.1-8.2c2.1-2.2,4.9-3.8,8.6-4.6-1.5-.6-2.7-1.7-3.7-3.1-1-1.4-1.5-2.9-1.5-4.5s.6-3.7,1.7-5c1.1-1.4,2.8-2.7,5-4.1-2.7-1.2-5-3.1-6.7-5.8-1.7-2.7-2.6-5.8-2.6-9.4,0-5.7,1.8-10.2,5.4-13.4,3.6-3.2,8.8-4.7,15.5-4.7s3.1.1,4.7.3c1.6.2,2.9.4,3.7.6h18.3ZM548.2,156.4c0,2.4,1.1,4.3,3.3,5.6,2.2,1.3,5.3,2,9.2,2,6.1,0,10.7-.9,13.7-2.6,3-1.8,4.5-4.1,4.5-7s-.8-3.9-2.5-4.9c-1.6-1-4.7-1.5-9.2-1.5h-8.5c-3.2,0-5.8.8-7.7,2.3-1.9,1.5-2.8,3.6-2.8,6.1ZM553.1,112.4c0,3.3.9,5.9,2.6,7.7,1.7,1.8,4.2,2.7,7.3,2.7,6.5,0,9.8-3.5,9.8-10.4s-.8-6.1-2.4-8c-1.6-1.9-4.1-2.8-7.3-2.8s-5.7.9-7.4,2.8c-1.7,1.9-2.5,4.5-2.5,8.1Z"></path><path class="cls-3" d="M622.8,149.2c-8.2,0-14.7-2.4-19.3-7.2-4.6-4.8-7-11.4-7-19.8s2.2-15.4,6.5-20.4c4.3-4.9,10.2-7.4,17.8-7.4s12.5,2.1,16.6,6.4c4.1,4.2,6.1,10.1,6.1,17.5v6.1h-35.3c.2,5.1,1.5,9.1,4.2,11.8,2.6,2.8,6.3,4.1,11.1,4.1s6-.3,8.7-.9c2.7-.6,5.6-1.6,8.7-2.9v9.1c-2.7,1.3-5.5,2.2-8.3,2.8-2.8.5-6,.8-9.6.8ZM620.8,102.8c-3.6,0-6.4,1.1-8.6,3.4-2.2,2.3-3.4,5.6-3.9,9.9h24c0-4.4-1.1-7.7-3.2-9.9-2-2.2-4.8-3.4-8.4-3.4Z"></path></g></g><g><polygon class="cls-1" points="65.5 0 0 0 0 65.5 27 65.5 27 27 65.5 27 65.5 0"></polygon><polygon class="cls-5" points="159.6 65.5 159.6 0 94.1 0 94.1 27 132.6 27 132.6 65.5 159.6 65.5"></polygon><polygon class="cls-4" points="0 94.1 0 159.6 65.5 159.6 65.5 132.6 27 132.6 27 94.1 0 94.1"></polygon><polygon class="cls-2" points="94.1 159.6 159.6 159.6 159.6 94.1 132.6 94.1 132.6 132.6 94.1 132.6 94.1 159.6"></polygon></g></svg>