<svg width="1020" height="186" viewBox="0 0 1020 186" fill="none" xmlns="http://www.w3.org/2000/svg">
<path d="M986.714 89.0293V91.708H977.335V120.081H974.386V91.708H965.5V89.0293H986.714ZM995.736 88.5L1000.56 103.392L1000.57 103.408L1000.57 103.424C1002.04 107.068 1003.02 110.71 1003.5 113.823L1004.48 113.896C1005.46 110.737 1006.45 107.056 1007.44 103.388L1012.74 88.5H1016.86L1018.77 119.551H1015.85V106.39C1015.85 104.273 1015.73 101.764 1015.6 99.3369C1015.48 96.9016 1015.36 94.5518 1015.36 92.7285L1014.38 92.5996C1013.39 96.2547 1011.92 100.438 1010.44 104.646L1005.13 119.551H1002.88L998.056 104.659C996.579 99.945 995.597 96.2794 994.612 92.0889L993.625 92.2031C993.625 94.2894 993.502 96.6401 993.379 99.0742C993.256 101.494 993.133 103.993 993.132 106.364L992.179 119.551H989.721L991.633 88.5H995.736Z" fill="white" stroke="white"/>
<path d="M221.28 139.507C215.985 139.507 211.872 139.113 208.943 138.324V125.649C211.647 126.1 214.238 126.325 216.717 126.325C220.773 126.325 223.702 125.593 225.505 124.128C227.42 122.551 228.603 120.748 229.054 118.72C229.505 116.579 229.73 113.875 229.73 110.608V20.7H247.137V115.171C247.137 121.593 245.447 127.283 242.067 132.24C238.8 137.085 231.871 139.507 221.28 139.507ZM350.994 139H333.418V122.945H332.235C329.982 127.902 326.489 132.071 321.757 135.451C317.025 138.831 311.279 140.521 304.519 140.521C296.858 140.521 290.605 138.718 285.76 135.113C281.028 131.395 277.592 126.719 275.451 121.086C273.31 115.34 272.24 109.312 272.24 103.003V49.937H289.647V100.468C289.647 108.355 291.619 114.495 295.562 118.889C299.505 123.283 304.744 125.48 311.279 125.48C318.152 125.48 323.56 123.17 327.503 118.551C331.446 113.819 333.418 107.791 333.418 100.468V49.937H350.994V139ZM373.075 49.937H390.482V64.133H391.496C392.961 60.1897 395.552 56.866 399.27 54.162C403.101 51.3453 408.002 49.937 413.973 49.937C415.55 49.937 416.902 49.9933 418.029 50.106C419.156 50.2187 420.282 50.5003 421.409 50.951L420.733 67.513C417.691 66.6117 414.536 66.161 411.269 66.161C404.622 66.161 399.495 68.0763 395.89 71.907C392.285 75.625 390.482 81.8217 390.482 90.497V139H373.075V49.937ZM439.134 49.937H456.541V139H439.134V49.937ZM447.753 33.713C444.711 33.713 442.176 32.699 440.148 30.671C438.12 28.643 437.106 26.108 437.106 23.066C437.106 20.024 438.12 17.489 440.148 15.461C442.176 13.433 444.711 12.419 447.753 12.419C450.795 12.419 453.33 13.4893 455.358 15.63C457.386 17.658 458.4 20.1367 458.4 23.066C458.4 25.9953 457.386 28.5303 455.358 30.671C453.33 32.699 450.795 33.713 447.753 33.713ZM512.775 140.183C505.451 140.183 499.142 138.775 493.847 135.958C488.551 133.141 484.495 129.48 481.679 124.973C478.862 120.354 477.454 115.565 477.454 110.608V109.763H494.692V110.439C494.692 114.495 496.325 118.157 499.593 121.424C502.86 124.579 507.423 126.156 513.282 126.156C518.126 126.156 522.126 124.973 525.281 122.607C528.435 120.241 530.013 117.03 530.013 112.974C530.013 109.481 528.773 106.777 526.295 104.862C523.816 102.834 520.661 101.482 516.831 100.806L505.677 99.116C498.466 97.9893 492.326 95.4543 487.256 91.511C482.186 87.455 479.651 81.5963 479.651 73.935C479.651 65.5977 482.636 59.1193 488.608 54.5C494.579 49.8807 502.297 47.571 511.761 47.571C518.633 47.571 524.605 48.8667 529.675 51.458C534.745 53.9367 538.575 57.2603 541.167 61.429C543.758 65.5977 545.054 70.1043 545.054 74.949V75.625H527.816V75.287C527.816 71.907 526.464 68.6397 523.76 65.485C521.056 62.3303 516.887 60.753 511.254 60.753C506.522 60.753 502.691 61.936 499.762 64.302C496.832 66.668 495.368 69.7663 495.368 73.597C495.368 76.8643 496.607 79.512 499.086 81.54C501.564 83.568 504.663 84.8637 508.381 85.427L520.549 87.624C527.985 88.976 534.181 91.6237 539.139 95.567C544.209 99.5103 546.744 105.256 546.744 112.805C546.744 118.213 545.279 123.001 542.35 127.17C539.42 131.339 535.364 134.55 530.182 136.803C524.999 139.056 519.197 140.183 512.775 140.183ZM606.082 20.7C615.772 20.7 623.658 22.6153 629.742 26.446C635.826 30.2767 640.164 35.065 642.755 40.811C645.347 46.557 646.642 52.5847 646.642 58.894C646.642 65.2033 645.347 71.231 642.755 76.977C640.164 82.723 635.826 87.5113 629.742 91.342C623.771 95.06 615.884 96.919 606.082 96.919H578.366V139H567.043V20.7H606.082ZM604.899 86.61C613.462 86.61 620.673 84.5257 626.531 80.357C632.39 76.1883 635.319 69.034 635.319 58.894C635.319 48.8667 632.39 41.7687 626.531 37.6C620.673 33.4313 613.462 31.347 604.899 31.347H578.366V86.61H604.899ZM698.692 140.014C690.805 140.014 683.989 137.986 678.243 133.93C672.609 129.874 668.272 124.353 665.23 117.368C662.3 110.383 660.836 102.552 660.836 93.877C660.836 85.089 662.3 77.2023 665.23 70.217C668.272 63.119 672.666 57.542 678.412 53.486C684.27 49.43 691.256 47.402 699.368 47.402C707.367 47.402 713.845 49.3737 718.803 53.317C723.873 57.1477 727.76 61.8233 730.464 67.344H731.647V50.106H743.308V139H731.647V119.734H730.464C727.534 125.48 723.478 130.325 718.296 134.268C713.226 138.099 706.691 140.014 698.692 140.014ZM701.903 129.705C711.367 129.705 718.577 126.325 723.535 119.565C728.605 112.692 731.14 104.073 731.14 93.708C731.14 83.3427 728.605 74.78 723.535 68.02C718.577 61.26 711.367 57.88 701.903 57.88C692.326 57.88 685.059 61.3163 680.102 68.189C675.257 74.949 672.835 83.4553 672.835 93.708C672.835 104.073 675.313 112.692 680.271 119.565C685.228 126.325 692.439 129.705 701.903 129.705ZM809.088 173.983C803.906 173.983 799.117 173.194 794.723 171.617V161.646C796.075 162.097 797.991 162.491 800.469 162.829C802.948 163.167 805.483 163.336 808.074 163.336C817.2 163.336 824.186 160.801 829.03 155.731C833.875 150.661 836.297 143.732 836.297 134.944V117.368H834.945C832.354 123.114 828.354 127.846 822.946 131.564C817.538 135.282 811.06 137.141 803.511 137.141C796.075 137.141 789.484 135.226 783.738 131.395C777.992 127.564 773.486 122.269 770.218 115.509C767.064 108.636 765.486 100.862 765.486 92.187C765.486 83.5117 767.007 75.794 770.049 69.034C773.204 62.1613 777.654 56.8097 783.4 52.979C789.146 49.1483 795.794 47.233 803.342 47.233C811.229 47.233 817.876 49.261 823.284 53.317C828.805 57.373 832.748 62.3303 835.114 68.189H836.297V50.275H847.958V134.944C847.958 141.366 846.606 147.563 843.902 153.534C841.198 159.505 836.917 164.406 831.058 168.237C825.312 172.068 817.989 173.983 809.088 173.983ZM806.891 126.832C813.088 126.832 818.383 125.255 822.777 122.1C827.171 118.833 830.439 114.551 832.579 109.256C834.833 103.961 835.959 98.1583 835.959 91.849C835.959 85.765 834.833 80.1317 832.579 74.949C830.439 69.6537 827.171 65.4287 822.777 62.274C818.496 59.1193 813.201 57.542 806.891 57.542C800.582 57.542 795.23 59.1193 790.836 62.274C786.555 65.4287 783.288 69.6537 781.034 74.949C778.894 80.1317 777.823 85.765 777.823 91.849C777.823 98.1583 778.894 103.961 781.034 109.256C783.288 114.551 786.555 118.833 790.836 122.1C795.23 125.255 800.582 126.832 806.891 126.832ZM912.843 140.014C903.829 140.014 896.224 137.817 890.028 133.423C883.831 129.029 879.212 123.283 876.17 116.185C873.128 109.087 871.607 101.595 871.607 93.708C871.607 85.8213 873.128 78.329 876.17 71.231C879.212 64.133 883.831 58.387 890.028 53.993C896.224 49.599 903.829 47.402 912.843 47.402C924.673 47.402 934.137 51.4017 941.235 59.401C948.333 67.4003 951.882 78.9487 951.882 94.046V97.257H883.268V98.44C883.268 103.848 884.451 109.031 886.817 113.988C889.295 118.833 892.788 122.72 897.295 125.649C901.801 128.578 906.928 130.043 912.674 130.043C918.983 130.043 924.391 128.466 928.898 125.311C933.404 122.044 936.784 117.65 939.038 112.129H950.53C948.051 120.128 943.657 126.776 937.348 132.071C931.038 137.366 922.87 140.014 912.843 140.014ZM940.221 88.638C939.77 77.484 937.066 69.4283 932.109 64.471C927.151 59.5137 920.729 57.035 912.843 57.035C904.055 57.035 897.069 59.9643 891.887 65.823C886.817 71.6817 884.056 79.2867 883.606 88.638H940.221Z" fill="white"/>
<path d="M402.256 169.48H391.664L388.72 177H387.6L396.336 154.6H397.456L406.352 177H405.232L402.256 169.48ZM401.84 168.456L396.944 156.104H396.88L392.048 168.456H401.84ZM418.801 177.096C418.118 177.096 417.563 177.032 417.137 176.904V176.008C417.606 176.115 418.129 176.168 418.705 176.168C419.515 176.168 420.113 176.019 420.497 175.72C420.902 175.4 421.147 175.037 421.233 174.632C421.339 174.205 421.393 173.683 421.393 173.064V154.6H422.417L422.449 173.064C422.449 174.28 422.193 175.261 421.681 176.008C421.169 176.733 420.209 177.096 418.801 177.096ZM436.757 177.288C433.749 177.288 431.563 176.36 430.197 174.504C428.853 172.627 428.181 170.152 428.181 167.08V154.6H429.237V167.208C429.237 169.235 429.696 171.24 430.613 173.224C431.552 175.208 433.6 176.2 436.757 176.2C439.851 176.2 441.856 175.219 442.773 173.256C443.691 171.293 444.149 169.277 444.149 167.208V154.6H445.205V167.08C445.205 170.173 444.533 172.648 443.189 174.504C441.845 176.36 439.701 177.288 436.757 177.288ZM464.969 160.904C464.969 162.504 464.436 163.933 463.369 165.192C462.302 166.451 460.521 167.133 458.025 167.24L464.937 177H463.529L456.681 167.24H451.657V177H450.569V154.6H457.513C459.369 154.6 460.852 154.931 461.961 155.592C463.07 156.232 463.849 157.032 464.297 157.992C464.745 158.931 464.969 159.901 464.969 160.904ZM451.657 166.152H457.513C459.284 166.152 460.788 165.757 462.025 164.968C463.284 164.179 463.913 162.824 463.913 160.904C463.913 159.005 463.284 157.661 462.025 156.872C460.788 156.083 459.284 155.688 457.513 155.688H451.657V166.152ZM470.475 154.6H471.595V177H470.475V154.6ZM484.852 177.224C483.167 177.224 481.738 176.861 480.564 176.136C479.391 175.411 478.516 174.483 477.94 173.352C477.364 172.221 477.076 171.048 477.076 169.832V169.768H478.292V169.864C478.292 170.781 478.506 171.72 478.932 172.68C479.38 173.64 480.095 174.451 481.076 175.112C482.058 175.752 483.316 176.072 484.852 176.072C486.644 176.072 488.138 175.613 489.332 174.696C490.527 173.779 491.124 172.52 491.124 170.92C491.124 169.64 490.708 168.627 489.876 167.88C489.066 167.133 488.01 166.632 486.708 166.376L482.932 165.672C481.738 165.459 480.564 164.979 479.412 164.232C478.26 163.485 477.684 162.141 477.684 160.2C477.684 159.005 477.962 157.949 478.516 157.032C479.092 156.115 479.903 155.4 480.948 154.888C481.994 154.376 483.21 154.12 484.596 154.12C486.175 154.12 487.519 154.451 488.628 155.112C489.759 155.773 490.602 156.627 491.156 157.672C491.711 158.717 491.988 159.805 491.988 160.936V161H490.772V160.936C490.772 160.125 490.58 159.293 490.196 158.44C489.812 157.565 489.151 156.819 488.212 156.2C487.295 155.56 486.09 155.24 484.596 155.24C483.423 155.24 482.399 155.464 481.524 155.912C480.65 156.36 479.978 156.968 479.508 157.736C479.06 158.504 478.836 159.347 478.836 160.264C478.836 161.373 479.178 162.301 479.86 163.048C480.543 163.773 481.546 164.264 482.868 164.52L486.068 165.128C487.69 165.427 489.13 165.981 490.388 166.792C491.647 167.581 492.276 168.936 492.276 170.856C492.276 172.072 491.978 173.16 491.38 174.12C490.783 175.08 489.919 175.837 488.788 176.392C487.658 176.947 486.346 177.224 484.852 177.224ZM504.507 154.6H512.219C514.245 154.6 516.005 155.069 517.499 156.008C519.013 156.925 520.165 158.227 520.955 159.912C521.765 161.597 522.171 163.56 522.171 165.8C522.171 168.04 521.765 170.003 520.955 171.688C520.165 173.373 519.024 174.685 517.531 175.624C516.037 176.541 514.267 177 512.219 177H504.507V154.6ZM512.219 175.912C513.989 175.912 515.547 175.496 516.891 174.664C518.235 173.811 519.269 172.627 519.995 171.112C520.72 169.576 521.083 167.795 521.083 165.768C521.083 163.763 520.72 162.003 519.995 160.488C519.269 158.952 518.235 157.768 516.891 156.936C515.547 156.104 513.989 155.688 512.219 155.688H505.595V175.912H512.219ZM526.725 154.6H527.845V177H526.725V154.6ZM542.525 177.16C540.264 177.16 538.397 176.595 536.925 175.464C535.475 174.312 534.419 172.861 533.757 171.112C533.096 169.363 532.765 167.539 532.765 165.64C532.765 163.741 533.085 161.917 533.725 160.168C534.387 158.419 535.443 156.979 536.893 155.848C538.365 154.696 540.243 154.12 542.525 154.12C545 154.12 546.973 154.771 548.445 156.072C549.939 157.352 550.963 158.941 551.517 160.84H550.333C549.8 159.048 548.872 157.672 547.549 156.712C546.248 155.731 544.573 155.24 542.525 155.24C540.755 155.24 539.219 155.656 537.917 156.488C536.637 157.299 535.645 158.483 534.941 160.04C534.259 161.597 533.917 163.453 533.917 165.608C533.917 167.763 534.269 169.629 534.973 171.208C535.677 172.765 536.669 173.96 537.949 174.792C539.251 175.624 540.776 176.04 542.525 176.04C544.104 176.04 545.491 175.709 546.685 175.048C547.88 174.387 548.808 173.469 549.469 172.296C550.131 171.101 550.483 169.715 550.525 168.136L550.557 166.888H542.749V165.928H551.421V177H550.333V172.872H550.077C549.523 174.067 548.605 175.08 547.325 175.912C546.045 176.744 544.445 177.16 542.525 177.16ZM556.6 154.6H557.72V177H556.6V154.6ZM577.68 155.688H570.544V177H569.456V155.688H562.32V154.6H577.68V155.688ZM593.069 169.48H582.477L579.533 177H578.413L587.149 154.6H588.269L597.165 177H596.045L593.069 169.48ZM592.653 168.456L587.757 156.104H587.693L582.861 168.456H592.653ZM614.014 175.912V177H601.726L601.694 154.6H602.814L602.75 175.912H614.014ZM635.002 177.16C632.954 177.16 631.184 176.691 629.69 175.752C628.197 174.792 627.045 173.448 626.234 171.72C625.445 169.992 625.05 167.965 625.05 165.64C625.05 163.315 625.445 161.288 626.234 159.56C627.045 157.811 628.197 156.467 629.69 155.528C631.205 154.589 632.976 154.12 635.002 154.12C637.434 154.12 639.472 154.792 641.114 156.136C642.757 157.459 643.877 159.304 644.474 161.672H643.322C642.746 159.645 641.722 158.067 640.25 156.936C638.8 155.784 637.05 155.208 635.002 155.208C632.229 155.208 630.074 156.136 628.538 157.992C627.024 159.848 626.266 162.387 626.266 165.608C626.266 168.829 627.024 171.379 628.538 173.256C630.074 175.112 632.229 176.04 635.002 176.04C636.901 176.04 638.544 175.549 639.93 174.568C641.338 173.587 642.373 172.211 643.034 170.44H644.218C643.536 172.552 642.394 174.205 640.794 175.4C639.216 176.573 637.285 177.16 635.002 177.16ZM658.155 177.16C656.107 177.16 654.336 176.691 652.843 175.752C651.349 174.792 650.197 173.448 649.387 171.72C648.597 169.992 648.203 167.965 648.203 165.64C648.203 163.315 648.597 161.288 649.387 159.56C650.197 157.811 651.349 156.467 652.843 155.528C654.357 154.589 656.128 154.12 658.155 154.12C660.181 154.12 661.941 154.589 663.435 155.528C664.928 156.467 666.069 157.811 666.859 159.56C667.669 161.288 668.075 163.315 668.075 165.64C668.075 167.965 667.669 169.992 666.859 171.72C666.069 173.448 664.928 174.792 663.435 175.752C661.941 176.691 660.181 177.16 658.155 177.16ZM658.155 176.04C659.925 176.04 661.472 175.613 662.795 174.76C664.139 173.907 665.173 172.691 665.899 171.112C666.624 169.533 666.987 167.699 666.987 165.608C666.987 163.517 666.624 161.693 665.899 160.136C665.173 158.557 664.139 157.341 662.795 156.488C661.472 155.635 659.925 155.208 658.155 155.208C656.384 155.208 654.827 155.635 653.483 156.488C652.139 157.341 651.104 158.557 650.379 160.136C649.653 161.693 649.291 163.517 649.291 165.608C649.291 167.72 649.653 169.565 650.379 171.144C651.104 172.701 652.139 173.907 653.483 174.76C654.827 175.613 656.384 176.04 658.155 176.04ZM673.007 154.6H674.543L682.895 175.08H683.023L691.375 154.6H692.911V177H691.823V156.776H691.695L683.503 177H682.415L674.223 156.776H674.095V177H673.007V154.6ZM705.888 154.6C707.744 154.6 709.227 154.963 710.336 155.688C711.445 156.392 712.224 157.277 712.672 158.344C713.12 159.389 713.344 160.477 713.344 161.608C713.344 162.739 713.12 163.837 712.672 164.904C712.224 165.949 711.445 166.835 710.336 167.56C709.227 168.264 707.744 168.616 705.888 168.616H699.968V177H698.944V154.6H705.888ZM705.888 167.528C707.68 167.528 709.195 167.08 710.432 166.184C711.669 165.288 712.288 163.763 712.288 161.608C712.288 159.453 711.669 157.928 710.432 157.032C709.195 156.136 707.68 155.688 705.888 155.688H699.968V167.528H705.888ZM729.35 169.48H718.758L715.814 177H714.694L723.43 154.6H724.55L733.446 177H732.326L729.35 169.48ZM728.934 168.456L724.038 156.104H723.974L719.142 168.456H728.934ZM737.975 154.6H739.095L753.943 175.016H754.071V154.6H755.159V177H754.039L739.191 156.584H739.063V177H737.975V154.6ZM766.734 177.032V168.552L759.47 154.6H760.846L767.182 166.856H767.438L773.678 154.6H775.054L767.854 168.552V177L766.734 177.032Z" fill="white"/>
<path fill-rule="evenodd" clip-rule="evenodd" d="M77.5768 37.6155V16H0.46991V37.6155H77.5768ZM21.6155 92.6069V92.5939H0L1.90735e-06 92.6069H21.6155Z" fill="#52DBE3"/>
<path fill-rule="evenodd" clip-rule="evenodd" d="M154.128 92.6069H131.572V92.5939V37.6155H77.5768V16H154.128V92.5939V92.6069Z" fill="#FCB900"/>
<path fill-rule="evenodd" clip-rule="evenodd" d="M1.90735e-06 92.6069H21.6155C21.6188 107.169 27.2573 121.261 37.5921 131.596C47.9299 141.934 62.0269 147.572 76.5939 147.572C76.9218 147.572 77.2494 147.569 77.5768 147.564V169.656C77.406 169.657 77.2349 169.658 77.0638 169.658C34.777 169.658 0.00705338 135.362 1.90735e-06 92.6069Z" fill="#8F56E2"/>
<path fill-rule="evenodd" clip-rule="evenodd" d="M115.596 131.596C125.93 121.261 131.569 107.169 131.572 92.6069H154.128C154.121 134.723 120.094 169.379 77.5768 169.656V147.564C91.7936 147.316 105.491 141.701 115.596 131.596Z" fill="#7FE356"/>
<path fill-rule="evenodd" clip-rule="evenodd" d="M77.5768 37.6155V16H0.46991V37.6155H77.5768ZM21.6155 92.6069V92.5939H0L1.90735e-06 92.6069H21.6155Z" fill="#52DBE3"/>
<path fill-rule="evenodd" clip-rule="evenodd" d="M154.128 92.6069H131.572V92.5939V37.6155H77.5768V16H154.128V92.5939V92.6069Z" fill="#FCB900"/>
<path fill-rule="evenodd" clip-rule="evenodd" d="M1.90735e-06 92.6069H21.6155C21.6188 107.169 27.2573 121.261 37.5921 131.596C47.9299 141.934 62.0269 147.572 76.5939 147.572C76.9218 147.572 77.2494 147.569 77.5768 147.564V169.656C77.406 169.657 77.2349 169.658 77.0638 169.658C34.777 169.658 0.00705338 135.362 1.90735e-06 92.6069Z" fill="#8F56E2"/>
<path fill-rule="evenodd" clip-rule="evenodd" d="M115.596 131.596C125.93 121.261 131.569 107.169 131.572 92.6069H154.128C154.121 134.723 120.094 169.379 77.5768 169.656V147.564C91.7936 147.316 105.491 141.701 115.596 131.596Z" fill="#7FE356"/>
</svg>
