<svg width="1020" height="186" viewBox="0 0 1020 186" fill="none" xmlns="http://www.w3.org/2000/svg">
<path d="M973.886 92.2077H965V88.5298H987.214V92.2077H977.835V120.581H973.886V92.2077Z" fill="#0F1E2D"/>
<path d="M1015.35 106.39C1015.35 102.187 1014.86 96.4069 1014.86 92.7289C1013.87 96.4069 1012.39 100.61 1010.91 104.814L1005.48 120.051H1002.52L997.581 104.814C996.1 100.085 995.113 96.4068 994.125 92.2034C994.125 96.4068 993.632 101.661 993.632 106.39L992.644 120.051H989.189L991.164 88H996.1L1001.04 103.237C1002.52 106.915 1003.5 110.593 1004 113.746C1004.99 110.593 1005.97 106.915 1006.96 103.237L1012.39 88H1017.33L1019.3 120.051H1015.35V106.39Z" fill="#0F1E2D"/>
<path d="M221.28 139.507C215.985 139.507 211.872 139.113 208.943 138.324V125.649C211.647 126.1 214.238 126.325 216.717 126.325C220.773 126.325 223.702 125.593 225.505 124.128C227.42 122.551 228.603 120.748 229.054 118.72C229.505 116.579 229.73 113.875 229.73 110.608V20.7H247.137V115.171C247.137 121.593 245.447 127.283 242.067 132.24C238.8 137.085 231.871 139.507 221.28 139.507ZM350.994 139H333.418V122.945H332.235C329.982 127.902 326.489 132.071 321.757 135.451C317.025 138.831 311.279 140.521 304.519 140.521C296.858 140.521 290.605 138.718 285.76 135.113C281.028 131.395 277.592 126.719 275.451 121.086C273.31 115.34 272.24 109.312 272.24 103.003V49.937H289.647V100.468C289.647 108.355 291.619 114.495 295.562 118.889C299.505 123.283 304.744 125.48 311.279 125.48C318.152 125.48 323.56 123.17 327.503 118.551C331.446 113.819 333.418 107.791 333.418 100.468V49.937H350.994V139ZM373.075 49.937H390.482V64.133H391.496C392.961 60.1897 395.552 56.866 399.27 54.162C403.101 51.3453 408.002 49.937 413.973 49.937C415.55 49.937 416.902 49.9933 418.029 50.106C419.156 50.2187 420.282 50.5003 421.409 50.951L420.733 67.513C417.691 66.6117 414.536 66.161 411.269 66.161C404.622 66.161 399.495 68.0763 395.89 71.907C392.285 75.625 390.482 81.8217 390.482 90.497V139H373.075V49.937ZM439.134 49.937H456.541V139H439.134V49.937ZM447.753 33.713C444.711 33.713 442.176 32.699 440.148 30.671C438.12 28.643 437.106 26.108 437.106 23.066C437.106 20.024 438.12 17.489 440.148 15.461C442.176 13.433 444.711 12.419 447.753 12.419C450.795 12.419 453.33 13.4893 455.358 15.63C457.386 17.658 458.4 20.1367 458.4 23.066C458.4 25.9953 457.386 28.5303 455.358 30.671C453.33 32.699 450.795 33.713 447.753 33.713ZM512.775 140.183C505.451 140.183 499.142 138.775 493.847 135.958C488.551 133.141 484.495 129.48 481.679 124.973C478.862 120.354 477.454 115.565 477.454 110.608V109.763H494.692V110.439C494.692 114.495 496.325 118.157 499.593 121.424C502.86 124.579 507.423 126.156 513.282 126.156C518.126 126.156 522.126 124.973 525.281 122.607C528.435 120.241 530.013 117.03 530.013 112.974C530.013 109.481 528.773 106.777 526.295 104.862C523.816 102.834 520.661 101.482 516.831 100.806L505.677 99.116C498.466 97.9893 492.326 95.4543 487.256 91.511C482.186 87.455 479.651 81.5963 479.651 73.935C479.651 65.5977 482.636 59.1193 488.608 54.5C494.579 49.8807 502.297 47.571 511.761 47.571C518.633 47.571 524.605 48.8667 529.675 51.458C534.745 53.9367 538.575 57.2603 541.167 61.429C543.758 65.5977 545.054 70.1043 545.054 74.949V75.625H527.816V75.287C527.816 71.907 526.464 68.6397 523.76 65.485C521.056 62.3303 516.887 60.753 511.254 60.753C506.522 60.753 502.691 61.936 499.762 64.302C496.832 66.668 495.368 69.7663 495.368 73.597C495.368 76.8643 496.607 79.512 499.086 81.54C501.564 83.568 504.663 84.8637 508.381 85.427L520.549 87.624C527.985 88.976 534.181 91.6237 539.139 95.567C544.209 99.5103 546.744 105.256 546.744 112.805C546.744 118.213 545.279 123.001 542.35 127.17C539.42 131.339 535.364 134.55 530.182 136.803C524.999 139.056 519.197 140.183 512.775 140.183ZM606.082 20.7C615.772 20.7 623.658 22.6153 629.742 26.446C635.826 30.2767 640.164 35.065 642.755 40.811C645.347 46.557 646.642 52.5847 646.642 58.894C646.642 65.2033 645.347 71.231 642.755 76.977C640.164 82.723 635.826 87.5113 629.742 91.342C623.771 95.06 615.884 96.919 606.082 96.919H578.366V139H567.043V20.7H606.082ZM604.899 86.61C613.462 86.61 620.673 84.5257 626.531 80.357C632.39 76.1883 635.319 69.034 635.319 58.894C635.319 48.8667 632.39 41.7687 626.531 37.6C620.673 33.4313 613.462 31.347 604.899 31.347H578.366V86.61H604.899ZM698.692 140.014C690.805 140.014 683.989 137.986 678.243 133.93C672.609 129.874 668.272 124.353 665.23 117.368C662.3 110.383 660.836 102.552 660.836 93.877C660.836 85.089 662.3 77.2023 665.23 70.217C668.272 63.119 672.666 57.542 678.412 53.486C684.27 49.43 691.256 47.402 699.368 47.402C707.367 47.402 713.845 49.3737 718.803 53.317C723.873 57.1477 727.76 61.8233 730.464 67.344H731.647V50.106H743.308V139H731.647V119.734H730.464C727.534 125.48 723.478 130.325 718.296 134.268C713.226 138.099 706.691 140.014 698.692 140.014ZM701.903 129.705C711.367 129.705 718.577 126.325 723.535 119.565C728.605 112.692 731.14 104.073 731.14 93.708C731.14 83.3427 728.605 74.78 723.535 68.02C718.577 61.26 711.367 57.88 701.903 57.88C692.326 57.88 685.059 61.3163 680.102 68.189C675.257 74.949 672.835 83.4553 672.835 93.708C672.835 104.073 675.313 112.692 680.271 119.565C685.228 126.325 692.439 129.705 701.903 129.705ZM809.088 173.983C803.906 173.983 799.117 173.194 794.723 171.617V161.646C796.075 162.097 797.991 162.491 800.469 162.829C802.948 163.167 805.483 163.336 808.074 163.336C817.2 163.336 824.186 160.801 829.03 155.731C833.875 150.661 836.297 143.732 836.297 134.944V117.368H834.945C832.354 123.114 828.354 127.846 822.946 131.564C817.538 135.282 811.06 137.141 803.511 137.141C796.075 137.141 789.484 135.226 783.738 131.395C777.992 127.564 773.486 122.269 770.218 115.509C767.064 108.636 765.486 100.862 765.486 92.187C765.486 83.5117 767.007 75.794 770.049 69.034C773.204 62.1613 777.654 56.8097 783.4 52.979C789.146 49.1483 795.794 47.233 803.342 47.233C811.229 47.233 817.876 49.261 823.284 53.317C828.805 57.373 832.748 62.3303 835.114 68.189H836.297V50.275H847.958V134.944C847.958 141.366 846.606 147.563 843.902 153.534C841.198 159.505 836.917 164.406 831.058 168.237C825.312 172.068 817.989 173.983 809.088 173.983ZM806.891 126.832C813.088 126.832 818.383 125.255 822.777 122.1C827.171 118.833 830.439 114.551 832.579 109.256C834.833 103.961 835.959 98.1583 835.959 91.849C835.959 85.765 834.833 80.1317 832.579 74.949C830.439 69.6537 827.171 65.4287 822.777 62.274C818.496 59.1193 813.201 57.542 806.891 57.542C800.582 57.542 795.23 59.1193 790.836 62.274C786.555 65.4287 783.288 69.6537 781.034 74.949C778.894 80.1317 777.823 85.765 777.823 91.849C777.823 98.1583 778.894 103.961 781.034 109.256C783.288 114.551 786.555 118.833 790.836 122.1C795.23 125.255 800.582 126.832 806.891 126.832ZM912.843 140.014C903.829 140.014 896.224 137.817 890.028 133.423C883.831 129.029 879.212 123.283 876.17 116.185C873.128 109.087 871.607 101.595 871.607 93.708C871.607 85.8213 873.128 78.329 876.17 71.231C879.212 64.133 883.831 58.387 890.028 53.993C896.224 49.599 903.829 47.402 912.843 47.402C924.673 47.402 934.137 51.4017 941.235 59.401C948.333 67.4003 951.882 78.9487 951.882 94.046V97.257H883.268V98.44C883.268 103.848 884.451 109.031 886.817 113.988C889.295 118.833 892.788 122.72 897.295 125.649C901.801 128.578 906.928 130.043 912.674 130.043C918.983 130.043 924.391 128.466 928.898 125.311C933.404 122.044 936.784 117.65 939.038 112.129H950.53C948.051 120.128 943.657 126.776 937.348 132.071C931.038 137.366 922.87 140.014 912.843 140.014ZM940.221 88.638C939.77 77.484 937.066 69.4283 932.109 64.471C927.151 59.5137 920.729 57.035 912.843 57.035C904.055 57.035 897.069 59.9643 891.887 65.823C886.817 71.6817 884.056 79.2867 883.606 88.638H940.221Z" fill="#0F1E2D"/>
<path d="M400.744 170.152H391.112L388.552 177H386.312L394.824 154.6H396.968L405.576 177H403.336L400.744 170.152ZM400.072 168.328L395.944 157.448H395.816L391.784 168.328H400.072ZM417.836 177.096C417.046 177.096 416.385 177.021 415.852 176.872V175.24C416.214 175.325 416.726 175.368 417.388 175.368C418.177 175.368 418.753 175.229 419.116 174.952C419.5 174.653 419.734 174.301 419.82 173.896C419.905 173.491 419.948 172.979 419.948 172.36V154.6H422.092L422.124 172.776C422.124 173.992 421.836 175.016 421.26 175.848C420.684 176.68 419.542 177.096 417.836 177.096ZM436.039 177.288C433.116 177.288 430.919 176.392 429.447 174.6C427.975 172.787 427.239 170.291 427.239 167.112V154.6H429.415V167.112C429.415 169.032 429.841 170.856 430.695 172.584C431.548 174.312 433.329 175.176 436.039 175.176C438.684 175.176 440.433 174.323 441.287 172.616C442.14 170.888 442.567 169.053 442.567 167.112V154.6H444.711V167.112C444.711 170.312 443.975 172.808 442.503 174.6C441.052 176.392 438.897 177.288 436.039 177.288ZM456.089 167.784H451.737V177H449.529V154.6H456.921C458.755 154.6 460.249 154.931 461.401 155.592C462.553 156.253 463.374 157.085 463.865 158.088C464.355 159.091 464.601 160.136 464.601 161.224C464.601 162.781 464.11 164.189 463.129 165.448C462.169 166.685 460.622 167.432 458.489 167.688L464.697 177H462.233L456.089 167.784ZM451.737 165.864H456.697C458.318 165.864 459.683 165.512 460.793 164.808C461.902 164.104 462.457 162.909 462.457 161.224C462.457 159.539 461.902 158.355 460.793 157.672C459.683 156.968 458.318 156.616 456.697 156.616H451.737V165.864ZM469.562 154.6H471.802V177H469.562V154.6ZM484.823 177.256C483.095 177.256 481.623 176.893 480.407 176.168C479.212 175.443 478.305 174.515 477.687 173.384C477.089 172.253 476.791 171.069 476.791 169.832V169.736H479.223V169.864C479.223 170.675 479.415 171.485 479.799 172.296C480.183 173.107 480.791 173.789 481.623 174.344C482.476 174.899 483.553 175.176 484.855 175.176C486.391 175.176 487.66 174.781 488.663 173.992C489.687 173.181 490.199 172.104 490.199 170.76C490.199 169.629 489.836 168.744 489.111 168.104C488.385 167.464 487.457 167.037 486.327 166.824L482.903 166.152C481.665 165.917 480.439 165.395 479.223 164.584C478.007 163.773 477.399 162.376 477.399 160.392C477.399 159.155 477.697 158.067 478.295 157.128C478.892 156.168 479.735 155.432 480.823 154.92C481.932 154.387 483.191 154.12 484.599 154.12C486.22 154.12 487.607 154.451 488.759 155.112C489.911 155.773 490.775 156.637 491.351 157.704C491.927 158.749 492.215 159.837 492.215 160.968V161.064H489.783V160.968C489.783 160.285 489.612 159.581 489.271 158.856C488.951 158.109 488.396 157.469 487.607 156.936C486.839 156.403 485.815 156.136 484.535 156.136C483.02 156.136 481.825 156.541 480.951 157.352C480.076 158.163 479.639 159.176 479.639 160.392C479.639 161.395 479.959 162.216 480.599 162.856C481.26 163.496 482.167 163.933 483.319 164.168L486.359 164.744C490.476 165.576 492.535 167.56 492.535 170.696C492.535 171.955 492.215 173.085 491.575 174.088C490.935 175.069 490.028 175.848 488.855 176.424C487.703 176.979 486.359 177.256 484.823 177.256ZM504.123 154.6H512.187C514.192 154.6 515.941 155.059 517.435 155.976C518.949 156.872 520.112 158.173 520.923 159.88C521.755 161.565 522.171 163.539 522.171 165.8C522.171 168.061 521.755 170.035 520.923 171.72C520.112 173.405 518.949 174.707 517.435 175.624C515.941 176.541 514.181 177 512.155 177H504.123V154.6ZM511.899 174.952C513.477 174.952 514.864 174.6 516.059 173.896C517.275 173.171 518.213 172.115 518.875 170.728C519.536 169.341 519.867 167.688 519.867 165.768C519.867 163.848 519.536 162.205 518.875 160.84C518.213 159.453 517.275 158.408 516.059 157.704C514.864 156.979 513.477 156.616 511.899 156.616H506.299V174.952H511.899ZM526.281 154.6H528.521V177H526.281V154.6ZM542.676 177.192C540.479 177.192 538.644 176.637 537.172 175.528C535.722 174.397 534.655 172.957 533.972 171.208C533.29 169.459 532.948 167.624 532.948 165.704C532.948 163.763 533.29 161.917 533.972 160.168C534.655 158.397 535.732 156.947 537.204 155.816C538.698 154.685 540.575 154.12 542.836 154.12C545.332 154.12 547.338 154.792 548.852 156.136C550.388 157.459 551.444 159.123 552.02 161.128H549.684C549.215 159.549 548.404 158.333 547.252 157.48C546.122 156.605 544.65 156.168 542.836 156.168C540.468 156.168 538.602 157.021 537.236 158.728C535.892 160.435 535.22 162.76 535.22 165.704C535.22 167.688 535.53 169.405 536.148 170.856C536.767 172.285 537.652 173.384 538.804 174.152C539.978 174.899 541.343 175.272 542.9 175.272C544.33 175.272 545.567 174.973 546.612 174.376C547.658 173.779 548.458 172.957 549.012 171.912C549.588 170.845 549.898 169.64 549.94 168.296L549.972 167.304H543.188V165.576H551.988V177H550.164V173.128H549.908C549.503 173.96 548.778 174.845 547.732 175.784C546.687 176.723 545.002 177.192 542.676 177.192ZM556.812 154.6H559.052V177H556.812V154.6ZM578.968 156.616H572.184V177H569.976V156.616H563.192V154.6H578.968V156.616ZM593.775 170.152H584.143L581.583 177H579.343L587.855 154.6H589.999L598.607 177H596.367L593.775 170.152ZM593.103 168.328L588.975 157.448H588.847L584.815 168.328H593.103ZM615.364 174.984V177H602.436L602.404 154.6H604.644L604.612 174.984H615.364ZM635.998 177.192C633.928 177.192 632.136 176.701 630.622 175.72C629.128 174.739 627.976 173.384 627.166 171.656C626.376 169.907 625.982 167.912 625.982 165.672C625.982 163.411 626.376 161.416 627.166 159.688C627.976 157.939 629.128 156.573 630.622 155.592C632.136 154.611 633.928 154.12 635.998 154.12C638.494 154.12 640.563 154.813 642.206 156.2C643.87 157.587 644.979 159.475 645.534 161.864H643.358C642.867 160.115 641.971 158.728 640.67 157.704C639.39 156.659 637.843 156.136 636.03 156.136C633.555 156.136 631.646 156.989 630.302 158.696C628.979 160.403 628.318 162.717 628.318 165.64C628.318 168.541 628.979 170.856 630.302 172.584C631.646 174.291 633.555 175.144 636.03 175.144C637.736 175.144 639.198 174.696 640.414 173.8C641.651 172.883 642.547 171.645 643.102 170.088H645.342C644.723 172.264 643.603 173.992 641.982 175.272C640.36 176.552 638.366 177.192 635.998 177.192ZM658.933 177.192C656.842 177.192 655.04 176.712 653.525 175.752C652.01 174.771 650.858 173.416 650.069 171.688C649.28 169.939 648.885 167.944 648.885 165.704C648.885 163.443 649.28 161.437 650.069 159.688C650.88 157.939 652.032 156.573 653.525 155.592C655.04 154.611 656.842 154.12 658.933 154.12C661.024 154.12 662.816 154.611 664.309 155.592C665.824 156.552 666.976 157.907 667.765 159.656C668.576 161.405 668.981 163.421 668.981 165.704C668.981 167.965 668.576 169.96 667.765 171.688C666.976 173.416 665.824 174.771 664.309 175.752C662.816 176.712 661.024 177.192 658.933 177.192ZM658.933 175.112C660.512 175.112 661.877 174.717 663.029 173.928C664.202 173.139 665.098 172.029 665.717 170.6C666.357 169.171 666.677 167.517 666.677 165.64C666.677 163.784 666.357 162.141 665.717 160.712C665.098 159.283 664.202 158.173 663.029 157.384C661.877 156.573 660.512 156.168 658.933 156.168C657.354 156.168 655.978 156.573 654.805 157.384C653.653 158.173 652.757 159.293 652.117 160.744C651.498 162.173 651.189 163.816 651.189 165.672C651.189 167.528 651.498 169.171 652.117 170.6C652.757 172.029 653.653 173.139 654.805 173.928C655.978 174.717 657.354 175.112 658.933 175.112ZM673.341 154.6H676.573L683.805 172.84H683.901L691.133 154.6H694.365V177H692.189V158.152H692.029L684.701 177H683.005L675.677 158.152H675.517V177H673.341V154.6ZM707.077 154.6C708.912 154.6 710.405 154.963 711.557 155.688C712.709 156.413 713.53 157.32 714.021 158.408C714.512 159.496 714.757 160.637 714.757 161.832C714.757 163.027 714.512 164.168 714.021 165.256C713.53 166.344 712.709 167.251 711.557 167.976C710.426 168.68 708.933 169.032 707.077 169.032H701.829V177H699.685V154.6H707.077ZM706.853 167.08C708.474 167.08 709.84 166.685 710.949 165.896C712.058 165.107 712.613 163.752 712.613 161.832C712.613 159.933 712.058 158.589 710.949 157.8C709.84 157.011 708.474 156.616 706.853 156.616H701.829V167.08H706.853ZM730.025 170.152H720.393L717.833 177H715.593L724.105 154.6H726.249L734.857 177H732.617L730.025 170.152ZM729.353 168.328L725.225 157.448H725.097L721.065 168.328H729.353ZM738.654 154.6H741.118L754.078 173.384H754.174V154.6H756.382V177H753.918L740.99 158.376H740.862V177H738.654V154.6ZM767.543 177.032V168.776L760.247 154.6H762.711L768.535 166.152H768.791L774.519 154.6H777.015L769.751 168.776V177L767.543 177.032Z" fill="#0F1E2D"/>
<path fill-rule="evenodd" clip-rule="evenodd" d="M77.5768 29.6155V8H0.46991V29.6155H77.5768ZM21.6155 84.6069V84.5939H0L1.90735e-06 84.6069H21.6155Z" fill="#52DBE3"/>
<path fill-rule="evenodd" clip-rule="evenodd" d="M154.128 84.6069H131.572V84.5939V29.6155H77.5768V8H154.128V84.5939V84.6069Z" fill="#FCB900"/>
<path fill-rule="evenodd" clip-rule="evenodd" d="M1.90735e-06 84.6069C0.00705338 127.362 34.777 161.658 77.0638 161.658C77.2349 161.658 77.406 161.657 77.5768 161.656V139.564C77.2494 139.569 76.9218 139.572 76.5939 139.572C62.0269 139.572 47.9299 133.934 37.5921 123.596C27.2573 113.261 21.6188 99.1692 21.6155 84.6069H1.90735e-06Z" fill="#8F56E2"/>
<path fill-rule="evenodd" clip-rule="evenodd" d="M77.5768 161.656V139.564C91.7936 139.316 105.491 133.701 115.596 123.596C125.93 113.261 131.569 99.1692 131.572 84.6069H154.128C154.121 126.723 120.094 161.379 77.5768 161.656Z" fill="#7FE356"/>
<path fill-rule="evenodd" clip-rule="evenodd" d="M77.5768 29.6155V8H0.46991V29.6155H77.5768ZM21.6155 84.6069V84.5939H0L1.90735e-06 84.6069H21.6155Z" fill="#52DBE3"/>
<path fill-rule="evenodd" clip-rule="evenodd" d="M154.128 84.6069H131.572V84.5939V29.6155H77.5768V8H154.128V84.5939V84.6069Z" fill="#FCB900"/>
<path fill-rule="evenodd" clip-rule="evenodd" d="M1.90735e-06 84.6069C0.00705338 127.362 34.777 161.658 77.0638 161.658C77.2349 161.658 77.406 161.657 77.5768 161.656V139.564C77.2494 139.569 76.9218 139.572 76.5939 139.572C62.0269 139.572 47.9299 133.934 37.5921 123.596C27.2573 113.261 21.6188 99.1692 21.6155 84.6069H1.90735e-06Z" fill="#8F56E2"/>
<path fill-rule="evenodd" clip-rule="evenodd" d="M77.5768 161.656V139.564C91.7936 139.316 105.491 133.701 115.596 123.596C125.93 113.261 131.569 99.1692 131.572 84.6069H154.128C154.121 126.723 120.094 161.379 77.5768 161.656Z" fill="#7FE356"/>
</svg>
